<svg version="1.2" xmlns="http://www.w3.org/2000/svg" viewBox="0 0 1000 1000" width="1000" height="1000">
	<title>5490519-ai</title>
	<style>
		.s0 { fill: #ebebeb } 
		.s1 { fill: #fafafa } 
		.s2 { fill: #f0f0f0 } 
		.s3 { fill: #e0e0e0 } 
		.s4 { fill: #f0f0f0;stroke: #e0e0e0;stroke-linecap: round;stroke-linejoin: round;stroke-width: 4 } 
		.s5 { fill: #f5f5f5 } 
		.s6 { fill: #263238 } 
		.s7 { fill: #ffffff } 
		.s8 { fill: #000000 } 
		.s9 { opacity: .2;fill: #000000 } 
		.s10 { fill: #407bff } 
		.s11 { fill: #ebb376 } 
		.s12 { opacity: .4;fill: #ffffff } 
		.s13 { fill: #d58745 } 
		.s14 { fill: none;stroke: #2e353a;stroke-linecap: round;stroke-linejoin: round;stroke-width: 1.4 } 
		.s15 { fill: #de5753 } 
		.s16 { fill: none;stroke: #263238 } 
		.s17 { opacity: .1;fill: #ffffff } 
		.s18 { opacity: .3;fill: #ffffff } 
		.s19 { opacity: .6;fill: #ffffff } 
		.s20 { opacity: .2;fill: #ffffff } 
		.s21 { fill: #2e353a } 
		.s22 { opacity: .8;fill: #ffffff } 
		.s23 { opacity: .9;fill: #ffffff } 
		.s24 { fill: #e4897b } 
		.s25 { opacity: .3;fill: #000000 } 
		.s26 { fill: none;stroke: #263238;stroke-linecap: round;stroke-linejoin: round } 
	</style>
	<g id="Background Complete">
		<g id="&lt;Group&gt;">
			<path id="&lt;Path&gt;" class="s0" d="m1000 765.3h-1000v-0.5h1000z"/>
			<path id="&lt;Path&gt;" class="s0" d="m833.6 797h66.2v0.5h-66.2z"/>
			<path id="&lt;Path&gt;" class="s0" d="m645.1 802.4h17.3v0.5h-17.3z"/>
			<path id="&lt;Path&gt;" class="s0" d="m793.2 778.4h38.4v0.5h-38.4z"/>
			<path id="&lt;Path&gt;" class="s0" d="m104.9 781.8h86.4v0.5h-86.4z"/>
			<path id="&lt;Path&gt;" class="s0" d="m209.1 781.8h12.7v0.5h-12.7z"/>
			<path id="&lt;Path&gt;" class="s0" d="m262.9 790.2h187.4v0.5h-187.4z"/>
			<path id="&lt;Compound Path&gt;" fill-rule="evenodd" class="s0" d="m474 675.6h-386.2c-6.3 0-11.4-5.1-11.4-11.4v-542.9c0-6.3 5.1-11.4 11.4-11.4h386.2c6.3 0 11.4 5.1 11.4 11.4v542.9c0 6.3-5.1 11.4-11.4 11.4zm-386.2-565.2c-6 0-10.9 4.9-10.9 10.9v542.9c0 6 4.9 10.9 10.9 10.9h386.2c6 0 10.9-4.9 10.9-10.9v-542.9c0-6-4.9-10.9-10.9-10.9z"/>
			<path id="&lt;Compound Path&gt;" fill-rule="evenodd" class="s0" d="m906.6 675.6h-386.2c-6.3 0-11.4-5.1-11.4-11.4v-542.9c0-6.3 5.1-11.4 11.4-11.4h386.2c6.3 0 11.4 5.1 11.4 11.4v542.9c0 6.3-5.1 11.4-11.4 11.4zm-386.2-565.2c-6 0-10.9 4.9-10.9 10.9v542.9c0 6 4.9 10.9 10.9 10.9h386.2c6 0 10.9-4.9 10.9-10.9v-542.9c0-6-4.9-10.9-10.9-10.9z"/>
		</g>
		<g id="&lt;Group&gt;">
			<g id="&lt;Group&gt;">
				<path id="&lt;Path&gt;" class="s0" d="m847.8 241.4v379.9h-339v-379.9z"/>
				<path id="&lt;Path&gt;" class="s1" d="m841.2 247.5v367h-332.4v-367z"/>
				<g id="&lt;Group&gt;">
					<path id="&lt;Path&gt;" class="s2" d="m841.2 442.3v172.2h-332.4v-266.7h3.3v25.8h8.6v17.2h7.4v25.8h13.5v7.3h6.1v28.3h7.4v-35.6h13.5v-78.6h3.7v-8.6h29.4v8.6h6.2v56.5h24.5v6.1h8.6v3.7h-8.6v22.1h25.8v-73.7h4.9v-14.7h12.3v-56.5h3.7v56.5h8.6v14.7h50.3v-4.9h2.5v35.6h7.3v35.6h3.7v8.6h9.8v-25.8h2.5v61.4h3.7v-25.8h3.7v40.5h1.2v-28.2h6.1v-7.4h13.5v-25.7h7.4v-17.2h9.8v-25.8h2.5v25.8h9.8v17.2h7.4v25.7z"/>
					<g id="&lt;Group&gt;">
						<path id="&lt;Path&gt;" class="s1" d="m710 360h-3.5v-3.4h3.5z"/>
						<path id="&lt;Path&gt;" class="s1" d="m710 365.9h-3.5v-3.5h3.5z"/>
						<path id="&lt;Path&gt;" class="s1" d="m710 389.2h-3.5v-3.5h3.5z"/>
						<path id="&lt;Path&gt;" class="s1" d="m710 395h-3.5v-3.5h3.5z"/>
						<path id="&lt;Path&gt;" class="s1" d="m710 400.9h-3.5v-3.5h3.5z"/>
						<path id="&lt;Path&gt;" class="s1" d="m710 418.4h-3.5v-3.5h3.5z"/>
						<path id="&lt;Path&gt;" class="s1" d="m710 424.2h-3.5v-3.5h3.5z"/>
						<path id="&lt;Path&gt;" class="s1" d="m704.4 383.4h-3.4v-3.5h3.4z"/>
						<path id="&lt;Path&gt;" class="s1" d="m704.4 389.2h-3.4v-3.5h3.4z"/>
						<path id="&lt;Path&gt;" class="s1" d="m704.4 395h-3.4v-3.5h3.4z"/>
						<path id="&lt;Path&gt;" class="s1" d="m704.4 400.9h-3.4v-3.5h3.4z"/>
						<path id="&lt;Path&gt;" class="s1" d="m704.4 406.7h-3.4v-3.5h3.4z"/>
						<path id="&lt;Path&gt;" class="s1" d="m704.4 418.4h-3.4v-3.5h3.4z"/>
						<path id="&lt;Path&gt;" class="s1" d="m704.4 424.2h-3.4v-3.5h3.4z"/>
						<path id="&lt;Path&gt;" class="s1" d="m698.9 360h-3.5v-3.4h3.5z"/>
						<path id="&lt;Path&gt;" class="s1" d="m698.9 365.9h-3.5v-3.5h3.5z"/>
						<path id="&lt;Path&gt;" class="s1" d="m698.9 371.7h-3.5v-3.5h3.5z"/>
						<path id="&lt;Path&gt;" class="s1" d="m698.9 377.5h-3.5v-3.4h3.5z"/>
						<path id="&lt;Path&gt;" class="s1" d="m698.9 383.4h-3.5v-3.5h3.5z"/>
						<path id="&lt;Path&gt;" class="s1" d="m698.9 389.2h-3.5v-3.5h3.5z"/>
						<path id="&lt;Path&gt;" class="s1" d="m698.9 395h-3.5v-3.5h3.5z"/>
						<path id="&lt;Path&gt;" class="s1" d="m698.9 400.9h-3.5v-3.5h3.5z"/>
						<path id="&lt;Path&gt;" class="s1" d="m698.9 406.7h-3.5v-3.5h3.5z"/>
						<path id="&lt;Path&gt;" class="s1" d="m698.9 412.5h-3.5v-3.5h3.5z"/>
						<path id="&lt;Path&gt;" class="s1" d="m698.9 424.2h-3.5v-3.5h3.5z"/>
						<path id="&lt;Path&gt;" class="s1" d="m693.4 360h-3.5v-3.4h3.5z"/>
						<path id="&lt;Path&gt;" class="s1" d="m693.4 365.9h-3.5v-3.5h3.5z"/>
						<path id="&lt;Path&gt;" class="s1" d="m693.4 371.7h-3.5v-3.5h3.5z"/>
						<path id="&lt;Path&gt;" class="s1" d="m693.4 377.5h-3.5v-3.4h3.5z"/>
						<path id="&lt;Path&gt;" class="s1" d="m693.4 383.4h-3.5v-3.5h3.5z"/>
						<path id="&lt;Path&gt;" class="s1" d="m693.4 389.2h-3.5v-3.5h3.5z"/>
						<path id="&lt;Path&gt;" class="s1" d="m693.4 395h-3.5v-3.5h3.5z"/>
						<path id="&lt;Path&gt;" class="s1" d="m693.4 447.5h-3.5v-3.5h3.5z"/>
						<path id="&lt;Path&gt;" class="s1" d="m687.9 360h-3.5v-3.4h3.5z"/>
						<path id="&lt;Path&gt;" class="s1" d="m687.9 365.9h-3.5v-3.5h3.5z"/>
						<path id="&lt;Path&gt;" class="s1" d="m687.9 371.7h-3.5v-3.5h3.5z"/>
						<path id="&lt;Path&gt;" class="s1" d="m687.9 377.5h-3.5v-3.4h3.5z"/>
						<path id="&lt;Path&gt;" class="s1" d="m687.9 383.4h-3.5v-3.5h3.5z"/>
						<path id="&lt;Path&gt;" class="s1" d="m687.9 389.2h-3.5v-3.5h3.5z"/>
						<path id="&lt;Path&gt;" class="s1" d="m687.9 395h-3.5v-3.5h3.5z"/>
						<path id="&lt;Path&gt;" class="s1" d="m687.9 400.9h-3.5v-3.5h3.5z"/>
						<path id="&lt;Path&gt;" class="s1" d="m687.9 435.9h-3.5v-3.5h3.5z"/>
						<path id="&lt;Path&gt;" class="s1" d="m687.9 441.7h-3.5v-3.5h3.5z"/>
						<path id="&lt;Path&gt;" class="s1" d="m687.9 447.5h-3.5v-3.5h3.5z"/>
						<path id="&lt;Path&gt;" class="s1" d="m687.9 453.3h-3.5v-3.4h3.5z"/>
						<path id="&lt;Path&gt;" class="s1" d="m687.9 476.7h-3.5v-3.5h3.5z"/>
						<path id="&lt;Path&gt;" class="s1" d="m682.3 360h-3.4v-3.4h3.4z"/>
						<path id="&lt;Path&gt;" class="s1" d="m682.3 365.9h-3.4v-3.5h3.4z"/>
						<path id="&lt;Path&gt;" class="s1" d="m682.3 371.7h-3.4v-3.5h3.4z"/>
						<path id="&lt;Path&gt;" class="s1" d="m682.3 377.5h-3.4v-3.4h3.4z"/>
						<path id="&lt;Path&gt;" class="s1" d="m682.3 383.4h-3.4v-3.5h3.4z"/>
						<path id="&lt;Path&gt;" class="s1" d="m682.3 389.2h-3.4v-3.5h3.4z"/>
						<path id="&lt;Path&gt;" class="s1" d="m682.3 395h-3.4v-3.5h3.4z"/>
						<path id="&lt;Path&gt;" class="s1" d="m682.3 400.9h-3.4v-3.5h3.4z"/>
						<path id="&lt;Path&gt;" class="s1" d="m682.3 406.7h-3.4v-3.5h3.4z"/>
						<path id="&lt;Path&gt;" class="s1" d="m682.3 412.5h-3.4v-3.5h3.4z"/>
						<path id="&lt;Path&gt;" class="s1" d="m682.3 430h-3.4v-3.5h3.4z"/>
						<path id="&lt;Path&gt;" class="s1" d="m682.3 435.9h-3.4v-3.5h3.4z"/>
						<path id="&lt;Path&gt;" class="s1" d="m682.3 441.7h-3.4v-3.5h3.4z"/>
						<path id="&lt;Path&gt;" class="s1" d="m682.3 447.5h-3.4v-3.5h3.4z"/>
						<path id="&lt;Path&gt;" class="s1" d="m682.3 453.3h-3.4v-3.4h3.4z"/>
						<path id="&lt;Path&gt;" class="s1" d="m682.3 476.7h-3.4v-3.5h3.4z"/>
						<path id="&lt;Path&gt;" class="s1" d="m676.8 360h-3.5v-3.4h3.5z"/>
						<path id="&lt;Path&gt;" class="s1" d="m676.8 365.9h-3.5v-3.5h3.5z"/>
						<path id="&lt;Path&gt;" class="s1" d="m676.8 371.7h-3.5v-3.5h3.5z"/>
						<path id="&lt;Path&gt;" class="s1" d="m676.8 377.5h-3.5v-3.4h3.5z"/>
						<path id="&lt;Path&gt;" class="s1" d="m676.8 383.4h-3.5v-3.5h3.5z"/>
						<path id="&lt;Path&gt;" class="s1" d="m676.8 389.2h-3.5v-3.5h3.5z"/>
						<path id="&lt;Path&gt;" class="s1" d="m676.8 395h-3.5v-3.5h3.5z"/>
						<path id="&lt;Path&gt;" class="s1" d="m676.8 400.9h-3.5v-3.5h3.5z"/>
						<path id="&lt;Path&gt;" class="s1" d="m676.8 406.7h-3.5v-3.5h3.5z"/>
						<path id="&lt;Path&gt;" class="s1" d="m676.8 412.5h-3.5v-3.5h3.5z"/>
						<path id="&lt;Path&gt;" class="s1" d="m676.8 418.4h-3.5v-3.5h3.5z"/>
						<path id="&lt;Path&gt;" class="s1" d="m676.8 424.2h-3.5v-3.5h3.5z"/>
						<path id="&lt;Path&gt;" class="s1" d="m676.8 430h-3.5v-3.5h3.5z"/>
						<path id="&lt;Path&gt;" class="s1" d="m676.8 435.9h-3.5v-3.5h3.5z"/>
						<path id="&lt;Path&gt;" class="s1" d="m676.8 441.7h-3.5v-3.5h3.5z"/>
						<path id="&lt;Path&gt;" class="s1" d="m676.8 447.5h-3.5v-3.5h3.5z"/>
						<path id="&lt;Path&gt;" class="s1" d="m676.8 453.3h-3.5v-3.4h3.5z"/>
						<path id="&lt;Path&gt;" class="s1" d="m676.8 459.2h-3.5v-3.5h3.5z"/>
						<path id="&lt;Path&gt;" class="s1" d="m671.3 360h-3.5v-3.4h3.5z"/>
						<path id="&lt;Path&gt;" class="s1" d="m671.3 365.9h-3.5v-3.5h3.5z"/>
						<path id="&lt;Path&gt;" class="s1" d="m671.3 371.7h-3.5v-3.5h3.5z"/>
						<path id="&lt;Path&gt;" class="s1" d="m671.3 377.5h-3.5v-3.4h3.5z"/>
						<path id="&lt;Path&gt;" class="s1" d="m671.3 383.4h-3.5v-3.5h3.5z"/>
						<path id="&lt;Path&gt;" class="s1" d="m671.3 389.2h-3.5v-3.5h3.5z"/>
						<path id="&lt;Path&gt;" class="s1" d="m671.3 395h-3.5v-3.5h3.5z"/>
						<path id="&lt;Path&gt;" class="s1" d="m671.3 400.9h-3.5v-3.5h3.5z"/>
						<path id="&lt;Path&gt;" class="s1" d="m671.3 406.7h-3.5v-3.5h3.5z"/>
						<path id="&lt;Path&gt;" class="s1" d="m671.3 412.5h-3.5v-3.5h3.5z"/>
						<path id="&lt;Path&gt;" class="s1" d="m671.3 430h-3.5v-3.5h3.5z"/>
						<path id="&lt;Path&gt;" class="s1" d="m671.3 435.9h-3.5v-3.5h3.5z"/>
						<path id="&lt;Path&gt;" class="s1" d="m671.3 441.7h-3.5v-3.5h3.5z"/>
						<path id="&lt;Path&gt;" class="s1" d="m671.3 447.5h-3.5v-3.5h3.5z"/>
						<path id="&lt;Path&gt;" class="s1" d="m665.8 360h-3.5v-3.4h3.5z"/>
						<path id="&lt;Path&gt;" class="s1" d="m665.8 365.9h-3.5v-3.5h3.5z"/>
						<path id="&lt;Path&gt;" class="s1" d="m665.8 371.7h-3.5v-3.5h3.5z"/>
						<path id="&lt;Path&gt;" class="s1" d="m665.8 377.5h-3.5v-3.4h3.5z"/>
						<path id="&lt;Path&gt;" class="s1" d="m665.8 383.4h-3.5v-3.5h3.5z"/>
						<path id="&lt;Path&gt;" class="s1" d="m665.8 389.2h-3.5v-3.5h3.5z"/>
						<path id="&lt;Path&gt;" class="s1" d="m665.8 395h-3.5v-3.5h3.5z"/>
						<path id="&lt;Path&gt;" class="s1" d="m665.8 400.9h-3.5v-3.5h3.5z"/>
						<path id="&lt;Path&gt;" class="s1" d="m665.8 406.7h-3.5v-3.5h3.5z"/>
						<path id="&lt;Path&gt;" class="s1" d="m665.8 412.5h-3.5v-3.5h3.5z"/>
						<path id="&lt;Path&gt;" class="s1" d="m665.8 430h-3.5v-3.5h3.5z"/>
						<path id="&lt;Path&gt;" class="s1" d="m665.8 435.9h-3.5v-3.5h3.5z"/>
						<path id="&lt;Path&gt;" class="s1" d="m665.8 441.7h-3.5v-3.5h3.5z"/>
						<path id="&lt;Path&gt;" class="s1" d="m603.5 344.9h-3.4v-3.5h3.4z"/>
						<path id="&lt;Path&gt;" class="s1" d="m603.5 350.7h-3.4v-3.5h3.4z"/>
						<path id="&lt;Path&gt;" class="s1" d="m603.5 356.6h-3.4v-3.5h3.4z"/>
						<path id="&lt;Path&gt;" class="s1" d="m603.5 362.4h-3.4v-3.5h3.4z"/>
						<path id="&lt;Path&gt;" class="s1" d="m603.5 368.2h-3.4v-3.5h3.4z"/>
						<path id="&lt;Path&gt;" class="s1" d="m603.5 374.1h-3.4v-3.5h3.4z"/>
						<path id="&lt;Path&gt;" class="s1" d="m603.5 379.9h-3.4v-3.5h3.4z"/>
						<path id="&lt;Path&gt;" class="s1" d="m603.5 385.7h-3.4v-3.5h3.4z"/>
						<path id="&lt;Path&gt;" class="s1" d="m603.5 403.2h-3.4v-3.5h3.4z"/>
						<path id="&lt;Path&gt;" class="s1" d="m603.5 409h-3.4v-3.4h3.4z"/>
						<path id="&lt;Path&gt;" class="s1" d="m598 344.9h-3.5v-3.5h3.5z"/>
						<path id="&lt;Path&gt;" class="s1" d="m598 350.7h-3.5v-3.5h3.5z"/>
						<path id="&lt;Path&gt;" class="s1" d="m598 356.6h-3.5v-3.5h3.5z"/>
						<path id="&lt;Path&gt;" class="s1" d="m598 362.4h-3.5v-3.5h3.5z"/>
						<path id="&lt;Path&gt;" class="s1" d="m598 368.2h-3.5v-3.5h3.5z"/>
						<path id="&lt;Path&gt;" class="s1" d="m598 374.1h-3.5v-3.5h3.5z"/>
						<path id="&lt;Path&gt;" class="s1" d="m598 379.9h-3.5v-3.5h3.5z"/>
						<path id="&lt;Path&gt;" class="s1" d="m598 385.7h-3.5v-3.5h3.5z"/>
						<path id="&lt;Path&gt;" class="s1" d="m598 409h-3.5v-3.4h3.5z"/>
						<path id="&lt;Path&gt;" class="s1" d="m592.5 344.9h-3.5v-3.5h3.5z"/>
						<path id="&lt;Path&gt;" class="s1" d="m592.5 350.7h-3.5v-3.5h3.5z"/>
						<path id="&lt;Path&gt;" class="s1" d="m592.5 356.6h-3.5v-3.5h3.5z"/>
						<path id="&lt;Path&gt;" class="s1" d="m592.5 362.4h-3.5v-3.5h3.5z"/>
						<path id="&lt;Path&gt;" class="s1" d="m592.5 368.2h-3.5v-3.5h3.5z"/>
						<path id="&lt;Path&gt;" class="s1" d="m592.5 374.1h-3.5v-3.5h3.5z"/>
						<path id="&lt;Path&gt;" class="s1" d="m592.5 379.9h-3.5v-3.5h3.5z"/>
						<path id="&lt;Path&gt;" class="s1" d="m592.5 385.7h-3.5v-3.5h3.5z"/>
						<path id="&lt;Path&gt;" class="s1" d="m587 344.9h-3.5v-3.5h3.5z"/>
						<path id="&lt;Path&gt;" class="s1" d="m587 350.7h-3.5v-3.5h3.5z"/>
						<path id="&lt;Path&gt;" class="s1" d="m587 356.6h-3.5v-3.5h3.5z"/>
						<path id="&lt;Path&gt;" class="s1" d="m587 362.4h-3.5v-3.5h3.5z"/>
						<path id="&lt;Path&gt;" class="s1" d="m587 368.2h-3.5v-3.5h3.5z"/>
						<path id="&lt;Path&gt;" class="s1" d="m587 374.1h-3.5v-3.5h3.5z"/>
						<path id="&lt;Path&gt;" class="s1" d="m587 385.7h-3.5v-3.5h3.5z"/>
						<path id="&lt;Path&gt;" class="s1" d="m587 391.5h-3.5v-3.4h3.5z"/>
						<path id="&lt;Path&gt;" class="s1" d="m587 409h-3.5v-3.4h3.5z"/>
						<path id="&lt;Path&gt;" class="s1" d="m587 414.9h-3.5v-3.5h3.5z"/>
						<path id="&lt;Path&gt;" class="s1" d="m587 420.7h-3.5v-3.5h3.5z"/>
						<path id="&lt;Path&gt;" class="s1" d="m587 426.5h-3.5v-3.4h3.5z"/>
						<path id="&lt;Path&gt;" class="s1" d="m587 432.4h-3.5v-3.5h3.5z"/>
						<path id="&lt;Path&gt;" class="s1" d="m587 438.2h-3.5v-3.5h3.5z"/>
						<path id="&lt;Path&gt;" class="s1" d="m587 444h-3.5v-3.4h3.5z"/>
						<path id="&lt;Path&gt;" class="s1" d="m581.4 344.9h-3.4v-3.5h3.4z"/>
						<path id="&lt;Path&gt;" class="s1" d="m581.4 350.7h-3.4v-3.5h3.4z"/>
						<path id="&lt;Path&gt;" class="s1" d="m581.4 356.6h-3.4v-3.5h3.4z"/>
						<path id="&lt;Path&gt;" class="s1" d="m581.4 362.4h-3.4v-3.5h3.4z"/>
						<path id="&lt;Path&gt;" class="s1" d="m581.4 368.2h-3.4v-3.5h3.4z"/>
						<path id="&lt;Path&gt;" class="s1" d="m581.4 374.1h-3.4v-3.5h3.4z"/>
						<path id="&lt;Path&gt;" class="s1" d="m581.4 391.5h-3.4v-3.4h3.4z"/>
						<path id="&lt;Path&gt;" class="s1" d="m581.4 397.4h-3.4v-3.5h3.4z"/>
						<path id="&lt;Path&gt;" class="s1" d="m581.4 403.2h-3.4v-3.5h3.4z"/>
						<path id="&lt;Path&gt;" class="s1" d="m581.4 409h-3.4v-3.4h3.4z"/>
						<path id="&lt;Path&gt;" class="s1" d="m581.4 414.9h-3.4v-3.5h3.4z"/>
						<path id="&lt;Path&gt;" class="s1" d="m581.4 420.7h-3.4v-3.5h3.4z"/>
						<path id="&lt;Path&gt;" class="s1" d="m581.4 426.5h-3.4v-3.4h3.4z"/>
						<path id="&lt;Path&gt;" class="s1" d="m581.4 432.4h-3.4v-3.5h3.4z"/>
						<path id="&lt;Path&gt;" class="s1" d="m581.4 438.2h-3.4v-3.5h3.4z"/>
						<path id="&lt;Path&gt;" class="s1" d="m581.4 444h-3.4v-3.4h3.4z"/>
						<path id="&lt;Path&gt;" class="s1" d="m581.4 449.9h-3.4v-3.5h3.4z"/>
						<path id="&lt;Path&gt;" class="s1" d="m581.4 461.5h-3.4v-3.4h3.4z"/>
						<path id="&lt;Path&gt;" class="s1" d="m575.9 344.9h-3.5v-3.5h3.5z"/>
						<path id="&lt;Path&gt;" class="s1" d="m575.9 350.7h-3.5v-3.5h3.5z"/>
						<path id="&lt;Path&gt;" class="s1" d="m575.9 356.6h-3.5v-3.5h3.5z"/>
						<path id="&lt;Path&gt;" class="s1" d="m575.9 362.4h-3.5v-3.5h3.5z"/>
						<path id="&lt;Path&gt;" class="s1" d="m575.9 368.2h-3.5v-3.5h3.5z"/>
						<path id="&lt;Path&gt;" class="s1" d="m575.9 374.1h-3.5v-3.5h3.5z"/>
						<path id="&lt;Path&gt;" class="s1" d="m575.9 391.5h-3.5v-3.4h3.5z"/>
						<path id="&lt;Path&gt;" class="s1" d="m575.9 397.4h-3.5v-3.5h3.5z"/>
						<path id="&lt;Path&gt;" class="s1" d="m575.9 403.2h-3.5v-3.5h3.5z"/>
						<path id="&lt;Path&gt;" class="s1" d="m575.9 409h-3.5v-3.4h3.5z"/>
						<path id="&lt;Path&gt;" class="s1" d="m575.9 426.5h-3.5v-3.4h3.5z"/>
						<path id="&lt;Path&gt;" class="s1" d="m575.9 432.4h-3.5v-3.5h3.5z"/>
						<path id="&lt;Path&gt;" class="s1" d="m575.9 438.2h-3.5v-3.5h3.5z"/>
						<path id="&lt;Path&gt;" class="s1" d="m575.9 444h-3.5v-3.4h3.5z"/>
						<path id="&lt;Path&gt;" class="s1" d="m575.9 449.9h-3.5v-3.5h3.5z"/>
						<path id="&lt;Path&gt;" class="s1" d="m575.9 461.5h-3.5v-3.4h3.5z"/>
						<path id="&lt;Path&gt;" class="s1" d="m575.9 467.4h-3.5v-3.5h3.5z"/>
						<path id="&lt;Path&gt;" class="s1" d="m525.8 399.1h-3.5v-3.5h3.5z"/>
						<path id="&lt;Path&gt;" class="s1" d="m525.8 405h-3.5v-3.5h3.5z"/>
						<path id="&lt;Path&gt;" class="s1" d="m525.8 410.8h-3.5v-3.5h3.5z"/>
						<path id="&lt;Path&gt;" class="s1" d="m525.8 416.6h-3.5v-3.5h3.5z"/>
						<path id="&lt;Path&gt;" class="s1" d="m525.8 422.4h-3.5v-3.4h3.5z"/>
						<path id="&lt;Path&gt;" class="s1" d="m525.8 428.3h-3.5v-3.5h3.5z"/>
						<path id="&lt;Path&gt;" class="s1" d="m525.8 434.1h-3.5v-3.5h3.5z"/>
						<path id="&lt;Path&gt;" class="s1" d="m525.8 451.6h-3.5v-3.5h3.5z"/>
						<path id="&lt;Path&gt;" class="s1" d="m525.8 457.4h-3.5v-3.4h3.5z"/>
						<path id="&lt;Path&gt;" class="s1" d="m525.8 463.3h-3.5v-3.5h3.5z"/>
						<path id="&lt;Path&gt;" class="s1" d="m520.3 399.1h-3.5v-3.5h3.5z"/>
						<path id="&lt;Path&gt;" class="s1" d="m520.3 405h-3.5v-3.5h3.5z"/>
						<path id="&lt;Path&gt;" class="s1" d="m520.3 410.8h-3.5v-3.5h3.5z"/>
						<path id="&lt;Path&gt;" class="s1" d="m520.3 416.6h-3.5v-3.5h3.5z"/>
						<path id="&lt;Path&gt;" class="s1" d="m520.3 422.4h-3.5v-3.4h3.5z"/>
						<path id="&lt;Path&gt;" class="s1" d="m520.3 428.3h-3.5v-3.5h3.5z"/>
						<path id="&lt;Path&gt;" class="s1" d="m520.3 434.1h-3.5v-3.5h3.5z"/>
						<path id="&lt;Path&gt;" class="s1" d="m514.7 399.1h-5v-3.5h5z"/>
						<path id="&lt;Path&gt;" class="s1" d="m514.7 405h-5v-3.5h5z"/>
						<path id="&lt;Path&gt;" class="s1" d="m514.7 410.8h-5v-3.5h5z"/>
						<path id="&lt;Path&gt;" class="s1" d="m514.7 416.6h-5v-3.5h5z"/>
						<path id="&lt;Path&gt;" class="s1" d="m514.7 422.4h-5v-3.4h5z"/>
						<path id="&lt;Path&gt;" class="s1" d="m514.7 428.3h-5v-3.5h5z"/>
						<path id="&lt;Path&gt;" class="s1" d="m514.7 434.1h-5v-3.5h5z"/>
						<path id="&lt;Path&gt;" class="s1" d="m818.6 406.7h-3.5v-3.5h3.5z"/>
						<path id="&lt;Path&gt;" class="s1" d="m818.6 412.5h-3.5v-3.5h3.5z"/>
						<path id="&lt;Path&gt;" class="s1" d="m818.6 418.4h-3.5v-3.5h3.5z"/>
						<path id="&lt;Path&gt;" class="s1" d="m818.6 424.2h-3.5v-3.5h3.5z"/>
						<path id="&lt;Path&gt;" class="s1" d="m818.6 430h-3.5v-3.5h3.5z"/>
						<path id="&lt;Path&gt;" class="s1" d="m818.6 435.9h-3.5v-3.5h3.5z"/>
						<path id="&lt;Path&gt;" class="s1" d="m818.6 441.7h-3.5v-3.5h3.5z"/>
						<path id="&lt;Path&gt;" class="s1" d="m818.6 447.5h-3.5v-3.5h3.5z"/>
						<path id="&lt;Path&gt;" class="s1" d="m818.6 453.3h-3.5v-3.4h3.5z"/>
						<path id="&lt;Path&gt;" class="s1" d="m818.6 459.2h-3.5v-3.5h3.5z"/>
						<path id="&lt;Path&gt;" class="s1" d="m818.6 465h-3.5v-3.5h3.5z"/>
						<path id="&lt;Path&gt;" class="s1" d="m818.6 470.8h-3.5v-3.4h3.5z"/>
						<path id="&lt;Path&gt;" class="s1" d="m818.6 476.7h-3.5v-3.5h3.5z"/>
						<path id="&lt;Path&gt;" class="s1" d="m818.6 482.5h-3.5v-3.5h3.5z"/>
						<path id="&lt;Path&gt;" class="s1" d="m818.6 488.3h-3.5v-3.4h3.5z"/>
						<path id="&lt;Path&gt;" class="s1" d="m818.6 494.2h-3.5v-3.5h3.5z"/>
						<path id="&lt;Path&gt;" class="s1" d="m818.6 500h-3.5v-3.5h3.5z"/>
						<path id="&lt;Path&gt;" class="s1" d="m818.6 505.8h-3.5v-3.4h3.5z"/>
						<path id="&lt;Path&gt;" class="s1" d="m818.6 511.7h-3.5v-3.5h3.5z"/>
						<path id="&lt;Path&gt;" class="s1" d="m818.6 517.5h-3.5v-3.5h3.5z"/>
						<path id="&lt;Path&gt;" class="s1" d="m813.1 406.7h-3.5v-3.5h3.5z"/>
						<path id="&lt;Path&gt;" class="s1" d="m813.1 412.5h-3.5v-3.5h3.5z"/>
						<path id="&lt;Path&gt;" class="s1" d="m813.1 418.4h-3.5v-3.5h3.5z"/>
						<path id="&lt;Path&gt;" class="s1" d="m813.1 424.2h-3.5v-3.5h3.5z"/>
						<path id="&lt;Path&gt;" class="s1" d="m813.1 430h-3.5v-3.5h3.5z"/>
						<path id="&lt;Path&gt;" class="s1" d="m813.1 435.9h-3.5v-3.5h3.5z"/>
						<path id="&lt;Path&gt;" class="s1" d="m813.1 441.7h-3.5v-3.5h3.5z"/>
						<path id="&lt;Path&gt;" class="s1" d="m813.1 447.5h-3.5v-3.5h3.5z"/>
						<path id="&lt;Path&gt;" class="s1" d="m813.1 453.3h-3.5v-3.4h3.5z"/>
						<path id="&lt;Path&gt;" class="s1" d="m813.1 459.2h-3.5v-3.5h3.5z"/>
						<path id="&lt;Path&gt;" class="s1" d="m813.1 465h-3.5v-3.5h3.5z"/>
						<path id="&lt;Path&gt;" class="s1" d="m813.1 470.8h-3.5v-3.4h3.5z"/>
						<path id="&lt;Path&gt;" class="s1" d="m813.1 476.7h-3.5v-3.5h3.5z"/>
						<path id="&lt;Path&gt;" class="s1" d="m813.1 482.5h-3.5v-3.5h3.5z"/>
						<path id="&lt;Path&gt;" class="s1" d="m813.1 488.3h-3.5v-3.4h3.5z"/>
						<path id="&lt;Path&gt;" class="s1" d="m813.1 494.2h-3.5v-3.5h3.5z"/>
						<path id="&lt;Path&gt;" class="s1" d="m813.1 500h-3.5v-3.5h3.5z"/>
						<path id="&lt;Path&gt;" class="s1" d="m813.1 505.8h-3.5v-3.4h3.5z"/>
						<path id="&lt;Path&gt;" class="s1" d="m807.6 406.7h-3.5v-3.5h3.5z"/>
						<path id="&lt;Path&gt;" class="s1" d="m807.6 412.5h-3.5v-3.5h3.5z"/>
						<path id="&lt;Path&gt;" class="s1" d="m807.6 418.4h-3.5v-3.5h3.5z"/>
						<path id="&lt;Path&gt;" class="s1" d="m807.6 424.2h-3.5v-3.5h3.5z"/>
						<path id="&lt;Path&gt;" class="s1" d="m807.6 430h-3.5v-3.5h3.5z"/>
						<path id="&lt;Path&gt;" class="s1" d="m807.6 435.9h-3.5v-3.5h3.5z"/>
						<path id="&lt;Path&gt;" class="s1" d="m807.6 441.7h-3.5v-3.5h3.5z"/>
						<path id="&lt;Path&gt;" class="s1" d="m807.6 447.5h-3.5v-3.5h3.5z"/>
						<path id="&lt;Path&gt;" class="s1" d="m807.6 453.3h-3.5v-3.4h3.5z"/>
						<path id="&lt;Path&gt;" class="s1" d="m807.6 459.2h-3.5v-3.5h3.5z"/>
						<path id="&lt;Path&gt;" class="s1" d="m807.6 465h-3.5v-3.5h3.5z"/>
						<path id="&lt;Path&gt;" class="s1" d="m807.6 470.8h-3.5v-3.4h3.5z"/>
						<path id="&lt;Path&gt;" class="s1" d="m807.6 476.7h-3.5v-3.5h3.5z"/>
						<path id="&lt;Path&gt;" class="s1" d="m807.6 482.5h-3.5v-3.5h3.5z"/>
						<path id="&lt;Path&gt;" class="s1" d="m807.6 488.3h-3.5v-3.4h3.5z"/>
						<path id="&lt;Path&gt;" class="s1" d="m807.6 494.2h-3.5v-3.5h3.5z"/>
						<path id="&lt;Path&gt;" class="s1" d="m807.6 500h-3.5v-3.5h3.5z"/>
						<path id="&lt;Path&gt;" class="s1" d="m807.6 505.8h-3.5v-3.4h3.5z"/>
						<path id="&lt;Path&gt;" class="s1" d="m839.3 449.3h-3.5v-3.5h3.5z"/>
						<path id="&lt;Path&gt;" class="s1" d="m839.3 455.1h-3.5v-3.5h3.5z"/>
						<path id="&lt;Path&gt;" class="s1" d="m839.3 460.9h-3.5v-3.5h3.5z"/>
						<path id="&lt;Path&gt;" class="s1" d="m839.3 466.8h-3.5v-3.5h3.5z"/>
						<path id="&lt;Path&gt;" class="s1" d="m839.3 472.6h-3.5v-3.5h3.5z"/>
						<path id="&lt;Path&gt;" class="s1" d="m839.3 478.4h-3.5v-3.5h3.5z"/>
						<path id="&lt;Path&gt;" class="s1" d="m839.3 484.2h-3.5v-3.4h3.5z"/>
						<path id="&lt;Path&gt;" class="s1" d="m839.3 490.1h-3.5v-3.5h3.5z"/>
						<path id="&lt;Path&gt;" class="s1" d="m839.3 495.9h-3.5v-3.5h3.5z"/>
						<path id="&lt;Path&gt;" class="s1" d="m839.3 501.7h-3.5v-3.4h3.5z"/>
						<path id="&lt;Path&gt;" class="s1" d="m839.3 507.6h-3.5v-3.5h3.5z"/>
						<path id="&lt;Path&gt;" class="s1" d="m839.3 513.4h-3.5v-3.5h3.5z"/>
						<path id="&lt;Path&gt;" class="s1" d="m839.3 519.2h-3.5v-3.4h3.5z"/>
						<path id="&lt;Path&gt;" class="s1" d="m833.8 449.3h-3.5v-3.5h3.5z"/>
						<path id="&lt;Path&gt;" class="s1" d="m833.8 455.1h-3.5v-3.5h3.5z"/>
						<path id="&lt;Path&gt;" class="s1" d="m833.8 460.9h-3.5v-3.5h3.5z"/>
						<path id="&lt;Path&gt;" class="s1" d="m833.8 466.8h-3.5v-3.5h3.5z"/>
						<path id="&lt;Path&gt;" class="s1" d="m833.8 472.6h-3.5v-3.5h3.5z"/>
						<path id="&lt;Path&gt;" class="s1" d="m833.8 478.4h-3.5v-3.5h3.5z"/>
						<path id="&lt;Path&gt;" class="s1" d="m833.8 484.2h-3.5v-3.4h3.5z"/>
						<path id="&lt;Path&gt;" class="s1" d="m833.8 490.1h-3.5v-3.5h3.5z"/>
						<path id="&lt;Path&gt;" class="s1" d="m833.8 495.9h-3.5v-3.5h3.5z"/>
						<path id="&lt;Path&gt;" class="s1" d="m833.8 501.7h-3.5v-3.4h3.5z"/>
						<path id="&lt;Path&gt;" class="s1" d="m833.8 507.6h-3.5v-3.5h3.5z"/>
						<path id="&lt;Path&gt;" class="s1" d="m833.8 513.4h-3.5v-3.5h3.5z"/>
						<path id="&lt;Path&gt;" class="s1" d="m833.8 519.2h-3.5v-3.4h3.5z"/>
						<path id="&lt;Path&gt;" class="s1" d="m828.2 449.3h-3.4v-3.5h3.4z"/>
						<path id="&lt;Path&gt;" class="s1" d="m828.2 455.1h-3.4v-3.5h3.4z"/>
						<path id="&lt;Path&gt;" class="s1" d="m828.2 460.9h-3.4v-3.5h3.4z"/>
						<path id="&lt;Path&gt;" class="s1" d="m828.2 466.8h-3.4v-3.5h3.4z"/>
						<path id="&lt;Path&gt;" class="s1" d="m828.2 472.6h-3.4v-3.5h3.4z"/>
						<path id="&lt;Path&gt;" class="s1" d="m828.2 478.4h-3.4v-3.5h3.4z"/>
						<path id="&lt;Path&gt;" class="s1" d="m828.2 484.2h-3.4v-3.4h3.4z"/>
						<path id="&lt;Path&gt;" class="s1" d="m828.2 490.1h-3.4v-3.5h3.4z"/>
						<path id="&lt;Path&gt;" class="s1" d="m828.2 495.9h-3.4v-3.5h3.4z"/>
						<path id="&lt;Path&gt;" class="s1" d="m828.2 501.7h-3.4v-3.4h3.4z"/>
						<path id="&lt;Path&gt;" class="s1" d="m828.2 507.6h-3.4v-3.5h3.4z"/>
						<path id="&lt;Path&gt;" class="s1" d="m828.2 513.4h-3.4v-3.5h3.4z"/>
						<path id="&lt;Path&gt;" class="s1" d="m828.2 519.2h-3.4v-3.4h3.4z"/>
						<path id="&lt;Path&gt;" class="s1" d="m828.2 525.1h-3.4v-3.5h3.4z"/>
						<path id="&lt;Path&gt;" class="s1" d="m797.5 451h-3.4v-3.5h3.4z"/>
						<path id="&lt;Path&gt;" class="s1" d="m797.5 456.8h-3.4v-3.5h3.4z"/>
						<path id="&lt;Path&gt;" class="s1" d="m797.5 462.7h-3.4v-3.5h3.4z"/>
						<path id="&lt;Path&gt;" class="s1" d="m797.5 468.5h-3.4v-3.5h3.4z"/>
						<path id="&lt;Path&gt;" class="s1" d="m797.5 474.3h-3.4v-3.5h3.4z"/>
						<path id="&lt;Path&gt;" class="s1" d="m797.5 480.2h-3.4v-3.5h3.4z"/>
						<path id="&lt;Path&gt;" class="s1" d="m797.5 486h-3.4v-3.5h3.4z"/>
						<path id="&lt;Path&gt;" class="s1" d="m797.5 491.8h-3.4v-3.5h3.4z"/>
						<path id="&lt;Path&gt;" class="s1" d="m797.5 497.7h-3.4v-3.5h3.4z"/>
						<path id="&lt;Path&gt;" class="s1" d="m797.5 503.5h-3.4v-3.5h3.4z"/>
						<path id="&lt;Path&gt;" class="s1" d="m797.5 521h-3.4v-3.5h3.4z"/>
						<path id="&lt;Path&gt;" class="s1" d="m792 451h-3.5v-3.5h3.5z"/>
						<path id="&lt;Path&gt;" class="s1" d="m792 456.8h-3.5v-3.5h3.5z"/>
						<path id="&lt;Path&gt;" class="s1" d="m792 462.7h-3.5v-3.5h3.5z"/>
						<path id="&lt;Path&gt;" class="s1" d="m792 468.5h-3.5v-3.5h3.5z"/>
						<path id="&lt;Path&gt;" class="s1" d="m792 474.3h-3.5v-3.5h3.5z"/>
						<path id="&lt;Path&gt;" class="s1" d="m792 480.2h-3.5v-3.5h3.5z"/>
						<path id="&lt;Path&gt;" class="s1" d="m792 486h-3.5v-3.5h3.5z"/>
						<path id="&lt;Path&gt;" class="s1" d="m792 491.8h-3.5v-3.5h3.5z"/>
						<path id="&lt;Path&gt;" class="s1" d="m792 497.7h-3.5v-3.5h3.5z"/>
						<path id="&lt;Path&gt;" class="s1" d="m792 515.1h-3.5v-3.4h3.5z"/>
						<path id="&lt;Path&gt;" class="s1" d="m792 521h-3.5v-3.5h3.5z"/>
						<path id="&lt;Path&gt;" class="s1" d="m786.5 451h-3.5v-3.5h3.5z"/>
						<path id="&lt;Path&gt;" class="s1" d="m786.5 456.8h-3.5v-3.5h3.5z"/>
						<path id="&lt;Path&gt;" class="s1" d="m786.5 462.7h-3.5v-3.5h3.5z"/>
						<path id="&lt;Path&gt;" class="s1" d="m786.5 468.5h-3.5v-3.5h3.5z"/>
						<path id="&lt;Path&gt;" class="s1" d="m786.5 474.3h-3.5v-3.5h3.5z"/>
						<path id="&lt;Path&gt;" class="s1" d="m786.5 480.2h-3.5v-3.5h3.5z"/>
						<path id="&lt;Path&gt;" class="s1" d="m786.5 486h-3.5v-3.5h3.5z"/>
						<path id="&lt;Path&gt;" class="s1" d="m786.5 491.8h-3.5v-3.5h3.5z"/>
						<path id="&lt;Path&gt;" class="s1" d="m786.5 509.3h-3.5v-3.5h3.5z"/>
						<path id="&lt;Path&gt;" class="s1" d="m786.5 515.1h-3.5v-3.4h3.5z"/>
						<path id="&lt;Path&gt;" class="s1" d="m786.5 521h-3.5v-3.5h3.5z"/>
						<path id="&lt;Path&gt;" class="s1" d="m735.1 362.4h-3.5v-3.5h3.5z"/>
						<path id="&lt;Path&gt;" class="s1" d="m735.1 368.2h-3.5v-3.5h3.5z"/>
						<path id="&lt;Path&gt;" class="s1" d="m735.1 374.1h-3.5v-3.5h3.5z"/>
						<path id="&lt;Path&gt;" class="s1" d="m735.1 379.9h-3.5v-3.5h3.5z"/>
						<path id="&lt;Path&gt;" class="s1" d="m735.1 385.7h-3.5v-3.5h3.5z"/>
						<path id="&lt;Path&gt;" class="s1" d="m735.1 391.5h-3.5v-3.4h3.5z"/>
						<path id="&lt;Path&gt;" class="s1" d="m735.1 397.4h-3.5v-3.5h3.5z"/>
						<path id="&lt;Path&gt;" class="s1" d="m735.1 403.2h-3.5v-3.5h3.5z"/>
						<path id="&lt;Path&gt;" class="s1" d="m735.1 409h-3.5v-3.4h3.5z"/>
						<path id="&lt;Path&gt;" class="s1" d="m735.1 414.9h-3.5v-3.5h3.5z"/>
						<path id="&lt;Path&gt;" class="s1" d="m735.1 420.7h-3.5v-3.5h3.5z"/>
						<path id="&lt;Path&gt;" class="s1" d="m735.1 426.5h-3.5v-3.4h3.5z"/>
						<path id="&lt;Path&gt;" class="s1" d="m735.1 432.4h-3.5v-3.5h3.5z"/>
						<path id="&lt;Path&gt;" class="s1" d="m735.1 438.2h-3.5v-3.5h3.5z"/>
						<path id="&lt;Path&gt;" class="s1" d="m735.1 444h-3.5v-3.4h3.5z"/>
						<path id="&lt;Path&gt;" class="s1" d="m735.1 449.9h-3.5v-3.5h3.5z"/>
						<path id="&lt;Path&gt;" class="s1" d="m735.1 455.7h-3.5v-3.5h3.5z"/>
						<path id="&lt;Path&gt;" class="s1" d="m735.1 467.4h-3.5v-3.5h3.5z"/>
						<path id="&lt;Path&gt;" class="s1" d="m735.1 473.2h-3.5v-3.5h3.5z"/>
						<path id="&lt;Path&gt;" class="s1" d="m735.1 479h-3.5v-3.5h3.5z"/>
						<path id="&lt;Path&gt;" class="s1" d="m735.1 484.9h-3.5v-3.5h3.5z"/>
						<path id="&lt;Path&gt;" class="s1" d="m735.1 490.7h-3.5v-3.5h3.5z"/>
						<path id="&lt;Path&gt;" class="s1" d="m729.6 362.4h-3.5v-3.5h3.5z"/>
						<path id="&lt;Path&gt;" class="s1" d="m729.6 368.2h-3.5v-3.5h3.5z"/>
						<path id="&lt;Path&gt;" class="s1" d="m729.6 374.1h-3.5v-3.5h3.5z"/>
						<path id="&lt;Path&gt;" class="s1" d="m729.6 379.9h-3.5v-3.5h3.5z"/>
						<path id="&lt;Path&gt;" class="s1" d="m729.6 385.7h-3.5v-3.5h3.5z"/>
						<path id="&lt;Path&gt;" class="s1" d="m729.6 391.5h-3.5v-3.4h3.5z"/>
						<path id="&lt;Path&gt;" class="s1" d="m729.6 397.4h-3.5v-3.5h3.5z"/>
						<path id="&lt;Path&gt;" class="s1" d="m729.6 403.2h-3.5v-3.5h3.5z"/>
						<path id="&lt;Path&gt;" class="s1" d="m729.6 409h-3.5v-3.4h3.5z"/>
						<path id="&lt;Path&gt;" class="s1" d="m729.6 414.9h-3.5v-3.5h3.5z"/>
						<path id="&lt;Path&gt;" class="s1" d="m729.6 420.7h-3.5v-3.5h3.5z"/>
						<path id="&lt;Path&gt;" class="s1" d="m729.6 426.5h-3.5v-3.4h3.5z"/>
						<path id="&lt;Path&gt;" class="s1" d="m729.6 432.4h-3.5v-3.5h3.5z"/>
						<path id="&lt;Path&gt;" class="s1" d="m729.6 438.2h-3.5v-3.5h3.5z"/>
						<path id="&lt;Path&gt;" class="s1" d="m729.6 444h-3.5v-3.4h3.5z"/>
						<path id="&lt;Path&gt;" class="s1" d="m729.6 449.9h-3.5v-3.5h3.5z"/>
						<path id="&lt;Path&gt;" class="s1" d="m729.6 484.9h-3.5v-3.5h3.5z"/>
						<path id="&lt;Path&gt;" class="s1" d="m729.6 490.7h-3.5v-3.5h3.5z"/>
						<path id="&lt;Path&gt;" class="s1" d="m724.1 362.4h-3.5v-3.5h3.5z"/>
						<path id="&lt;Path&gt;" class="s1" d="m724.1 368.2h-3.5v-3.5h3.5z"/>
						<path id="&lt;Path&gt;" class="s1" d="m724.1 374.1h-3.5v-3.5h3.5z"/>
						<path id="&lt;Path&gt;" class="s1" d="m724.1 379.9h-3.5v-3.5h3.5z"/>
						<path id="&lt;Path&gt;" class="s1" d="m724.1 385.7h-3.5v-3.5h3.5z"/>
						<path id="&lt;Path&gt;" class="s1" d="m724.1 391.5h-3.5v-3.4h3.5z"/>
						<path id="&lt;Path&gt;" class="s1" d="m724.1 397.4h-3.5v-3.5h3.5z"/>
						<path id="&lt;Path&gt;" class="s1" d="m724.1 403.2h-3.5v-3.5h3.5z"/>
						<path id="&lt;Path&gt;" class="s1" d="m724.1 409h-3.5v-3.4h3.5z"/>
						<path id="&lt;Path&gt;" class="s1" d="m724.1 414.9h-3.5v-3.5h3.5z"/>
						<path id="&lt;Path&gt;" class="s1" d="m724.1 420.7h-3.5v-3.5h3.5z"/>
						<path id="&lt;Path&gt;" class="s1" d="m724.1 426.5h-3.5v-3.4h3.5z"/>
						<path id="&lt;Path&gt;" class="s1" d="m724.1 432.4h-3.5v-3.5h3.5z"/>
						<path id="&lt;Path&gt;" class="s1" d="m724.1 438.2h-3.5v-3.5h3.5z"/>
						<path id="&lt;Path&gt;" class="s1" d="m724.1 444h-3.5v-3.4h3.5z"/>
						<path id="&lt;Path&gt;" class="s1" d="m724.1 449.9h-3.5v-3.5h3.5z"/>
						<path id="&lt;Path&gt;" class="s1" d="m724.1 461.5h-3.5v-3.4h3.5z"/>
						<path id="&lt;Path&gt;" class="s1" d="m724.1 467.4h-3.5v-3.5h3.5z"/>
						<path id="&lt;Path&gt;" class="s1" d="m724.1 473.2h-3.5v-3.5h3.5z"/>
						<path id="&lt;Path&gt;" class="s1" d="m724.1 479h-3.5v-3.5h3.5z"/>
						<path id="&lt;Path&gt;" class="s1" d="m724.1 490.7h-3.5v-3.5h3.5z"/>
						<path id="&lt;Path&gt;" class="s1" d="m755.2 435.9h-3.5v-3.5h3.5z"/>
						<path id="&lt;Path&gt;" class="s1" d="m755.2 441.7h-3.5v-3.5h3.5z"/>
						<path id="&lt;Path&gt;" class="s1" d="m755.2 447.5h-3.5v-3.5h3.5z"/>
						<path id="&lt;Path&gt;" class="s1" d="m755.2 453.3h-3.5v-3.4h3.5z"/>
						<path id="&lt;Path&gt;" class="s1" d="m755.2 459.2h-3.5v-3.5h3.5z"/>
						<path id="&lt;Path&gt;" class="s1" d="m755.2 465h-3.5v-3.5h3.5z"/>
						<path id="&lt;Path&gt;" class="s1" d="m755.2 470.8h-3.5v-3.4h3.5z"/>
						<path id="&lt;Path&gt;" class="s1" d="m755.2 482.5h-3.5v-3.5h3.5z"/>
						<path id="&lt;Path&gt;" class="s1" d="m755.2 488.3h-3.5v-3.4h3.5z"/>
						<path id="&lt;Path&gt;" class="s1" d="m755.2 494.2h-3.5v-3.5h3.5z"/>
						<path id="&lt;Path&gt;" class="s1" d="m755.2 500h-3.5v-3.5h3.5z"/>
						<path id="&lt;Path&gt;" class="s1" d="m755.2 505.8h-3.5v-3.4h3.5z"/>
						<path id="&lt;Path&gt;" class="s1" d="m755.2 511.7h-3.5v-3.5h3.5z"/>
						<path id="&lt;Path&gt;" class="s1" d="m755.2 517.5h-3.5v-3.5h3.5z"/>
						<path id="&lt;Path&gt;" class="s1" d="m755.2 523.3h-3.5v-3.4h3.5z"/>
						<path id="&lt;Path&gt;" class="s1" d="m749.7 435.9h-3.5v-3.5h3.5z"/>
						<path id="&lt;Path&gt;" class="s1" d="m749.7 441.7h-3.5v-3.5h3.5z"/>
						<path id="&lt;Path&gt;" class="s1" d="m749.7 447.5h-3.5v-3.5h3.5z"/>
						<path id="&lt;Path&gt;" class="s1" d="m749.7 453.3h-3.5v-3.4h3.5z"/>
						<path id="&lt;Path&gt;" class="s1" d="m749.7 459.2h-3.5v-3.5h3.5z"/>
						<path id="&lt;Path&gt;" class="s1" d="m749.7 465h-3.5v-3.5h3.5z"/>
						<path id="&lt;Path&gt;" class="s1" d="m749.7 482.5h-3.5v-3.5h3.5z"/>
						<path id="&lt;Path&gt;" class="s1" d="m749.7 488.3h-3.5v-3.4h3.5z"/>
						<path id="&lt;Path&gt;" class="s1" d="m749.7 494.2h-3.5v-3.5h3.5z"/>
						<path id="&lt;Path&gt;" class="s1" d="m749.7 500h-3.5v-3.5h3.5z"/>
						<path id="&lt;Path&gt;" class="s1" d="m749.7 505.8h-3.5v-3.4h3.5z"/>
						<path id="&lt;Path&gt;" class="s1" d="m749.7 511.7h-3.5v-3.5h3.5z"/>
						<path id="&lt;Path&gt;" class="s1" d="m749.7 517.5h-3.5v-3.5h3.5z"/>
						<path id="&lt;Path&gt;" class="s1" d="m749.7 523.3h-3.5v-3.4h3.5z"/>
						<path id="&lt;Path&gt;" class="s1" d="m744.1 435.9h-3.4v-3.5h3.4z"/>
						<path id="&lt;Path&gt;" class="s1" d="m744.1 441.7h-3.4v-3.5h3.4z"/>
						<path id="&lt;Path&gt;" class="s1" d="m744.1 447.5h-3.4v-3.5h3.4z"/>
						<path id="&lt;Path&gt;" class="s1" d="m744.1 453.3h-3.4v-3.4h3.4z"/>
						<path id="&lt;Path&gt;" class="s1" d="m744.1 459.2h-3.4v-3.5h3.4z"/>
						<path id="&lt;Path&gt;" class="s1" d="m744.1 465h-3.4v-3.5h3.4z"/>
						<path id="&lt;Path&gt;" class="s1" d="m744.1 476.7h-3.4v-3.5h3.4z"/>
						<path id="&lt;Path&gt;" class="s1" d="m744.1 482.5h-3.4v-3.5h3.4z"/>
						<path id="&lt;Path&gt;" class="s1" d="m744.1 488.3h-3.4v-3.4h3.4z"/>
						<path id="&lt;Path&gt;" class="s1" d="m744.1 494.2h-3.4v-3.5h3.4z"/>
						<path id="&lt;Path&gt;" class="s1" d="m744.1 500h-3.4v-3.5h3.4z"/>
						<path id="&lt;Path&gt;" class="s1" d="m744.1 505.8h-3.4v-3.4h3.4z"/>
						<path id="&lt;Path&gt;" class="s1" d="m744.1 511.7h-3.4v-3.5h3.4z"/>
						<path id="&lt;Path&gt;" class="s1" d="m744.1 517.5h-3.4v-3.5h3.4z"/>
						<path id="&lt;Path&gt;" class="s1" d="m744.1 523.3h-3.4v-3.4h3.4z"/>
						<path id="&lt;Path&gt;" class="s1" d="m627.7 403.2h-3.5v-3.5h3.5z"/>
						<path id="&lt;Path&gt;" class="s1" d="m627.7 409h-3.5v-3.4h3.5z"/>
						<path id="&lt;Path&gt;" class="s1" d="m627.7 414.9h-3.5v-3.5h3.5z"/>
						<path id="&lt;Path&gt;" class="s1" d="m627.7 420.7h-3.5v-3.5h3.5z"/>
						<path id="&lt;Path&gt;" class="s1" d="m627.7 426.5h-3.5v-3.4h3.5z"/>
						<path id="&lt;Path&gt;" class="s1" d="m627.7 432.4h-3.5v-3.5h3.5z"/>
						<path id="&lt;Path&gt;" class="s1" d="m627.7 438.2h-3.5v-3.5h3.5z"/>
						<path id="&lt;Path&gt;" class="s1" d="m627.7 444h-3.5v-3.4h3.5z"/>
						<path id="&lt;Path&gt;" class="s1" d="m627.7 449.9h-3.5v-3.5h3.5z"/>
						<path id="&lt;Path&gt;" class="s1" d="m627.7 455.7h-3.5v-3.5h3.5z"/>
						<path id="&lt;Path&gt;" class="s1" d="m627.7 461.5h-3.5v-3.4h3.5z"/>
						<path id="&lt;Path&gt;" class="s1" d="m627.7 467.4h-3.5v-3.5h3.5z"/>
						<path id="&lt;Path&gt;" class="s1" d="m627.7 473.2h-3.5v-3.5h3.5z"/>
						<path id="&lt;Path&gt;" class="s1" d="m627.7 484.9h-3.5v-3.5h3.5z"/>
						<path id="&lt;Path&gt;" class="s1" d="m627.7 490.7h-3.5v-3.5h3.5z"/>
						<path id="&lt;Path&gt;" class="s1" d="m627.7 496.5h-3.5v-3.5h3.5z"/>
						<path id="&lt;Path&gt;" class="s1" d="m627.7 502.4h-3.5v-3.5h3.5z"/>
						<path id="&lt;Path&gt;" class="s1" d="m627.7 514h-3.5v-3.5h3.5z"/>
						<path id="&lt;Path&gt;" class="s1" d="m627.7 519.9h-3.5v-3.5h3.5z"/>
						<path id="&lt;Path&gt;" class="s1" d="m627.7 525.7h-3.5v-3.5h3.5z"/>
						<path id="&lt;Path&gt;" class="s1" d="m622.2 403.2h-3.5v-3.5h3.5z"/>
						<path id="&lt;Path&gt;" class="s1" d="m622.2 409h-3.5v-3.4h3.5z"/>
						<path id="&lt;Path&gt;" class="s1" d="m622.2 414.9h-3.5v-3.5h3.5z"/>
						<path id="&lt;Path&gt;" class="s1" d="m622.2 420.7h-3.5v-3.5h3.5z"/>
						<path id="&lt;Path&gt;" class="s1" d="m622.2 426.5h-3.5v-3.4h3.5z"/>
						<path id="&lt;Path&gt;" class="s1" d="m622.2 432.4h-3.5v-3.5h3.5z"/>
						<path id="&lt;Path&gt;" class="s1" d="m622.2 438.2h-3.5v-3.5h3.5z"/>
						<path id="&lt;Path&gt;" class="s1" d="m622.2 444h-3.5v-3.4h3.5z"/>
						<path id="&lt;Path&gt;" class="s1" d="m622.2 449.9h-3.5v-3.5h3.5z"/>
						<path id="&lt;Path&gt;" class="s1" d="m622.2 455.7h-3.5v-3.5h3.5z"/>
						<path id="&lt;Path&gt;" class="s1" d="m622.2 461.5h-3.5v-3.4h3.5z"/>
						<path id="&lt;Path&gt;" class="s1" d="m622.2 467.4h-3.5v-3.5h3.5z"/>
						<path id="&lt;Path&gt;" class="s1" d="m622.2 473.2h-3.5v-3.5h3.5z"/>
						<path id="&lt;Path&gt;" class="s1" d="m622.2 490.7h-3.5v-3.5h3.5z"/>
						<path id="&lt;Path&gt;" class="s1" d="m622.2 496.5h-3.5v-3.5h3.5z"/>
						<path id="&lt;Path&gt;" class="s1" d="m622.2 508.2h-3.5v-3.5h3.5z"/>
						<path id="&lt;Path&gt;" class="s1" d="m622.2 514h-3.5v-3.5h3.5z"/>
						<path id="&lt;Path&gt;" class="s1" d="m622.2 519.9h-3.5v-3.5h3.5z"/>
						<path id="&lt;Path&gt;" class="s1" d="m622.2 525.7h-3.5v-3.5h3.5z"/>
						<path id="&lt;Path&gt;" class="s1" d="m616.6 403.2h-3.4v-3.5h3.4z"/>
						<path id="&lt;Path&gt;" class="s1" d="m616.6 409h-3.4v-3.4h3.4z"/>
						<path id="&lt;Path&gt;" class="s1" d="m616.6 414.9h-3.4v-3.5h3.4z"/>
						<path id="&lt;Path&gt;" class="s1" d="m616.6 420.7h-3.4v-3.5h3.4z"/>
						<path id="&lt;Path&gt;" class="s1" d="m616.6 426.5h-3.4v-3.4h3.4z"/>
						<path id="&lt;Path&gt;" class="s1" d="m616.6 432.4h-3.4v-3.5h3.4z"/>
						<path id="&lt;Path&gt;" class="s1" d="m616.6 438.2h-3.4v-3.5h3.4z"/>
						<path id="&lt;Path&gt;" class="s1" d="m616.6 444h-3.4v-3.4h3.4z"/>
						<path id="&lt;Path&gt;" class="s1" d="m616.6 449.9h-3.4v-3.5h3.4z"/>
						<path id="&lt;Path&gt;" class="s1" d="m616.6 455.7h-3.4v-3.5h3.4z"/>
						<path id="&lt;Path&gt;" class="s1" d="m616.6 461.5h-3.4v-3.4h3.4z"/>
						<path id="&lt;Path&gt;" class="s1" d="m616.6 467.4h-3.4v-3.5h3.4z"/>
						<path id="&lt;Path&gt;" class="s1" d="m616.6 473.2h-3.4v-3.5h3.4z"/>
						<path id="&lt;Path&gt;" class="s1" d="m616.6 479h-3.4v-3.5h3.4z"/>
						<path id="&lt;Path&gt;" class="s1" d="m616.6 490.7h-3.4v-3.5h3.4z"/>
						<path id="&lt;Path&gt;" class="s1" d="m616.6 502.4h-3.4v-3.5h3.4z"/>
						<path id="&lt;Path&gt;" class="s1" d="m616.6 508.2h-3.4v-3.5h3.4z"/>
						<path id="&lt;Path&gt;" class="s1" d="m616.6 514h-3.4v-3.5h3.4z"/>
						<path id="&lt;Path&gt;" class="s1" d="m616.6 519.9h-3.4v-3.5h3.4z"/>
						<path id="&lt;Path&gt;" class="s1" d="m616.6 525.7h-3.4v-3.5h3.4z"/>
						<path id="&lt;Path&gt;" class="s1" d="m650.2 436.5h-3.5v-3.5h3.5z"/>
						<path id="&lt;Path&gt;" class="s1" d="m650.2 442.3h-3.5v-3.5h3.5z"/>
						<path id="&lt;Path&gt;" class="s1" d="m650.2 448.1h-3.5v-3.5h3.5z"/>
						<path id="&lt;Path&gt;" class="s1" d="m650.2 454h-3.5v-3.5h3.5z"/>
						<path id="&lt;Path&gt;" class="s1" d="m650.2 459.8h-3.5v-3.5h3.5z"/>
						<path id="&lt;Path&gt;" class="s1" d="m650.2 465.6h-3.5v-3.5h3.5z"/>
						<path id="&lt;Path&gt;" class="s1" d="m650.2 483.1h-3.5v-3.5h3.5z"/>
						<path id="&lt;Path&gt;" class="s1" d="m650.2 489h-3.5v-3.5h3.5z"/>
						<path id="&lt;Path&gt;" class="s1" d="m650.2 494.8h-3.5v-3.5h3.5z"/>
						<path id="&lt;Path&gt;" class="s1" d="m650.2 500.6h-3.5v-3.5h3.5z"/>
						<path id="&lt;Path&gt;" class="s1" d="m650.2 506.4h-3.5v-3.4h3.5z"/>
						<path id="&lt;Path&gt;" class="s1" d="m650.2 512.3h-3.5v-3.5h3.5z"/>
						<path id="&lt;Path&gt;" class="s1" d="m650.2 518.1h-3.5v-3.5h3.5z"/>
						<path id="&lt;Path&gt;" class="s1" d="m644.7 436.5h-3.5v-3.5h3.5z"/>
						<path id="&lt;Path&gt;" class="s1" d="m644.7 442.3h-3.5v-3.5h3.5z"/>
						<path id="&lt;Path&gt;" class="s1" d="m644.7 448.1h-3.5v-3.5h3.5z"/>
						<path id="&lt;Path&gt;" class="s1" d="m644.7 454h-3.5v-3.5h3.5z"/>
						<path id="&lt;Path&gt;" class="s1" d="m644.7 459.8h-3.5v-3.5h3.5z"/>
						<path id="&lt;Path&gt;" class="s1" d="m644.7 465.6h-3.5v-3.5h3.5z"/>
						<path id="&lt;Path&gt;" class="s1" d="m644.7 483.1h-3.5v-3.5h3.5z"/>
						<path id="&lt;Path&gt;" class="s1" d="m644.7 489h-3.5v-3.5h3.5z"/>
						<path id="&lt;Path&gt;" class="s1" d="m644.7 494.8h-3.5v-3.5h3.5z"/>
						<path id="&lt;Path&gt;" class="s1" d="m644.7 500.6h-3.5v-3.5h3.5z"/>
						<path id="&lt;Path&gt;" class="s1" d="m644.7 506.4h-3.5v-3.4h3.5z"/>
						<path id="&lt;Path&gt;" class="s1" d="m644.7 512.3h-3.5v-3.5h3.5z"/>
						<path id="&lt;Path&gt;" class="s1" d="m644.7 523.9h-3.5v-3.4h3.5z"/>
					</g>
				</g>
				<g id="&lt;Group&gt;">
					<path id="&lt;Path&gt;" class="s0" d="m515.7 242.3v379h-6.9v-379z"/>
					<path id="&lt;Path&gt;" class="s0" d="m625.5 242.3v379h-5.8v-379z"/>
					<path id="&lt;Path&gt;" class="s0" d="m735.4 242.3v379h-5.9v-379z"/>
				</g>
			</g>
			<g id="&lt;Group&gt;">
				<path id="&lt;Path&gt;" class="s3" d="m153.1 718.7c0 0-6-33.2-14.7-38.5-8.7-5.3-28.3-20-17.8-27.4 10.4-7.5 22 16.8 22 16.8-1.9-8.4-13.6-24.6-19.7-33.7-6.1-9-6.1-19.5 1-18.6 7.1 1 17.7 33.3 17.7 33.3 0 0 0-20-4.8-44.6-4.7-24.7-1.6-27.8 3.3-23.3 4.8 4.6 3.7 22.4 4.4 33.6 0.8 11.1 5.3 22.8 5.3 22.8 5.3-10.5 0.3-41.1 6.5-38.7 6.2 2.4 3.3 25-1.2 38.9-4.5 13.9 1 27.2 1 27.2 0 0 3-19.3 9.5-15.4 6.5 4 3.5 8.5-6.7 27.7-10.2 19.2-1.3 38.6-1.3 38.6z"/>
				<path id="&lt;Path&gt;" class="s0" d="m150.6 725.4c0 0 8.7-19.6-1.7-38.6-10.5-19.1-13.5-23.5-7-27.6 6.4-4 9.6 15.2 9.6 15.2 0 0 5.4-13.3 0.7-27.1-4.7-13.8-7.8-36.4-1.7-38.9 6.2-2.5 1.5 28.2 7 38.5 0 0 4.4-11.7 5-22.8 0.6-11.2-0.8-29 4-33.6 4.9-4.7 8-1.5 3.5 23.1-4.5 24.7-4.2 44.7-4.2 44.7 0 0 10.2-32.4 17.3-33.5 7.1-1 7.2 9.4 1.2 18.6-5.9 9.2-17.5 25.6-19.3 34 0 0 11.3-24.5 21.9-17.2 10.5 7.3-8.9 22.2-17.5 27.7-8.7 5.4-14.3 38.7-14.3 38.7z"/>
				<g id="&lt;Group&gt;">
					<path id="&lt;Path&gt;" class="s0" d="m184.9 762.8h-60.2l-5.8-51.4h71.8z"/>
				</g>
			</g>
			<g id="&lt;Group&gt;">
				<g id="&lt;Group&gt;">
					<path id="&lt;Path&gt;" class="s0" d="m840.9 707.4c0-0.4 6-41.6-5.1-54.7-2.1-2.6-4.7-3.8-7.8-3.9-21.5-0.5-24.3 15.8-24.4 16.5l-2.9-0.4c0-0.2 3.3-19.5 27.4-19 3.9 0.1 7.3 1.8 9.9 4.9 11.9 14.2 6 55.2 5.7 57z"/>
				</g>
				<g id="&lt;Group&gt;">
					<path id="&lt;Path&gt;" class="s0" d="m864.4 657.6c20.6-8.6 30.2 9.8 30.3 10l-2.6 1.3c-0.3-0.6-8.5-16.2-26.6-8.7-18.4 7.8-17.5 45.3-17.5 45.6l-2.8 0.1c-0.1-1.6-1-39.8 19.2-48.3z"/>
				</g>
				<g id="&lt;Group&gt;">
					<path id="&lt;Path&gt;" class="s0" d="m842.2 708.9c0-2.5 0.2-60.8 12.2-78.8 12.5-18.7 33.1-9.6 33.3-9.5l-1.1 2.6c-0.8-0.3-18.7-8.1-29.8 8.5-11.5 17.3-11.7 76.6-11.7 77.2z"/>
				</g>
				<path id="&lt;Path&gt;" class="s3" d="m824.7 647.4c0 0 10.5 3.8 7.3 13-3.1 9.1-36.3 24.2-36.3 24.2 0 0-13.9-12.8-1.1-33.5 12.7-20.8 29.8-10.3 30.1-3.7z"/>
				<path id="&lt;Path&gt;" class="s3" d="m857.3 628.6c0 0-7.4-0.8-6.8-5.4 0.6-4.5 29-16.2 45.7 2.7 0 0-10.7 18.4-26.2 18.7-15.5 0.2-12.7-16-12.7-16z"/>
				<path id="&lt;Path&gt;" class="s3" d="m865 658.9c0 0-5.2-4.1 0.4-6.2 5.6-2 32.8-1.4 33.1 25.6 0 0-31.7 5.3-35.7-5-3.9-10.3 2.2-14.4 2.2-14.4z"/>
				<path id="&lt;Path&gt;" class="s0" d="m813.7 708.9h59.9l-5.3 53.9h-49.3z"/>
				<path id="&lt;Path&gt;" class="s3" d="m811.1 702.9h65.1v11.9h-65.1z"/>
			</g>
			<g id="&lt;Group&gt;">
				<path id="&lt;Path&gt;" class="s3" d="m318.5 210.2c15.7 0 28.4 12.7 28.4 28.3 0 15.7-12.7 28.3-28.4 28.3-15.6 0-28.3-12.6-28.3-28.3 0-15.6 12.7-28.3 28.3-28.3z"/>
				<path id="&lt;Path&gt;" class="s2" d="m318.5 214.4c13.3 0 24.1 10.8 24.1 24.1 0 13.3-10.8 24.1-24.1 24.1-13.3 0-24.1-10.8-24.1-24.1 0-13.3 10.8-24.1 24.1-24.1z"/>
				<path id="&lt;Path&gt;" class="s4" d="m330.8 232.5l-11.1 6.3v-16.8"/>
			</g>
		</g>
	</g>
	<g id="Shadow">
		<path id="&lt;Path&gt; 359 " class="s5" d="m887.8 832.5c0 12.5-173.6 22.6-387.8 22.6-214.2 0-387.8-10.1-387.8-22.6 0-12.5 173.6-22.7 387.8-22.7 214.2 0 387.8 10.2 387.8 22.7z"/>
	</g>
	<g id="Board">
		<g id="&lt;Group&gt;">
			<path id="&lt;Path&gt;" class="s6" d="m465.1 542.3h-305.8v-205.2h305.8z"/>
			<g id="&lt;Group&gt;">
				<path id="&lt;Path&gt;" class="s6" d="m228.4 807.7l20.4 4.3v3.6h-23.4-3.3-23.4v-3.6l20.4-4.3v-357.4h9.3z"/>
				<path id="&lt;Path&gt;" class="s6" d="m425.7 812v3.6h-23.4-3.3-23.4v-3.6l20.4-4.3v-357.4h9.3v357.4z"/>
			</g>
			<g id="&lt;Group&gt;" style="opacity: .6">
				<path id="&lt;Path&gt;" class="s7" d="m465.1 542.3h-305.8v-205.2h305.8z"/>
				<g id="&lt;Group&gt;">
					<path id="&lt;Path&gt;" class="s7" d="m228.4 807.7l20.4 4.3v3.6h-23.4-3.3-23.4v-3.6l20.4-4.3v-357.4h9.3z"/>
					<path id="&lt;Path&gt;" class="s7" d="m425.7 812v3.6h-23.4-3.3-23.4v-3.6l20.4-4.3v-357.4h9.3v357.4z"/>
				</g>
			</g>
			<path id="&lt;Path&gt;" class="s7" d="m168.2 533.5v-187.5h288v187.5z"/>
			<g id="&lt;Group&gt;">
				<g id="&lt;Group&gt;" style="opacity: .2">
					<path id="&lt;Path&gt;" class="s8" d="m434.3 520.2h-248.6v-139.4h2v137.4h246.6z"/>
				</g>
				<g id="&lt;Group&gt;">
					<g id="&lt;Group&gt;">
						<path id="&lt;Path&gt;" class="s9" d="m209.4 517.2h-10.7v-20.2h10.7z"/>
						<path id="&lt;Path&gt;" class="s10" d="m209.4 502.9h-10.7v-5.9h10.7z"/>
					</g>
					<g id="&lt;Group&gt;">
						<path id="&lt;Path&gt;" class="s9" d="m231.4 517.2h-10.8v-52.4h10.8z"/>
						<path id="&lt;Path&gt;" class="s10" d="m231.4 480.1h-10.8v-15.3h10.8z"/>
					</g>
					<g id="&lt;Group&gt;">
						<path id="&lt;Path&gt;" class="s9" d="m253.3 517.2h-10.7v-40.3h10.7z"/>
						<path id="&lt;Path&gt;" class="s10" d="m253.3 488.6h-10.7v-11.7h10.7z"/>
					</g>
					<g id="&lt;Group&gt;">
						<path id="&lt;Path&gt;" class="s9" d="m275.3 517.2h-10.8v-58.8h10.8z"/>
						<path id="&lt;Path&gt;" class="s10" d="m275.3 475.5h-10.8v-17.1h10.8z"/>
					</g>
					<g id="&lt;Group&gt;">
						<path id="&lt;Path&gt;" class="s9" d="m297.2 517.2h-10.7v-75.9h10.7z"/>
						<path id="&lt;Path&gt;" class="s10" d="m297.2 463.4h-10.7v-22.1h10.7z"/>
					</g>
					<g id="&lt;Group&gt;">
						<path id="&lt;Path&gt;" class="s9" d="m319.2 517.2h-10.8v-88.8h10.8z"/>
						<path id="&lt;Path&gt;" class="s10" d="m319.2 454.2h-10.8v-25.8h10.8z"/>
					</g>
					<g id="&lt;Group&gt;">
						<path id="&lt;Path&gt;" class="s9" d="m341.1 517.2h-10.7v-73.9h10.7z"/>
						<path id="&lt;Path&gt;" class="s10" d="m341.1 464.8h-10.7v-21.5h10.7z"/>
					</g>
					<g id="&lt;Group&gt;">
						<path id="&lt;Path&gt;" class="s9" d="m363 517.2h-10.7v-77.1h10.7z"/>
						<path id="&lt;Path&gt;" class="s10" d="m363 462.5h-10.7v-22.4h10.7z"/>
					</g>
					<g id="&lt;Group&gt;">
						<path id="&lt;Path&gt;" class="s9" d="m385 517.2h-10.8v-96.8h10.8z"/>
						<path id="&lt;Path&gt;" class="s10" d="m385 448.6h-10.8v-28.2h10.8z"/>
					</g>
					<g id="&lt;Group&gt;">
						<path id="&lt;Path&gt;" class="s9" d="m406.9 517.2h-10.7v-116.6h10.7z"/>
						<path id="&lt;Path&gt;" class="s10" d="m406.9 434.5h-10.7v-33.9h10.7z"/>
					</g>
					<g id="&lt;Group&gt;">
						<path id="&lt;Path&gt;" class="s9" d="m428.9 517.2h-10.8v-133.9h10.8z"/>
						<path id="&lt;Path&gt;" class="s10" d="m428.9 422.2h-10.8v-38.9h10.8z"/>
					</g>
				</g>
				<path id="&lt;Path&gt;" class="s9" d="m375.6 365.2h-133v-5.5h133z"/>
			</g>
		</g>
	</g>
	<g id="Character 2">
		<g id="&lt;Group&gt;">
			<path id="&lt;Path&gt;" class="s11" d="m450.9 503.8l-9.9-6.5c0 0-1.4 1.3-2 0.9-0.6-0.4-12.7-1.4-14.6-3.6-2-2.2-1.8-12.6-1.8-12.6 0 0 17.6 3.7 17.8 3.6 0.2-0.1 2.9 6 2.9 6l9.3 4.6z"/>
			<path id="&lt;Path&gt;" class="s6" d="m566.1 442.9c-0.6 6.8 7.1 10.1 6.2 18.7-0.8 8.6-8.6 8-0.2 11.8 8.3 3.9 8.6 18.1 0 25.6-8.7 7.4-48.1 9.4-62.1-2.7-13.9-12.2-9.8-21.4-6.5-27.9 3.3-6.5 8.3-5.3 8-9.2-0.3-3.9-4.7-6.2-3.5-15.4 1.2-9.2 8.3-8.3 7.7-17.8-0.6-9.5 9.8-16.9 22.2-16.9 12.5 0 16.3 8.9 16.3 8.9 14.6 0.5 12.5 18.1 11.9 24.9z"/>
			<g id="&lt;Group&gt;">
				<path id="&lt;Path&gt;" class="s10" d="m505.8 475.7v24.4c0 0-2.1 2.7-5.2 6-3 3.2-6.9 7.1-10.9 9.9-3.7 2.7-7.5 4.6-10.5 4.2-9.7-1.2-35.9-16.3-35.9-16.3l4.4-11.5c0 0 29.7 15.3 31.5 13.7 1.7-1.6 21.2-29 26.6-30.4z"/>
				<path id="&lt;Path&gt;" class="s9" d="m500.6 506.1c-3 3.2-6.9 7.1-10.9 9.9-1.4-10.9 11.2-24.4 11.2-24.4 0 0 0.1 7-0.3 14.5z"/>
			</g>
			<path id="&lt;Path&gt;" class="s11" d="m536.2 575.2c0 0-2.1 65.3-28.1 118.4-6.3 51.9-39 109.6-39 109.6l-9.3-2.4c0 0 23.2-67.9 28.9-114.3 4.3-35.6 20.6-122.2 20.6-122.2z"/>
			<path id="&lt;Path&gt;" class="s6" d="m442.6 821.8c1.5-0.7 3.1-1.1 4.7-1.2 0 0 5.7-3.4 11.4-16.4h6.3c2.2 0 4.2 1.4 4.9 3.5q0.2 0.4 0.2 0.9-0.1 2.3-0.5 4.5c-0.6 4.8-3.7 15-3.7 15l-1.1-0.3 2-9.5c0.6-3.2-2.8-0.1-4.3 3.2-1.6 3.2-4 6.5-11 4.9-8.2-1.9-11.5-3.1-8.9-4.6z"/>
			<path id="&lt;Path&gt;" class="s11" d="m554.7 568c0 0 11.5 64.4-2.9 121.7 4.5 52.1-15.5 115.3-15.5 115.3l-9.6-0.5c0 0 8.6-71.2 4.6-117.8-3.1-35.7-5.2-123.8-5.2-123.8z"/>
			<path id="&lt;Path&gt;" class="s6" d="m511.8 824.7c1.4-0.8 3-1.4 4.6-1.7 0 0 5.3-4 9.5-17.5l6.3-0.7c2.2-0.3 4.3 0.9 5.3 2.9q0.2 0.4 0.2 0.9 0.2 2.3 0 4.6c0 4.7-2 15.2-2 15.2l-1.1-0.1 0.9-9.7c0.3-3.2-2.7 0.2-4 3.6-1.2 3.4-3.2 6.9-10.3 6.1-8.4-1-11.8-1.9-9.4-3.6z"/>
			<path id="&lt;Path&gt;" class="s11" d="m469.1 803.2c0.6 1.8 1 5.4 1 5.4 0 0-2-3-10.3 7.5-6.4 8.1-12.5 4.5-12.5 4.5 4.6-3.2 12.5-19.8 12.5-19.8 0 0 8-1 9.3 2.4z"/>
			<path id="&lt;Path&gt;" class="s11" d="m536.3 805c0.8 1.3 1.2 2.7 1.2 2.7-5.4-1.4-10.3 10.4-13.1 13.7-2.8 3.3-8 1.6-8 1.6 0 0 3-2.7 6-9.4 3-6.8 5.3-12.9 5.3-12.9 0 0 7.7 2.9 8.6 4.3z"/>
			<g id="&lt;Group&gt;">
				<path id="&lt;Path&gt;" class="s10" d="m553 551.7c30.2 62.7-10.3 236.9-10.3 236.9l-16.6 0.8c6.3-51.4 2.3-144 2.3-144-11 52.3-47.4 142.5-47.4 142.5l-19-1.6c0 0 17-49.5 25.7-108 9.5-64.3 16-128.5 16-128.5z"/>
				<path id="&lt;Path&gt;" class="s12" d="m542.7 788.7l-16.6 0.7c6.3-51.4 2.3-144 2.3-144-2.8 13.2-7.2 28.8-12.2 44.8-14.9 47.2-35.2 97.7-35.2 97.7l-19-1.6c0 0 17-49.5 25.7-108 9.6-64.3 16-128.5 16-128.5l49.3 1.9c30.2 62.7-10.3 237-10.3 237z"/>
				<path id="&lt;Path&gt;" class="s9" d="m528.4 645.4c-2.8 13.2-7.2 28.8-12.2 44.8-1.9-30.1 5.7-83.9 5.7-83.9z"/>
			</g>
			<g id="&lt;Group&gt;">
				<path id="&lt;Path&gt;" class="s6" d="m552.9 548.6l0.1 7.2-49.6-2.8-0.1-8.6z"/>
				<path id="&lt;Path&gt;" class="s7" d="m514.7 545.9l10.9 0.8-0.6 8.2-10.8-0.7z"/>
				<g id="&lt;Group&gt;">
					<path id="&lt;Path&gt;" class="s10" d="m536.2 545.8l2.4 0.1-0.4 12.5h-2.4z"/>
					<path id="&lt;Path&gt;" class="s12" d="m536.2 545.8l2.4 0.1-0.4 12.5h-2.4z"/>
				</g>
				<g id="&lt;Group&gt;">
					<path id="&lt;Path&gt;" class="s10" d="m505.9 543.1l2.4 0.1-0.4 12.5-2.4-0.1z"/>
					<path id="&lt;Path&gt;" class="s12" d="m505.9 543.1l2.4 0.1-0.4 12.5-2.4-0.1z"/>
				</g>
			</g>
			<g id="&lt;Group&gt;">
				<path id="&lt;Path&gt;" class="s6" d="m503.3 486.3c0.9-10.2 2.5-10.6 2.5-10.6 0 0 11.1-1.1 20.7-1 7.5 0.2 14.9 1 22.2 2.3q10.5 1.8 20.6 5-1.7 4.8-3.1 9.1-1.9 5.7-3.4 10.6c-1.9 6.1-3.4 11.4-4.6 16.1-3.7 14.7-4.6 18.5-5.3 30.8l-49.5-3.3c-2-34.9-1-49.4-0.1-59z"/>
				<path id="&lt;Path&gt;" class="s12" d="m503.3 486.3c0.9-10.2 2.5-10.6 2.5-10.6 0 0 11.1-1.1 20.7-1 7.5 0.2 14.9 1 22.2 2.3q10.5 1.8 20.6 5-1.7 4.8-3.1 9.1-1.9 5.7-3.4 10.6c-1.9 6.1-3.4 11.4-4.6 16.1-3.7 14.7-4.6 18.5-5.3 30.8l-49.5-3.3c-2-34.9-1-49.4-0.1-59z"/>
			</g>
			<path id="&lt;Path&gt;" class="s11" d="m527.1 476.8c0 0 4.1-0.1 3.9-9 0-1.7-0.1-3.8-0.5-6.2l14.7-2.7c0 0-6.5 12.6 1.3 19.9 0 0-3.7 5.3-15.9 6.8 0 0-6-4-3.5-8.8z"/>
			<path id="&lt;Path&gt;" class="s9" d="m545.2 458.9c0 0-4.2 8.9-14.2 8.9 0-1.7-0.1-3.8-0.5-6.2z"/>
			<g id="&lt;Group&gt;">
				<path id="&lt;Path&gt;" class="s11" d="m536.8 465.2c-16.2 2.6-19.2-9.3-17.1-25.6 1.6-13.1 6.1-19.7 18.9-19 21.2 1.1 20.1 41-1.8 44.6z"/>
				<path id="&lt;Path&gt;" class="s13" d="m527.3 446c-2.3 0.2-3.3-1.6-3.3-1.6 2-1.9 4-5.1 4-5.1z"/>
				<g id="&lt;Group&gt;">
					<path id="&lt;Path&gt;" class="s6" d="m537.3 436.9c0.7 0 1.2 0.9 1.1 2-0.1 1-0.7 1.8-1.4 1.8-0.7-0.1-1.2-1-1.1-2 0-1.1 0.7-1.9 1.4-1.8z"/>
					<path id="&lt;Path&gt;" class="s6" d="m537.6 437l-2.3-1.1c0 0 1 2 2.3 1.1z"/>
				</g>
				<g id="&lt;Group&gt;">
					<path id="&lt;Path&gt;" class="s6" d="m524.3 435.7c0.7 0 1.2 0.9 1.1 2-0.1 1-0.7 1.8-1.4 1.8-0.7-0.1-1.2-1-1.2-2 0.1-1.1 0.8-1.9 1.5-1.8z"/>
					<path id="&lt;Path&gt;" class="s6" d="m524.5 435.7l-2.2-1c0 0 1 2 2.2 1z"/>
				</g>
				<path id="&lt;Path&gt;" class="s14" d="m536.5 429.9c0 0 3.6-0.3 5.4 2.2"/>
				<path id="&lt;Path&gt;" class="s14" d="m527.2 428.8c0 0-2.2-0.9-5.1 0.8"/>
				<path id="&lt;Path&gt;" class="s6" d="m530.1 451.1c1.9-0.2 5.4-0.6 7.3-1.9 0 0 0.2 0.6 0.1 1.3 0.1 0.7 0 1.5-0.4 2.2-0.8 1.4-2.4 2.8-6.2 2.9q-0.4 0.1-0.8 0.1c0 0-0.6-3-1.3-4.5 0 0 0.5-0.1 1.3-0.1z"/>
				<path id="&lt;Path&gt;" class="s7" d="m537.4 449.2c0 0 0.2 0.6 0.1 1.3-1 1.1-3.5 1.7-7 1.9l-0.4-1.3c1.9-0.2 5.4-0.6 7.3-1.9z"/>
				<path id="&lt;Path&gt;" class="s15" d="m532.9 453.8c1.4-0.7 2.9-0.9 4.2-1.1-0.8 1.4-2.4 2.8-6.2 2.9 0.4-0.7 1-1.4 2-1.8z"/>
				<path id="&lt;Path&gt;" class="s6" d="m551.4 442.8c0 0-5.4-10.8-4.1-18.8 0 0-24.7-11.8-27.4 13.9 0 0-1.2-23 20.8-22.3 21.9 0.7 20.1 32.8 8.2 41.8 0 0 5.8-7.8 2.5-14.6z"/>
				<path id="&lt;Path&gt;" class="s6" d="m562.9 431.4l-10.4 9.3c0 0-2.5-5.8-14.5-10.4-11.9-4.5-13.5-16.5-4.4-18.2 9.1-1.7 19.1 7.2 19.1 7.2z"/>
				<path id="&lt;Path&gt;" class="s16" d="m554.3 441.3c0 0 0.7-3.4-7.8-6.3-8.5-3-17.5-6.2-18.7-12.5-1.1-6.3 3.1-6.6 3.1-6.6"/>
				<path id="&lt;Path&gt;" class="s11" d="m549.1 445.4c0.2-2 2.5-5.4 6.3-4.8 4 0.7 5.4 8.9-4.5 10.3-1.5 0.2-2.2-1.2-1.8-5.5z"/>
			</g>
			<path id="&lt;Path&gt;" class="s11" d="m557.8 480.2c0 0-14.3 11.6-27.7 11.4-13.3-0.2-18-15.2-18-15.2 0 0 20.7-6.1 45.7 3.8z"/>
			<g id="&lt;Group&gt;">
				<path id="&lt;Path&gt;" class="s10" d="m569.3 482l-6.5 77.2-13.8 1.2c-2-10.5-2.4-27.1-2.1-42.7v-0.1c0.4-21.2 1.9-40.6 1.9-40.6 7.6 0.8 20.5 5 20.5 5z"/>
				<path id="&lt;Path&gt;" class="s12" d="m551 496.4l3.7 5.7-7.8 15.5c0.4-21.2 1.9-40.6 1.9-40.6l11.8 11.1z"/>
			</g>
			<g id="&lt;Group&gt;">
				<path id="&lt;Path&gt;" class="s10" d="m522.1 474.6c-0.4 0.5-7.2 13.1-12.7 37-2.7 11.9-5.1 26.7-6.1 44.2l-5.3-2.4c0 0-2.5-59.9 7.8-77.7z"/>
				<path id="&lt;Path&gt;" class="s12" d="m522.1 474.6c-0.4 0.5-7.2 13.1-12.7 37l-2.5-15.4 5.2-4.6-5.2-9.8z"/>
			</g>
			<g id="&lt;Group&gt;">
				<path id="&lt;Path&gt;" class="s10" d="m589.3 528.6c-1.5 3.3-4.2 3.7-6.9 2.3-2.2-1.1-4.4-3.2-6.1-5.7-1.3-1.8-2.9-4.5-4.6-7.3-3.7-6.1-7.5-12.9-7.5-12.9l5.1-23c7.4 3.5 22.8 40.7 20 46.6z"/>
				<path id="&lt;Path&gt;" class="s9" d="m582.4 530.9c-2.2-1.1-4.4-3.2-6.1-5.7-1.3-1.8-2.9-4.5-4.6-7.3 2.1-3.8 4.3-6.9 4.3-6.9l3.7 10.5c0 0 6.5 1.4 7.6 4.9 0.4 1.2-1.9 3.1-4.9 4.5z"/>
			</g>
			<g id="&lt;Group&gt;">
				<path id="&lt;Path&gt;" class="s6" d="m582.2 501l-12.4 47c-0.2 1.1-1.4 1.9-2.5 1.7l-32.7-4.3c-1.2-0.2-1.8-1.2-1.6-2.3l12.4-47c0.3-1.1 1.4-1.8 2.5-1.7l32.7 4.4c1.2 0.1 1.9 1.1 1.6 2.2z"/>
				<path id="&lt;Path&gt;" class="s17" d="m582.2 501l-12.4 47c-0.2 1.1-1.4 1.9-2.5 1.7l-31.2-4.1c-1.2-0.2-1.9-1.2-1.6-2.3l12.4-47c0.2-1.1 1.4-1.8 2.5-1.7l31.2 4.2c1.2 0.1 1.9 1.1 1.6 2.2z"/>
				<path id="&lt;Path&gt;" class="s18" d="m561.7 522.2c-0.4 1.6-2.1 2.7-3.7 2.5-1.7-0.2-2.6-1.7-2.2-3.3 0.4-1.6 2.1-2.7 3.7-2.5-0.4 1.6 0.5 3.1 2.2 3.3z"/>
			</g>
			<g id="&lt;Group&gt;">
				<path id="&lt;Path&gt;" class="s10" d="m584.8 539.7c-2.2 1.2-7.1-0.6-8.7-1.2q-0.4-0.2-0.4-0.2c0 0-2.7-8.8 4.3-13.6q0.1-0.1 0.2-0.1c2.2-1.2 9.2 0.3 9.4 2.7 0.9 9.4-2.2 11-4.8 12.4z"/>
				<path id="&lt;Path&gt;" class="s9" d="m580.5 532.1c-0.8 3.2-2.7 5.2-4.4 6.4q-0.4-0.2-0.4-0.2c0 0-2.7-8.8 4.3-13.6q0.1-0.1 0.2-0.1c0.6 0.8 1.6 2.9 0.3 7.5z"/>
			</g>
			<path id="&lt;Path&gt;" class="s11" d="m570.3 520.9c0 0 4.6-0.2 6.7 0 2 0.2 1.4 6.9 1.4 6.9l1.8 1c0 0 1.4 3.9-1.7 5.9l-1.6-0.5c0 0-0.4 1.6-1.7 2.3-1.3 0.8-7.6-0.9-7.6-0.9z"/>
		</g>
	</g>
	<g id="Table">
		<g id="&lt;Group&gt;">
			<g id="&lt;Group&gt;">
				<g id="&lt;Group&gt;">
					<path id="&lt;Path&gt;" class="s6" d="m385.9 586.7h-64.2l10.6-42.1c0.3-0.9 1.2-1.7 2.2-1.7h60.8c0.9 0 1.5 0.8 1.3 1.7z"/>
					<path id="&lt;Path&gt;" class="s10" d="m385.4 583.2h-61.5l9.4-37h61.5z"/>
					<path id="&lt;Path&gt;" class="s19" d="m385.4 583.2h-61.5l9.4-37h61.5z"/>
				</g>
				<path id="&lt;Path&gt;" class="s6" d="m385.9 585.4v2.7c0 1.1-0.9 2-2 2h-26-36.3-25.9c-1.2 0-2.1-0.9-2.1-2v-2.7h28 36.3z"/>
				<path id="&lt;Path&gt;" class="s19" d="m385.9 585.4v2.7c0 1.1-0.9 2-2 2h-26-36.3-25.9c-1.2 0-2.1-0.9-2.1-2v-2.7h28 36.3z"/>
				<path id="&lt;Path&gt;" class="s20" d="m357.9 585.4v2.7c0 1.1-0.9 2-2.1 2h-60.1c-1.2 0-2.1-0.9-2.1-2v-2.7h23v0.9h11.2v-0.9z"/>
				<g id="&lt;Group&gt;">
					<path id="&lt;Path&gt;" class="s19" d="m361.4 568.1h-29.5l4.3-17h29.5z"/>
					<path id="&lt;Path&gt;" class="s10" d="m365.4 552.1h-29.4l0.2-1h29.5z"/>
				</g>
				<g id="&lt;Group&gt;">
					<path id="&lt;Path&gt;" class="s7" d="m383.9 580.6h-41l5.9-23.6h41z"/>
					<path id="&lt;Path&gt;" class="s10" d="m389.5 558.4h-41l0.3-1.4h41z"/>
				</g>
			</g>
			<g id="&lt;Group&gt;">
				<g id="&lt;Group&gt;">
					<path id="&lt;Path&gt;" class="s6" d="m801.8 834.6h-9.3l-16.8-233.6h12.4z"/>
					<path id="&lt;Path&gt;" class="s17" d="m801.8 834.6h-9.3l-16-221.9-0.8-11.3h12.4l0.6 11.3z"/>
					<path id="&lt;Path&gt;" class="s9" d="m788.7 612.1h-12.2l-0.8-10.7h12.4z"/>
				</g>
				<g id="&lt;Group&gt;">
					<path id="&lt;Path&gt;" class="s6" d="m539.8 834.6h-9.4l13.7-233.6h12.4z"/>
					<path id="&lt;Path&gt;" class="s17" d="m556.5 601.4l-0.8 11.3-16 221.9h-9.3l13.1-221.9 0.6-11.3z"/>
					<path id="&lt;Path&gt;" class="s9" d="m544.1 601.4h12.4l-0.8 10.7h-12.2z"/>
				</g>
				<g id="&lt;Group&gt;">
					<path id="&lt;Path&gt;" class="s6" d="m426.4 834.6h-9.4l-16.7-233.6h12.3z"/>
					<path id="&lt;Path&gt;" class="s17" d="m426.4 834.6h-9.4l-15.9-221.9-0.8-11.3h12.3l0.7 11.3z"/>
					<path id="&lt;Path&gt;" class="s9" d="m413.3 612.1h-12.2l-0.8-10.7h12.3z"/>
				</g>
				<g id="&lt;Group&gt;">
					<path id="&lt;Path&gt;" class="s6" d="m184.3 834.6h-9.3l13.7-233.6h12.4z"/>
					<path id="&lt;Path&gt;" class="s17" d="m201.1 601.4l-0.8 11.3-16 221.9h-9.3l13-221.9 0.7-11.3z"/>
					<path id="&lt;Path&gt;" class="s9" d="m188.7 601.4h12.4l-0.8 10.7h-12.3z"/>
				</g>
				<g id="&lt;Group&gt;">
					<path id="&lt;Path&gt;" class="s10" d="m794.5 606.9h-612.2c-1.9 0-3.4-1.5-3.4-3.4v-8.3h619v8.3c0 1.9-1.5 3.4-3.4 3.4z"/>
					<path id="&lt;Path&gt;" class="s19" d="m794.5 606.9h-612.2c-1.9 0-3.4-1.5-3.4-3.4v-8.3h619v8.3c0 1.9-1.5 3.4-3.4 3.4z"/>
				</g>
				<path id="&lt;Path&gt;" class="s9" d="m797.9 601h-619v-5.8h619z"/>
				<g id="&lt;Group&gt;">
					<path id="&lt;Path&gt;" class="s10" d="m803.7 596.7h-630.6c-1.8 0-3.3-1.4-3.3-3.3 0-1.8 1.5-3.3 3.3-3.3h630.6c1.8 0 3.3 1.5 3.3 3.3 0 1.9-1.5 3.3-3.3 3.3z"/>
					<path id="&lt;Path&gt;" class="s19" d="m803.7 596.7h-630.6c-1.8 0-3.3-1.4-3.3-3.3 0-1.8 1.5-3.3 3.3-3.3h630.6c1.8 0 3.3 1.5 3.3 3.3 0 1.9-1.5 3.3-3.3 3.3z"/>
				</g>
			</g>
			<g id="&lt;Group&gt;">
				<g id="&lt;Group&gt;">
					<path id="&lt;Path&gt;" class="s6" d="m585.7 544.6c-0.3-0.9 0.3-1.7 1.3-1.7h60.7c1 0 2 0.8 2.2 1.7l10.7 42.1h-64.3z"/>
					<path id="&lt;Path&gt;" class="s10" d="m587.4 546.2h61.6l9.3 37h-61.5z"/>
					<path id="&lt;Path&gt;" class="s19" d="m587.4 546.2h61.6l9.3 37h-61.5z"/>
				</g>
				<path id="&lt;Path&gt;" class="s6" d="m624.3 585.4h36.3 28v2.7c0 1.1-0.9 2-2 2h-26-36.3-25.9c-1.2 0-2.1-0.9-2.1-2v-2.7z"/>
				<path id="&lt;Path&gt;" class="s19" d="m624.3 585.4h36.3 28v2.7c0 1.1-0.9 2-2 2h-26-36.3-25.9c-1.2 0-2.1-0.9-2.1-2v-2.7z"/>
				<path id="&lt;Path&gt;" class="s20" d="m654.4 585.4v0.9h11.2v-0.9h23v2.7c0 1.1-0.9 2-2 2h-60.2c-1.2 0-2.1-0.9-2.1-2v-2.7z"/>
				<g id="&lt;Group&gt;">
					<path id="&lt;Path&gt;" class="s7" d="m591.5 548.8h55.2l8 31.7h-55.2z"/>
					<path id="&lt;Path&gt;" class="s10" d="m591.5 548.8h55.2l0.5 1.9h-55.2z"/>
				</g>
			</g>
		</g>
	</g>
	<g id="Character 3">
		<g id="&lt;Group&gt;">
			<g id="&lt;Group&gt; 54 ">
				<path id="&lt;Path&gt;" class="s6" d="m736.9 818l15.8-1c0.5-0.1 1 0.3 1.1 0.9q0 0 0 0l1.5 12.5c0.1 1.3-0.9 2.5-2.3 2.6-5.5 0.2-8.1 0.1-15.1 0.5-4.2 0.2-12.6 1.1-18.5 0.6-5.9-0.6-5.2-6.4-2.6-6.7 6-0.7 14-5.1 17.7-8.4 0.7-0.6 1.5-1 2.4-1z"/>
				<path id="&lt;Path&gt;" class="s6" d="m656.6 818l15.7-1c0.6-0.1 1.1 0.3 1.1 0.9q0 0 0 0l1.6 12.5c0.1 1.3-1 2.5-2.3 2.6-5.5 0.2-8.2 0.1-15.1 0.5-4.3 0.2-12.7 1.1-18.6 0.6-5.8-0.6-5.1-6.4-2.6-6.7 6-0.7 14-5.1 17.8-8.4 0.6-0.6 1.5-1 2.4-1z"/>
				<path id="&lt;Path&gt;" class="s11" d="m715.8 588l-19 1.4c-5.2 2.2-18.9-1.4-18.9-1.4 0-5.7 5.9-7.9 5.9-7.9 0 0 5.3-0.5 10 0 4.6 0.5 9 2 9 2l13-2z"/>
				<g id="&lt;Group&gt;">
					<path id="&lt;Path&gt;" class="s10" d="m754 544.2c2.3 10.3 1.3 16.6 1.3 16.6 0 0-10.2 24.1-14.4 26.3-4.2 2.2-38.7 3.8-38.7 3.8-3-5 0-11.1 0-11.1 0 0 27.8-4.1 29.3-6.3 1.5-2.2 7-34.4 15-42.8 0 0 5.2 3.2 7.5 13.5z"/>
					<path id="&lt;Path&gt;" class="s19" d="m754 544.2c2.3 10.3 1.3 16.6 1.3 16.6 0 0-10.2 24.1-14.4 26.3-4.2 2.2-38.7 3.8-38.7 3.8-3-5 0-11.1 0-11.1 0 0 27.8-4.1 29.3-6.3 1.5-2.2 7-34.4 15-42.8 0 0 5.2 3.2 7.5 13.5z"/>
				</g>
				<g id="&lt;Group&gt;">
					<path id="&lt;Path&gt;" class="s13" d="m686.1 495.3c-3 0.8-4.8-1.3-4.8-1.3 2.3-2.9 4-7.7 4-7.7z"/>
					<g id="&lt;Group&gt;">
						<path id="&lt;Path&gt;" class="s21" d="m684.5 481.3c0.9-0.1 1.8 1 2 2.3 0.1 1.4-0.5 2.7-1.4 2.8-1 0.1-1.8-1-2-2.4-0.2-1.4 0.5-2.6 1.4-2.7z"/>
					</g>
					<path id="&lt;Path&gt;" class="s14" d="m683.4 478.5c0 0 1.1-0.3 2.3 0.8"/>
					<path id="&lt;Path&gt;" class="s11" d="m691.5 461.8c8.4-6.3 20.2-4.6 26.4 3.8 1.8 2.4 3 5.1 3.5 8 2.6 13.6 4.8 21.4-0.3 29.9-1.2 2.2-2.8 4-4.6 5.3-4.3 3.3-9.7 4.2-14.8 3.1q-1.4-0.4-2.8-0.9c-3.5-1.4-6.6-3.9-8.9-7.2q-0.6-0.9-1.1-1.8c-5.9-11.3-9.1-31.6 2.6-40.2z"/>
					<path id="&lt;Path&gt;" class="s9" d="m713 504.9c0 0 1.9 1.6 3.5 3.9-4.3 3.3-9.7 4.2-14.8 3.1q-1.4-0.4-2.8-0.9c5.8-5.3 14.1-6.1 14.1-6.1z"/>
					<path id="&lt;Path&gt;" class="s11" d="m737.7 520.3c-5 7.7-29.3 10.7-29.3 10.7 0 0-10.7-0.2-9.4-3.9 5.7-2.5 7.8-6 8.1-9.8 0.2-2.2-0.3-4.6-1.1-6.9-0.4-1.2-0.9-2.5-1.4-3.7l16.1-19.7c-4.2 21.8 8.8 27.9 17 33.3z"/>
					<path id="&lt;Path&gt;" class="s6" d="m685.2 461c4.6-7.2 8.7-5.9 8.7-5.9 2.9-6.1 20.1-6.3 28.8-0.4 8.7 5.9 11.8 17.1 11.2 25.9-0.9 12.9-8.9 26-8.9 26q0 0 0 0c-10.2 2.7-18.7 0.4-19.3-4.9-0.7-5.4-6.1-9.4-6.1-9.4-5 1.7-9.5-3.9-9.5-3.9 0 0-5.7-5-4.2-11.9 1.5-6.9-4.6-9.4-0.7-15.5z"/>
					<path id="&lt;Path&gt;" class="s11" d="m701.4 488.8c-0.1 3.1-1.1 5.6-3 7-2.4 1.9-5.1-1.5-5.8-5.6-0.5-3.7 0.1-9.1 3.2-9.2 3-0.1 5.6 3.9 5.6 7.8z"/>
					<path id="&lt;Path&gt;" class="s6" d="m692.5 489c0 0 1.4 11.6 4.5 16.3 3.2 4.6 2.8 6.2 7.1 6.9 0 0-2.4 3.3-4.6 2.8-2.2-0.5-1.7-2.3-3.6-2.3-2 0.1-5.3-1.3-4.9-3.3 0.3-2 0.7-2.5-1.8-4.2-2.6-1.8-3.5-5.6-2.1-7.3 1.4-1.6 4-1.1 4-1.1l-0.2-8.7z"/>
				</g>
				<g id="&lt;Group&gt;">
					<path id="&lt;Path&gt;" class="s10" d="m703.4 527.1c0 0 3.9-17.6 27.4-17.4l6 8.7z"/>
					<path id="&lt;Path&gt;" class="s22" d="m703.4 527.1c0 0 3.9-17.6 27.4-17.4l6 8.7z"/>
				</g>
				<path id="&lt;Path&gt;" class="s10" d="m696.7 667.4c2.6-10.8 37.2-24.2 71.9-31.4v46.1c-12.4-0.2-22-0.3-26.2 0.6-6.5 1.5-6.7 20-4.5 42.4 3.7 36.3 17.1 95.4 17.1 95.4l-24.7 1.9c0 0-14.1-43.8-23-77.8-7.9-29.9-14.3-62-10.6-77.2z"/>
				<path id="&lt;Path&gt;" class="s9" d="m696.7 667.4c2.6-10.8 37.2-24.2 71.9-31.4v46.1c-12.4-0.2-22-0.3-26.2 0.6-6.5 1.5-6.7 20-4.5 42.4-10.6 6.8-21.4 13.7-30.6 19.5-7.9-29.9-14.3-62-10.6-77.2z"/>
				<g id="&lt;Group&gt;">
					<path id="&lt;Path&gt;" class="s10" d="m721.4 622.3l-5.9-17.7c0 0-4.2-32.9-25.6-74.4 0 0 25.8-18.3 54.4-15.6 22 2.1 42.8 58.6 49.2 103.3z"/>
					<path id="&lt;Path&gt;" class="s23" d="m793.5 617.9l-72.1 4.4-5.9-17.7c0 0-0.7-5.7-3-15.2-1.7-6.5-4.1-15-7.6-24.7-3.7-10.2-8.6-22-15-34.5 0 0 25.8-18.3 54.4-15.6 22 2.1 42.8 58.6 49.2 103.3z"/>
				</g>
				<path id="&lt;Path&gt;" class="s10" d="m720.8 631.5l-2.1-17.5 70.7-11.6c0 0 23.1 45.8 11.8 68.3-10.4 20.6-121 8.3-138 12-17.2 3.8 11.6 137.5 11.6 137.5l-24.7 1.9c0 0-40.5-122.3-32.6-154.7 3.4-14.1 61.7-32.9 103.3-35.9z"/>
				<g id="&lt;Group&gt;">
					<path id="&lt;Path&gt;" class="s8" d="m792 610.3l-32.8 4.3-1-4.8 32.8-4.8z"/>
					<path id="&lt;Path&gt;" class="s8" d="m755.4 609.8l0.4 4.8-30.3 4.2v-4.8z"/>
					<path id="&lt;Path&gt;" class="s8" d="m723.6 614.3v4.5l-4.3 0.6v-4.4z"/>
				</g>
				<path id="&lt;Path&gt;" class="s9" d="m712.5 591c-1.7-6.3-4.1-14.3-7.6-23.5 1.3-2.6 3-4.9 5.2-6.7 0 0 6.8 22.1 2.4 30.2z"/>
				<path id="&lt;Path&gt;" class="s11" d="m654.4 594.3l-16.1-3.6c-5.3 2.2-19-1.5-19-1.5 0-5.6 5.9-7.8 5.9-7.8 0 0 5.4-0.5 10 0 4.6 0.5 9 1.9 9 1.9l11 1.8z"/>
				<path id="&lt;Path&gt;" class="s10" d="m702.9 543c6.1 8.6 7.2 15.4 7.2 15.4 0 0-5 48.5-13.3 48.4-8.2-0.2-53-13.4-53-13.4l2.5-11.3c0 0 38.1 6.3 39.8 3.2 1.6-3.1-1.3-49 3.8-54.6 0 0 7 3.7 13 12.3z"/>
				<path id="&lt;Path&gt;" class="s23" d="m702.9 543c6.1 8.6 7.2 15.4 7.2 15.4 0 0-5 48.5-13.3 48.4-8.2-0.2-53-13.4-53-13.4l2.5-11.3c0 0 38.1 6.3 39.8 3.2 1.6-3.1-1.3-49 3.8-54.6 0 0 7 3.7 13 12.3z"/>
			</g>
			<g id="&lt;Group&gt;">
				<path id="&lt;Path&gt;" class="s10" d="m681.4 681.6c0-7.5 6-13.6 13.5-13.6h113c7.5 0 13.6 6.1 13.6 13.6v8.9h-140.1z"/>
				<path id="&lt;Path&gt;" class="s12" d="m681.4 681.6c0-7.5 6-13.6 13.5-13.6h113c7.5 0 13.6 6.1 13.6 13.6v8.9h-140.1z"/>
				<path id="&lt;Path&gt;" class="s6" d="m773.9 620.9h-70.3c-4 0-6.9 4.3-6 8.8l11.7 60.8h-3.2l-13.8-69.4c-0.8-4.5 2.1-8.8 6.1-8.8h77.1z"/>
				<path id="&lt;Path&gt;" class="s6" d="m763.6 692.9v58.7c0 1.9-1.5 3.4-3.4 3.4h-14.4c-1.8 0-3.4-1.5-3.4-3.4v-58.7z"/>
				<g id="&lt;Group&gt;">
					<g id="&lt;Group&gt;">
						<path id="&lt;Path&gt;" class="s6" d="m821.8 828.4c0-3.5 2.8-6.2 6.2-6.2 3.5 0 6.3 2.7 6.3 6.2 0 3.4-2.8 6.2-6.3 6.2-3.4 0-6.2-2.8-6.2-6.2z"/>
						<path id="&lt;Path&gt;" class="s20" d="m824.9 828.4c0-1.7 1.4-3.1 3.1-3.1 1.8 0 3.2 1.4 3.2 3.1 0 1.7-1.4 3.1-3.2 3.1-1.7 0-3.1-1.4-3.1-3.1z"/>
					</g>
					<g id="&lt;Group&gt;">
						<path id="&lt;Path&gt;" class="s6" d="m671.8 828.4c0-3.5 2.8-6.2 6.2-6.2 3.5 0 6.2 2.7 6.2 6.2 0 3.4-2.7 6.2-6.2 6.2-3.4 0-6.2-2.8-6.2-6.2z"/>
						<path id="&lt;Path&gt;" class="s20" d="m674.9 828.4c0-1.7 1.4-3.1 3.1-3.1 1.7 0 3.1 1.4 3.1 3.1 0 1.7-1.4 3.1-3.1 3.1-1.7 0-3.1-1.4-3.1-3.1z"/>
					</g>
				</g>
				<path id="&lt;Path&gt;" class="s6" d="m747.9 801v-67h10.3v67c40.1 1.1 64.5 15.1 69.4 18.2 0.6 0.3 0.9 1 0.9 1.6v5.6c0 1.1-0.9 2-1.9 2-0.8 0-1.4-0.4-1.8-1l-2.3-4.2c0 0-27.7-9.8-64.3-10.6v11c0 1.4-1.2 2.5-2.6 2.5h-5.2c-1.4 0-2.5-1.1-2.5-2.5v-11c-36.7 0.8-64.3 10.6-64.3 10.6l-2.4 4.2c-0.3 0.6-1 1-1.7 1-1.1 0-2-0.9-2-2v-5.6c0-0.6 0.4-1.3 0.9-1.6 4.9-3.1 29.3-17.1 69.5-18.2z"/>
				<path id="&lt;Path&gt;" class="s6" d="m749.6 822.2h6.8v12.4h-6.8z"/>
				<path id="&lt;Path&gt;" class="s9" d="m763.6 692.9v24.4h-21.2v-24.4z"/>
				<path id="&lt;Path&gt;" class="s6" d="m680.6 683.3h141.6c1.7 0 3.1 1.6 3.1 3.6v7c0 2-1.4 3.6-3.1 3.6h-141.6c-1.7 0-3.1-1.6-3.1-3.6v-7c0-2 1.4-3.6 3.1-3.6z"/>
				<path id="&lt;Path&gt;" class="s6" d="m777.1 549.4c0.3-10.5 9-18.9 19.7-18.9h35c10.9 0 19.8 8.7 19.8 19.5v26.1c0 71.3-26.3 114.4-26.3 114.4h-82.6c27.9-24.9 33.4-104.4 34.4-141.1z"/>
				<path id="&lt;Path&gt;" class="s20" d="m755.6 680.8c20.9-31.6 25.3-98.6 26.3-131.4 0.3-10.5 9-18.9 19.7-18.9h30.2c10.9 0 19.8 8.7 19.8 19.5v26.1c0 59.7-18.5 99.7-24.4 111.1-1.1 2-3.3 3.3-5.6 3.3h-60.7c-5.1 0-8-5.5-5.3-9.7z"/>
				<path id="&lt;Path&gt;" class="s9" d="m680.6 683.3h63.5c2.3 0 4.1 2.2 4.1 4.9v4.4c0 2.7-1.8 4.9-4.1 4.9h-63.5c-1.7 0-3.1-1.6-3.1-3.6v-7c0-2 1.4-3.6 3.1-3.6z"/>
			</g>
		</g>
	</g>
	<g id="Character 1">
		<g id="&lt;Group&gt;">
			<g id="&lt;Group&gt; 53 ">
				<g id="&lt;Group&gt;">
					<path id="&lt;Path&gt;" class="s24" d="m300.2 537.3l-6 1.4-1.4-4.9c0 0-1.8 1.2-4.3 0-0.7-0.3-1.6-0.9-2.7-1.6-2.7-1.7-5.9-4.2-5.9-4.2l4.7-9.5c0 0 2 0.8 4.5 1.9 3.6 1.6 8 3.7 8.8 4.8 1.3 1.9 0.6 5.4 0.6 5.4z"/>
					<path id="&lt;Path&gt;" class="s9" d="m285.8 532.2c-2.7-1.7-5.9-4.2-5.9-4.2l4.7-9.5c0 0 2 0.8 4.5 1.9 0.3 2.8 0 7.7-3.3 11.8z"/>
				</g>
				<path id="&lt;Path&gt;" class="s24" d="m383.9 757.6l-10 3.9-7.2-13.6-6.6-12.4 11.1-6.6 6.8 15.1z"/>
				<path id="&lt;Path&gt;" class="s9" d="m378 744l-11.3 3.9-6.6-12.4 11.1-6.6z"/>
				<g id="&lt;Group&gt;">
					<path id="&lt;Path&gt;" class="s6" d="m375.9 736.6l-13.7 7.4c0 0-51.6-90.7-59.5-90-7.9 0.8-83.2 48.7-106.1 31-23-17.7-0.6-71-0.6-71 0 0 47.4-13.6 52.6-3.2 1 2.1 2.3 6.1 3.4 9.6 1 3.2 1.8 6 1.8 6q0 0 0 0c1.4-0.6 48.3-19.8 69.2-9.5 21.3 10.5 52.9 119.7 52.9 119.7z"/>
					<path id="&lt;Path&gt;" class="s18" d="m375.9 736.6l-13.7 7.4c0 0-51.6-90.7-59.5-90-7.9 0.8-83.2 48.7-106.1 31-23-17.7-0.6-71-0.6-71 0 0 47.4-13.6 52.6-3.2 1 2.1 2.3 6.1 3.4 9.6 1 3.2 1.8 6 1.8 6q0 0 0 0c1.4-0.6 48.3-19.8 69.2-9.5 21.3 10.5 52.9 119.7 52.9 119.7z"/>
				</g>
				<path id="&lt;Path&gt;" class="s24" d="m301.7 810.6l-10.7-1.2v-15.1l-0.1-13.9 13-0.6-1.2 16.3z"/>
				<path id="&lt;Path&gt;" class="s9" d="m302.7 796.4l-11.8-1.8v-14.1l13-0.6z"/>
				<path id="&lt;Path&gt;" class="s10" d="m355.5 739.5l20-10.1 2.1 8.5-15.1 7.8z"/>
				<g id="&lt;Group&gt;">
					<path id="&lt;Path&gt;" class="s6" d="m302.7 647.4c0 0 19.2 2.2 21.8 18.3 2.7 16.1-19.6 122.9-19.6 122.9l-15.6-0.5c-2.4-48.1-3.5-112.7-3.5-112.7-50.5 9.4-53.8 9.8-53.8 9.8 37.4-11.9 70.7-37.8 70.7-37.8z"/>
					<path id="&lt;Path&gt;" class="s12" d="m302.7 647.4c0 0 19.2 2.2 21.8 18.3 2.7 16.1-19.6 122.9-19.6 122.9l-15.6-0.5c-2.4-48.1-3.5-112.7-3.5-112.7-50.5 9.4-53.8 9.8-53.8 9.8 37.4-11.9 70.7-37.8 70.7-37.8z"/>
					<path id="&lt;Path&gt;" class="s25" d="m302.7 647.4c0 0 19.2 2.2 21.8 18.3 2.7 16.1-19.6 122.9-19.6 122.9l-15.6-0.5c-2.4-48.1-3.5-112.7-3.5-112.7-50.5 9.4-53.8 9.8-53.8 9.8 37.4-11.9 70.7-37.8 70.7-37.8z"/>
				</g>
				<path id="&lt;Path&gt;" class="s10" d="m286.5 783.8l21.2-0.5-2.9 8.7-17.2 0.2z"/>
				<path id="&lt;Path&gt;" class="s6" d="m395.2 781.4c-7.2 2.7-10.2-0.3-12.3-3.5-2.1-3.2-6.1-6-5-2.7l3.5 9.7-1.1 0.4c0 0-4.8-10.2-6.1-15.2q-0.7-2.3-1.2-4.7 0-0.5 0.1-0.9c0.5-2.3 2.3-4.1 4.6-4.4l6.7-0.9c7.8 12.9 14.3 15.6 14.3 15.6 1.7-0.1 3.5 0.1 5.2 0.6 2.9 1.1-0.4 2.9-8.7 6z"/>
				<path id="&lt;Path&gt;" class="s24" d="m382.7 755.8c0 0 10.7 16.3 16 19 0 0-5.9 4.7-13.8-2.9-10.2-9.9-11.9-6.5-11.9-6.5 0 0-0.1-3.8 0.3-5.8 0.8-3.7 9.4-3.8 9.4-3.8z"/>
				<path id="&lt;Path&gt;" class="s6" d="m307.8 833.4c-7.5 0.9-9.7-2.8-11-6.4-1.3-3.6-4.6-7.2-4.2-3.7l1 10.2-1.2 0.1c0 0-2.2-11.1-2.3-16.1q-0.1-2.5 0-4.9 0.1-0.5 0.3-0.9c1-2.1 3.2-3.4 5.5-3.2l6.7 0.7c4.6 14.4 10.2 18.6 10.2 18.6 1.8 0.3 3.4 0.9 4.9 1.8 2.6 1.8-1 2.7-9.9 3.8z"/>
				<path id="&lt;Path&gt;" class="s24" d="m301.8 805.5c0 0 6.6 18.4 11 22.3 0 0-6.8 3.2-12.7-6.1-7.5-12-10-9.1-10-9.1 0 0 0.8-3.8 1.7-5.6 1.6-3.4 10-1.5 10-1.5z"/>
				<g id="&lt;Group&gt;">
					<path id="&lt;Path&gt;" class="s26" d="m289.5 498.5c0 0-3.7-0.1-5.4 2.6"/>
					<path id="&lt;Path&gt;" class="s15" d="m287.9 507.3c0 0 2.2 3.2 4.3 5 0 0-0.9 1.9-3.2 1.8z"/>
					<g id="&lt;Group&gt;">
						<path id="&lt;Path&gt;" class="s6" d="m289.8 503.5c0.1 1.1-0.3 2-1.1 2.1-0.7 0.1-1.3-0.7-1.5-1.7-0.1-1.1 0.3-2 1.1-2.1 0.7-0.1 1.3 0.7 1.5 1.7z"/>
						<path id="&lt;Path&gt;" class="s6" d="m288 501.9l2.2-1.2c0 0-0.9 2.1-2.2 1.2z"/>
					</g>
					<path id="&lt;Path&gt;" class="s24" d="m268.4 483.4q3.5-0.1 6.2 0.4c5.3 1 8.7 3.8 10.9 8.2 0.1 0.1 0.1 0.3 0.2 0.4 0 0.1 0 0.2 0.1 0.2 1.4 3.2 2.3 7.3 2.8 12.1 1.2 10.4 0.5 19.2-3.8 24.3q0 0 0 0c-3.1 3.4-7.9 4.6-15.2 3.3-2.6-0.4-5-1.7-7-3q-0.2-0.1-0.4-0.3c-16.2-10.9-14.2-44.8 6.2-45.6z"/>
					<path id="&lt;Path&gt;" class="s9" d="m271.8 528c4.7 1.9 9.5 1.4 13 0.4-3.1 3.5-7.9 4.9-15.2 3.6-2.6-0.4-5-1.4-7-2.7 3-1.7 6.2-2.5 9.2-1.3z"/>
					<path id="&lt;Path&gt;" class="s6" d="m285.8 492.5c0 0 1.8 14.2-11.5 21 0 0-5.1 15.2-13.6 15.8-11.7 0.9-22.8-15.3-19.6-32.4 4.2-22.2 37.4-25.6 44.7-4.4z"/>
					<path id="&lt;Path&gt;" class="s24" d="m279.3 515.1c-9-1.6-7.4-10.5-3.8-11.2 3.4-0.7 5.4 3 5.5 5.2 0.2 4.6-0.5 6.2-1.7 6z"/>
					<path id="&lt;Path&gt;" class="s6" d="m260.1 478.5c0 0 13.5-4.1 21.3 1 9.1 6 12.8 12.4 2.9 23.2 0 0-23.3-6.3-30.9-4.3-7.5 1.9-12.8 4.4-12.8 4.4-2.4-15.1 11.7-27 19.5-24.3z"/>
					<path id="&lt;Path&gt;" class="s24" d="m272.9 530.9c0 0-10 4.9-7.1 15.7l-25.5-10.7c0 0 14-0.8 13.3-10.6 0 0 14.5-5.6 19.3 5.6z"/>
					<path id="&lt;Path&gt;" class="s6" d="m235.1 491.2c-12.3-5.8-13.6-24.3 3.6-28.1 17.3-3.8 24.9 18.2 24.9 18.2 1.2 13.4-16.1 15.6-28.5 9.9z"/>
					<path id="&lt;Path&gt;" class="s6" d="m256 489.6c3.3 8.6-14 8.3-20.3 11.1-6.3 2.8-4.4 6.8-4.4 6.8-4.6-6.2 0-9.7 0-9.7-3.4 1.7-4.8 6-4.8 6-1.8-13.1 13.4-13 13.4-13 0 0 12.9-9.7 16.1-1.2z"/>
					<path id="&lt;Path&gt;" class="s26" d="m260.9 481.2c0 0-3.7-26.7-25.2-21.3"/>
					<path id="&lt;Path&gt;" class="s26" d="m252.3 520.5c0 0-15.7-7.9-12.9-20.5"/>
					<path id="&lt;Path&gt;" class="s26" d="m238.3 490.9c0 0-13.7-0.2-14.9 9.2"/>
				</g>
				<path id="&lt;Path&gt;" class="s10" d="m242.1 535.2l6.2-4.5c0 0 20.5 2.8 20.7 15.9 0.2 13-26.9-11.4-26.9-11.4z"/>
				<path id="&lt;Path&gt;" class="s6" d="m238.3 535.2c0 0 15.4-2.9 36.8 11.4 0 0 7.1 31.3-23.1 73.8l-57.3-3.6c0 0 15.5-62.7 43.6-81.6z"/>
				<path id="&lt;Path&gt;" class="s25" d="m253.8 626.4l-19.6 9.8c0 0 6.5-10.8 17.8-15.8 1 3.2 1.8 6 1.8 6z"/>
				<path id="&lt;Path&gt;" class="s17" d="m273.3 575.4c-0.9 4-2.3 8.4-4 13.1-3.6 9.5-9.1 20.3-17.3 31.9l-57.3-3.6c0 0 15.5-62.7 43.6-81.6 0 0 15.4-2.9 36.8 11.4 0 0 2.5 11-1.8 28.8z"/>
				<path id="&lt;Path&gt;" class="s9" d="m273.3 575.4c-0.9 4-2.3 8.4-4 13.1-0.6-6.9 0.1-14.2 0.1-14.2q2.2 0.2 3.9 1.1z"/>
				<path id="&lt;Path&gt;" class="s6" d="m275.1 546.6c0 0 16.8 24.2 21.2 26.5 4.3 2.3-4.1-37.9-4.1-37.9l8.2-1.7c0 0 14.4 48.3 4.7 56.6-9.7 8.3-35.7-15.8-35.7-15.8 0 0-0.9-9.5 0-16.6 0.9-7.1 5.7-11.1 5.7-11.1z"/>
				<path id="&lt;Path&gt;" class="s17" d="m275.1 546.6c0 0 16.8 24.2 21.2 26.5 4.3 2.3-4.1-37.9-4.1-37.9l8.2-1.7c0 0 14.4 48.3 4.7 56.6-9.7 8.3-35.7-15.8-35.7-15.8 0 0-0.9-9.5 0-16.6 0.9-7.1 5.7-11.1 5.7-11.1z"/>
			</g>
			<g id="&lt;Group&gt;">
				<path id="&lt;Path&gt;" class="s10" d="m289.3 690.5h-140.1v-8.9c0-7.5 6.1-13.6 13.6-13.6h112.9c7.5 0 13.6 6.1 13.6 13.6z"/>
				<path id="&lt;Path&gt;" class="s12" d="m289.3 690.5h-140.1v-8.9c0-7.5 6.1-13.6 13.6-13.6h112.9c7.5 0 13.6 6.1 13.6 13.6z"/>
				<path id="&lt;Path&gt;" class="s6" d="m195.2 612.3h77.1c4 0 6.9 4.3 6 8.8l-13.8 69.4h-3.1l11.7-60.8c0.9-4.5-2.1-8.8-6-8.8h-70.4z"/>
				<path id="&lt;Path&gt;" class="s6" d="m228.3 692.9v58.7c0 1.9-1.6 3.4-3.4 3.4h-14.4c-1.9 0-3.4-1.5-3.4-3.4v-58.7z"/>
				<g id="&lt;Group&gt;">
					<g id="&lt;Group&gt;">
						<path id="&lt;Path&gt;" class="s6" d="m142.6 834.6c-3.4 0-6.2-2.8-6.2-6.2 0-3.5 2.8-6.2 6.2-6.2 3.5 0 6.3 2.7 6.3 6.2 0 3.4-2.8 6.2-6.3 6.2z"/>
						<path id="&lt;Path&gt;" class="s20" d="m142.6 831.5c-1.7 0-3.1-1.4-3.1-3.1 0-1.7 1.4-3.1 3.1-3.1 1.8 0 3.2 1.4 3.2 3.1 0 1.7-1.4 3.1-3.2 3.1z"/>
					</g>
					<g id="&lt;Group&gt;">
						<path id="&lt;Path&gt;" class="s6" d="m292.7 834.6c-3.5 0-6.3-2.8-6.3-6.2 0-3.5 2.8-6.2 6.3-6.2 3.4 0 6.2 2.7 6.2 6.2 0 3.4-2.8 6.2-6.2 6.2z"/>
						<path id="&lt;Path&gt;" class="s20" d="m292.7 831.5c-1.8 0-3.1-1.4-3.1-3.1 0-1.7 1.3-3.1 3.1-3.1 1.7 0 3.1 1.4 3.1 3.1 0 1.7-1.4 3.1-3.1 3.1z"/>
					</g>
				</g>
				<path id="&lt;Path&gt;" class="s6" d="m292.2 819.2c0.6 0.3 1 1 1 1.6v5.6c0 1.1-0.9 2-2 2-0.7 0-1.4-0.4-1.7-1l-2.4-4.2c0 0-27.6-9.8-64.3-10.6v11c0 1.4-1.1 2.5-2.5 2.5h-5.2c-1.5 0-2.6-1.1-2.6-2.5v-11c-36.7 0.8-64.3 10.6-64.3 10.6l-2.4 4.2c-0.3 0.6-1 1-1.7 1-1.1 0-1.9-0.9-1.9-2v-5.6c0-0.6 0.3-1.3 0.9-1.6 4.8-3.1 29.2-17.1 69.4-18.2v-67h10.3v67c40.2 1.1 64.6 15.1 69.4 18.2z"/>
				<path id="&lt;Path&gt;" class="s6" d="m221 834.6h-6.7v-12.4h6.7z"/>
				<path id="&lt;Path&gt;" class="s9" d="m228.3 692.9v24.4h-21.2v-24.4z"/>
				<path id="&lt;Path&gt;" class="s6" d="m293.2 686.9v7c0 2-1.4 3.6-3.1 3.6h-141.7c-1.7 0-3-1.6-3-3.6v-7c0-2 1.3-3.6 3-3.6h141.7c1.7 0 3.1 1.6 3.1 3.6z"/>
				<path id="&lt;Path&gt;" class="s6" d="m228 690.5h-82.6c0 0-26.3-43.1-26.3-114.4v-26.1c0-10.8 8.8-19.5 19.7-19.5h35.1c10.7 0 19.4 8.4 19.7 18.9 1 36.7 6.5 116.2 34.4 141.1z"/>
				<path id="&lt;Path&gt;" class="s20" d="m209.8 690.5h-60.7c-2.3 0-4.5-1.3-5.6-3.3-5.9-11.4-24.4-51.4-24.4-111.1v-26.1c0-10.8 8.8-19.5 19.7-19.5h30.3c10.7 0 19.4 8.4 19.7 18.9 0.9 32.8 5.4 99.8 26.2 131.4 2.8 4.2-0.1 9.7-5.2 9.7z"/>
				<path id="&lt;Path&gt;" class="s9" d="m293.2 686.9v7c0 2-1.4 3.6-3.1 3.6h-63.5c-2.3 0-4.1-2.2-4.1-4.9v-4.4c0-2.7 1.8-4.9 4.1-4.9h63.5c1.7 0 3.1 1.6 3.1 3.6z"/>
			</g>
		</g>
	</g>
</svg>