<svg version="1.2" xmlns="http://www.w3.org/2000/svg" viewBox="0 0 3200 2000" width="3200" height="2000">
	<title>8294-ai</title>
	<style>
		.s0 { opacity: .5;fill: #dceaff } 
		.s1 { fill: #dfebfa } 
		.s2 { fill: #afcdfb } 
		.s3 { fill: #cee1fd } 
		.s4 { fill: #9fc1f4 } 
		.s5 { fill: #ff9843 } 
		.s6 { fill: #ffc48a } 
		.s7 { fill: #77a4e5 } 
		.s8 { fill: #f5fbff } 
		.s9 { fill: #bdd1f9 } 
		.s10 { fill: #ffffff } 
		.s11 { fill: #f99746 } 
		.s12 { fill: #ffb27d } 
		.s13 { fill: #233862 } 
		.s14 { fill: #a9453d } 
		.s15 { fill: #ed975d } 
		.s16 { fill: #2a4e96 } 
		.s17 { fill: #5f9aa8 } 
		.s18 { fill: #1e3d70 } 
		.s19 { fill: #ed7d2b } 
		.s20 { fill: #163560 } 
		.s21 { fill: #dfebfd } 
		.s22 { fill: #f9ddbf } 
		.s23 { fill: #f2ccaa } 
		.s24 { fill: #1b3051 } 
		.s25 { fill: #1e3c68 } 
		.s26 { fill: #2b478b } 
		.s27 { fill: #2e3552 } 
	</style>
	<g id="221353356351_1">
		<g id="&lt;Group&gt;">
			<path id="&lt;Path&gt;" class="s0" d="m2982.9 1727.8v0.1q-0.3 0.6-0.7 1.2-2.4 4.3-5 8.8l-2617.8-0.8c0 0-2.5-2.9-7.1-8.3q-0.3-0.5-0.8-1c-11.6-14-35.2-43.5-62.7-85.2q0 0-0.1 0c-73.1-110.6-174.3-306.4-157.3-523.7 4.8-61.4 19-124.4 46-187.8 81.8-192.1 325.7-321.6 545.5-324.2 85.1-1 166.5 17 233.5 57.8 11.9 7.2 26.9 12.8 44.2 16.6 14.7 3.2 31.1 5.1 48.8 5.7 142.8 5.1 374.9-75.4 512.6-277.7 73.1-107.5 185.4-177.8 314.4-214.5q9-2.5 18.1-4.9c29.3-7.5 59.5-13.3 90.1-17.5q8.3-1.1 16.7-2.1c136.1-15.8 281.9 0.5 415.6 45.7q26.5 8.9 52.2 19.3c251.7 102 447.5 310.1 430.3 600.7q-1 17.2-3.1 34.8-3.8 33.6-11.5 68.5-4.6 20.6-10.5 41.7c-103.7 368.4 310.9 385 108.6 746.8z"/>
			<g id="&lt;Group&gt;">
				<path id="&lt;Path&gt;" class="s1" d="m2982.9 1727.8v0.1l-2037.6 0.2 17.6-609v-165.4h76.2v-129.3h152v109.7h46.5v-202.8h10v-14.2h1.9v14.2h36.6v-14.2h1.9v14.2h51.9v-14.2h1.8v14.2h32.7v-14.2h1.8v14.2h13.4v189.3h51.3v-30.6l60.5 0.3v-49.7h12.2v-9.8h1.6v9.8h46.8v0.1h9.3v-9.9h1.6v9.9h11.3v98.6h72v36.4h40.1v-21.1h37.1v-83.8h18.6v-39h2.8v39h44.4v-73.2h4.3v73.2h29.4v-1h-0.1v-9.3h0.1v-8.8h-0.1v-14.6h0.1v-9.3h-0.1v-14.7h0.1v-9.3h-0.1v-14.7h0.1v-10h-0.1v-14.7h0.1v-12.8h-0.1v-14.7h0.1v-9.7h8.7v-10.9h1.4v10.9h64.9v-10.9h1.4v10.9h11.8v76.6h8.3v-14.7-10-14.7-10-14.7h78.7 13.5q1 0.6 2.1 1.2v97.6h14.4v-14.1h166v109.7h50.7v-202.8h11v-14.2h2v14.2h40v-14.2h2v14.2h56.6v-14.2h2v14.2h35.7v-14.2h2v14.2h14.6v189.3h56v-30.6l66.1 0.3v-49.7h13.3v-9.8h1.7v9.8h51v0.1h10.2v-9.9h1.8v9.9h12.3v98.6h78.6v36.4h43.8v-21.1h40.5v-83.8h20.2v-39h3.1v39h48.4v-73.2h4.8v73.2h23.8q-3.8 33.6-11.5 68.5-4.6 20.6-10.5 41.7c-103.7 368.4 310.9 385 108.6 746.8z"/>
			</g>
			<path id="&lt;Path&gt;" class="s2" d="m2469.1 235.4v1492.4h-52.2v-1511.8q26.5 8.9 52.2 19.4z"/>
			<path id="&lt;Path&gt;" class="s3" d="m1000.6 681.3v1047.5h-648.3q-0.3-0.5-0.8-1c-11.6-14-35.2-43.5-62.7-85.2q0 0-0.1 0c-73.1-110.6-174.3-306.4-157.3-523.7 4.8-61.4 19-124.4 46-187.8 81.8-192.1 325.7-321.6 545.5-324.2 84.3 1 164.6 19.1 231.3 57.8 12.5 7.2 28.2 12.8 46.4 16.6z"/>
			<g id="&lt;Group&gt;">
				<path id="&lt;Path&gt;" class="s4" d="m2001.3 170.3v183.8c0 14.3-3.5 26-7.8 26h-1.1c-4.3 0-7.8-11.7-7.8-26v-181.7q8.3-1.1 16.7-2.1z"/>
				<path id="&lt;Path&gt;" class="s5" d="m2098.3 451.9h-219.4c0-64.1 49.2-116 109.7-116 60.6 0 109.7 51.9 109.7 116z"/>
				<path id="&lt;Path&gt;" class="s6" d="m1935.5 451.9h-19.2c0-63.9 32-115.6 71.4-115.6q4.9 0 9.7 1c-34.9 7.6-61.9 56-61.9 114.6z"/>
			</g>
			<g id="&lt;Group&gt;">
				<g id="&lt;Group&gt;">
					<path id="&lt;Path&gt;" class="s7" d="m2711 1556.8c0 0-29.2-34.1-1.8-55.7 0 0 20-12.1 36.3-11.1 0 0-23.1 38.7-15.7 42.6 7.5 3.8 22.7-45.1 22.7-45.1 0 0 45.5-4.4 60.2 2.7 0 0-39 31.8-30.8 33.7 8.2 1.9 50.3-29.4 50.3-29.4 0 0 42.3 7.3 40.1 33.1-2.3 25.8-16.9 33.8-23.3 33.1-6.4-0.6-44-15-44.8-9.7-0.8 5.2 21.8 22.4 37.6 23.2 0 0-29.8 33-49.7 23.5-19.8-9.5-21.5-24.6-33.9-30.3-12.4-5.6-23-5.6-17.9 0.2 5.2 5.7 27.6 11.3 34.6 23.8 7.1 12.6 13.5 21-7.1 17.9-20.5-3.1-53.9-18.1-55.4-35.3-1.4-17.2-1.4-17.2-1.4-17.2z"/>
					<g id="&lt;Group&gt;">
						<path id="&lt;Path&gt;" class="s7" d="m2712.4 1574c-7.1 1.3-27.1 22.3-27.1 22.3l2.7-7.4c17.3-15.3 23-32.1 23-32.1 25.4-32.9 140.5-28.5 140.5-28.5-150.2 4.9-139.1 45.7-139.1 45.7z"/>
						<path id="&lt;Path&gt;" class="s7" d="m2688.3 1593.3c-14.3 13.2-22.2 47-22.2 47l-4.5-0.4c1.7-32.7 26.4-51 26.4-51 0 0 14.5-8.8 0.3 4.4z"/>
					</g>
				</g>
				<g id="&lt;Group&gt;">
					<path id="&lt;Path&gt;" class="s7" d="m2600.2 1532.5c-8.6 18.6-52 21.7-76.1 16.7-24.2-4.9-13.6-11.7-0.6-22.8 13-11 40.2-8.1 48.3-12.4 8-4.4-3.8-8.7-19.9-7.5-16 1.3-24.1 17.4-50.1 19.8-26 2.5-45.8-46.4-45.8-46.4 17.9 5.6 50.1-4.3 51.4-10.5 1.2-6.2-46.5-5.6-53.9-7.5-7.4-1.8-20.4-16.7-12.4-46.4 8.1-29.7 58.2-20.4 58.2-20.4 0 0 34.1 52 44 53.2 9.9 1.3-20.5-50.1-20.5-50.1 19.2-1.9 68.2 21.6 68.2 21.6 0 0-3.1 60.7 6.8 59.5 9.9-1.3 0-53.9 0-53.9 18.5 5.6 35.9 27.3 35.9 27.3 21.6 35.3-24.8 61.3-24.8 61.3 0 0 0 0-8.7 18.5z"/>
					<g id="&lt;Group&gt;">
						<path id="&lt;Path&gt;" class="s7" d="m2464 1424.8c0 0 130 42.1 144.9 89.2 0 0-0.6 21 12.4 45.1v9.3c0 0-13.6-31.5-21.1-35.9 0 0 29.1-40.8-136.2-107.7z"/>
						<path id="&lt;Path&gt;" class="s7" d="m2621.3 1559.1c0 0 20 30.5 8.6 67.6l-5.2-1.4c0 0 5.1-40.9-5.4-61.4-10.5-20.5 2-4.8 2-4.8z"/>
					</g>
				</g>
				<g id="&lt;Group&gt;">
					<path id="&lt;Path&gt;" class="s4" d="m2682.8 1478.1c0 0-61.2-34.3-32.7-80.8 0 0 22.9-28.6 47.4-35.9 0 0-13.1 69.4 0 71 13 1.6 8.9-78.4 8.9-78.4 0 0 64.5-31 89.8-28.5 0 0-40 67.7-26.9 66.1 13-1.6 57.9-70.2 57.9-70.2 0 0 66.1-12.2 76.7 26.9 10.6 39.2-6.5 58.8-16.3 61.2-9.8 2.5-72.6 1.7-71 9.8 1.6 8.2 44.1 21.3 67.7 13.9 0 0-26.1 64.5-60.3 61.2-34.3-3.3-44.9-24.5-66.1-26.1-21.3-1.6-36.8 4.1-26.2 9.8 10.6 5.7 46.6 1.9 63.7 16.4 17.1 14.6 31 23.6-0.8 30.1-31.9 6.5-89 2.5-100.4-22-11.4-24.5-11.4-24.5-11.4-24.5z"/>
					<g id="&lt;Group&gt;">
						<path id="&lt;Path&gt;" class="s4" d="m2694.2 1502.6c-9.8 5.7-27.7 47.3-27.7 47.3v-12.2c17.1-31.9 16.3-59.6 16.3-59.6 19.6-62 190.9-117.5 190.9-117.5-217.9 88.1-179.5 142-179.5 142z"/>
						<path id="&lt;Path&gt;" class="s4" d="m2669.1 1544c-13.8 27-7.2 80.8-7.2 80.8l-6.8 1.9c-15.1-48.9 11.4-89 11.4-89 0 0 16.4-20.8 2.6 6.3z"/>
					</g>
				</g>
				<path id="&lt;Path&gt;" class="s4" d="m2560.8 1612.7h239.8c0 66.2-53.7 119.9-119.9 119.9-66.2 0-119.9-53.7-119.9-119.9z"/>
				<path id="&lt;Path&gt;" class="s2" d="m2710.2 1731.7q-7.3 0.9-14.9 0.9c-66.2 0-119.9-53.7-119.9-119.9h29.8c0 61.2 45.8 111.6 105 119z"/>
				<path id="&lt;Path&gt;" class="s4" d="m2803.3 1616.4h-246.4v-3.7h246.4z"/>
			</g>
			<g id="&lt;Group&gt;">
				<g id="&lt;Group&gt;">
					<path id="&lt;Path&gt;" class="s7" d="m2122.6 1726.7l-117.8-489 8.2-19.2 116.7 508.1c0.3 1.3-0.7 2.6-2 2.6h-2c-1.5 0-2.8-1-3.1-2.5z"/>
				</g>
				<g id="&lt;Group&gt;">
					<g id="&lt;Group&gt;">
						<path id="&lt;Path&gt;" class="s7" d="m1590.9 1729.2c-2.4 0-4.3-2.2-3.9-4.6l34.7-210.3h14.9l-41.4 211.3c-0.4 2.1-2.2 3.6-4.3 3.6z"/>
					</g>
					<g id="&lt;Group&gt;">
						<path id="&lt;Path&gt;" class="s7" d="m1923.7 1729.2c-2.4 0-4.2-2.2-3.8-4.6l34.7-210.3h14.8l-41.3 211.3c-0.5 2.1-2.3 3.6-4.4 3.6z"/>
					</g>
					<path id="&lt;Path&gt;" class="s8" d="m2004.4 1514.8h-414.4l85.9-538.3h414.4z"/>
					<path id="&lt;Path&gt;" class="s7" d="m2035.4 1526.5h-475.9v-15.9h475.9z"/>
					<g id="&lt;Group&gt;">
						<path id="&lt;Path&gt;" class="s9" d="m1840 1089.1q-0.5 6.4-1.8 12.5c-8.7 38.5-42.9 68-81.6 68.1-42.9 0-74.9-35.9-71.7-80.3 3.3-44.4 40.7-80.5 83.5-80.5 9-0.1 17.5 1.5 25.3 4.4q5.3 2 10.1 4.7c6.9 3.9 13.1 9 18.3 15q4.3 5 7.7 10.8 2 3.4 3.6 7c3.1 6.6 5.1 13.9 6.1 21.5q0.8 5.7 0.7 11.8 0 2.5-0.2 5z"/>
						<path id="&lt;Path&gt;" class="s10" d="m1833.4 1050.8l-70.9 38.5c0 0 29.3-51.6 41.3-71.3 6.9 3.9 13.1 9 18.3 15q4.3 5 7.7 10.8 2 3.4 3.6 7z"/>
						<path id="&lt;Path&gt;" class="s11" d="m1840.8 1041l-64.8 35.2c0 0 26.7-47.1 37.7-65.1 6.4 3.6 12 8.2 16.7 13.7q4 4.6 7.1 9.9 1.8 3.1 3.3 6.3z"/>
					</g>
					<g id="&lt;Group&gt;">
						<g id="&lt;Group&gt;">
							<path id="&lt;Compound Path&gt;" fill-rule="evenodd" class="s9" d="m1971.4 1473.8h-341l34.5-196.8h341.1zm-338.4-2l336.3 0.1 33.9-192.9h-336.3z"/>
						</g>
						<g id="&lt;Group&gt;">
							<path id="&lt;Path&gt;" class="s11" d="m1951.1 1446.8h-302.5c0 0 53.7-28.7 68.4-27.2 14.7 1.5 35.9 13.1 49.5 13.6 13.6 0.4 28.3-40.4 43.4-38.5 15.2 1.9 20.9 38.1 28.7 34.5 7.9-3.5 31.4-5 45 0 13.5 5.1 33.3-16 45.2-15.4 11.9 0.7 22.3 33 22.3 33z"/>
							<g id="&lt;Group&gt;">
								<path id="&lt;Path&gt;" class="s11" d="m1721.3 1389h-57.7l0.5-3.1h57.8z"/>
								<path id="&lt;Path&gt;" class="s11" d="m1720.2 1395.6l-57.8-0.1 0.5-3h57.8z"/>
							</g>
						</g>
						<g id="&lt;Group&gt;">
							<path id="&lt;Path&gt;" class="s9" d="m1699.8 1315.1c12.1-0.6 24.5 20.5 39.8 15.5 15.4-5.1 38.4-3.6 45 0 6.6 3.5 25-32.6 40.8-34.5 15.8-2 16.2 38.9 29.9 38.4 13.8-0.4 39-12.1 54.3-13.6 15.3-1.5 58.8 27.3 58.8 27.3h-302.5c0 0 21.7-32.4 33.9-33.1z"/>
							<g id="&lt;Group&gt;">
								<path id="&lt;Path&gt;" class="s9" d="m1737.7 1296h-57.8l0.5-3.1h57.8z"/>
								<path id="&lt;Path&gt;" class="s9" d="m1736.5 1302.5h-57.8l0.6-3h57.7z"/>
							</g>
						</g>
					</g>
					<g id="&lt;Group&gt;">
						<path id="&lt;Path&gt;" class="s9" d="m1685.5 1249.6h-13.3l11.6-62.2h13.2z"/>
						<path id="&lt;Path&gt;" class="s9" d="m1703.6 1249.6h-13.3l9-48.2h13.2z"/>
						<path id="&lt;Path&gt;" class="s9" d="m1721.7 1249.6h-13.3l9.3-50.3h13.3z"/>
						<path id="&lt;Path&gt;" class="s9" d="m1739.7 1249.6h-13.2l7.1-38.2h13.2z"/>
						<path id="&lt;Path&gt;" class="s9" d="m1757.8 1249.6h-13.3l7.6-41h13.3z"/>
						<path id="&lt;Path&gt;" class="s9" d="m1775.9 1249.6h-13.3l5.9-31.8h13.3z"/>
					</g>
					<g id="&lt;Group&gt;">
						<path id="&lt;Path&gt;" class="s11" d="m1863 1249.6h-13.3l11.6-62.2h13.2z"/>
						<path id="&lt;Path&gt;" class="s11" d="m1881.1 1249.6h-13.3l8.9-48.2h13.3z"/>
						<path id="&lt;Path&gt;" class="s11" d="m1899.2 1249.6h-13.3l9.3-50.3h13.3z"/>
						<path id="&lt;Path&gt;" class="s11" d="m1917.2 1249.6h-13.2l7-38.2h13.3z"/>
						<path id="&lt;Path&gt;" class="s11" d="m1935.3 1249.6h-13.3l7.6-41h13.3z"/>
						<path id="&lt;Path&gt;" class="s11" d="m1953.4 1249.6h-13.3l5.9-31.8h13.3z"/>
					</g>
					<g id="&lt;Group&gt;">
						<g id="&lt;Group&gt;">
							<path id="&lt;Path&gt;" class="s9" d="m1926.9 1046.6h-43.2l1.1-5.9h43.2z"/>
							<path id="&lt;Path&gt;" class="s9" d="m1979.9 1046.6h-47.7l1.1-5.9h47.7z"/>
							<path id="&lt;Path&gt;" class="s9" d="m2013.9 1046.6h-30.4l1.1-5.9h30.4z"/>
							<path id="&lt;Path&gt;" class="s9" d="m2042.3 1046.6h-23.5l1.1-5.9h23.5z"/>
						</g>
						<g id="&lt;Group&gt;">
							<path id="&lt;Path&gt;" class="s9" d="m1922.2 1071.8h-43.2l1.1-5.9h43.2z"/>
							<path id="&lt;Path&gt;" class="s9" d="m1975.1 1071.8h-47.7l1.2-5.9h47.6z"/>
							<path id="&lt;Path&gt;" class="s9" d="m2009.1 1071.8h-30.4l1.1-5.9h30.4z"/>
							<path id="&lt;Path&gt;" class="s9" d="m2037.5 1071.8h-23.5l1.2-5.9h23.4z"/>
						</g>
						<g id="&lt;Group&gt;">
							<path id="&lt;Path&gt;" class="s9" d="m1952.6 1032.8h-66.3l1.1-5.9h66.3z"/>
							<path id="&lt;Path&gt;" class="s9" d="m1997.1 1032.8h-38.2l1.1-5.9h38.2z"/>
							<path id="&lt;Path&gt;" class="s9" d="m2044.9 1032.8h-42.4l1.1-5.9h42.4z"/>
						</g>
						<g id="&lt;Group&gt;">
							<path id="&lt;Path&gt;" class="s9" d="m1947.5 1059.6h-66.2l1.1-5.9h66.2z"/>
							<path id="&lt;Path&gt;" class="s9" d="m1992 1059.6h-38.2l1.1-5.9h38.2z"/>
							<path id="&lt;Path&gt;" class="s9" d="m2039.8 1059.6h-42.4l1.1-5.9h42.4z"/>
						</g>
						<g id="&lt;Group&gt;">
							<path id="&lt;Path&gt;" class="s9" d="m1917.4 1097.1h-43.2l1.1-5.9h43.2z"/>
							<path id="&lt;Path&gt;" class="s9" d="m1970.4 1097.1h-47.7l1.1-5.9h47.7z"/>
							<path id="&lt;Path&gt;" class="s9" d="m2004.4 1097.1h-30.4l1.1-5.9h30.4z"/>
							<path id="&lt;Path&gt;" class="s9" d="m2032.8 1097.1h-23.5l1.1-5.9h23.5z"/>
						</g>
						<g id="&lt;Group&gt;">
							<path id="&lt;Path&gt;" class="s9" d="m1942.8 1084.9h-66.3l1.1-5.9h66.3z"/>
							<path id="&lt;Path&gt;" class="s9" d="m1987.3 1084.9h-38.2l1.1-5.9h38.2z"/>
							<path id="&lt;Path&gt;" class="s9" d="m2035.1 1084.9h-42.4l1.1-5.9h42.4z"/>
						</g>
						<g id="&lt;Group&gt;">
							<path id="&lt;Path&gt;" class="s9" d="m1913 1120.8h-43.2l1.1-6h43.2z"/>
							<path id="&lt;Path&gt;" class="s9" d="m1965.9 1120.8h-47.6l1.1-6h47.7z"/>
							<path id="&lt;Path&gt;" class="s9" d="m1999.9 1120.8h-30.4l1.1-6h30.5z"/>
							<path id="&lt;Path&gt;" class="s9" d="m2028.3 1120.8h-23.4l1.1-6h23.4z"/>
						</g>
						<g id="&lt;Group&gt;">
							<path id="&lt;Path&gt;" class="s9" d="m1938.3 1108.5h-66.2l1.1-5.9h66.2z"/>
							<path id="&lt;Path&gt;" class="s9" d="m1982.8 1108.5h-38.2l1.2-5.9h38.2z"/>
							<path id="&lt;Path&gt;" class="s9" d="m2030.7 1108.5h-42.5l1.1-5.9h42.5z"/>
						</g>
					</g>
					<g id="&lt;Group&gt;">
						<path id="&lt;Path&gt;" class="s9" d="m1814.7 1196.6h-21.2l0.6-2.9h21.1z"/>
						<path id="&lt;Path&gt;" class="s9" d="m1840.6 1196.6h-23.3l0.5-2.9h23.4z"/>
						<path id="&lt;Path&gt;" class="s9" d="m1812.4 1209h-21.2l0.6-2.9h21.1z"/>
						<path id="&lt;Path&gt;" class="s9" d="m1838.3 1209h-23.4l0.6-2.9h23.3z"/>
						<path id="&lt;Path&gt;" class="s9" d="m1827.2 1189.9h-32.4l0.5-2.9h32.5z"/>
						<path id="&lt;Path&gt;" class="s9" d="m1849 1189.9h-18.7l0.6-2.9h18.7z"/>
						<path id="&lt;Path&gt;" class="s9" d="m1824.8 1203h-32.5l0.6-2.9h32.4z"/>
						<path id="&lt;Path&gt;" class="s9" d="m1846.6 1203h-18.7l0.5-2.9h18.7z"/>
					</g>
					<g id="&lt;Group&gt;">
						<path id="&lt;Path&gt;" class="s9" d="m1984 1196.6h-21.1l0.5-2.9h21.2z"/>
						<path id="&lt;Path&gt;" class="s9" d="m2010 1196.6h-23.4l0.6-2.9h23.3z"/>
						<path id="&lt;Path&gt;" class="s9" d="m1981.7 1209h-21.1l0.5-2.9h21.1z"/>
						<path id="&lt;Path&gt;" class="s9" d="m2007.6 1209h-23.3l0.5-2.9h23.4z"/>
						<path id="&lt;Path&gt;" class="s9" d="m1996.6 1189.9h-32.4l0.5-2.9h32.4z"/>
						<path id="&lt;Path&gt;" class="s9" d="m2018.4 1189.9h-18.7l0.5-2.9h18.7z"/>
						<path id="&lt;Path&gt;" class="s9" d="m1994.1 1203h-32.4l0.5-2.9h32.5z"/>
						<path id="&lt;Path&gt;" class="s9" d="m2015.9 1203h-18.7l0.6-2.9h18.6z"/>
					</g>
				</g>
			</g>
			<g id="&lt;Group&gt;">
				<g id="&lt;Group&gt;">
					<path id="&lt;Path&gt;" class="s12" d="m2096.5 1721.2c-0.7 10.1-15 10.2-31.2 8.4-16.2-1.9-11.9 2.2-34.6 2.5-22.7 0.3-30.5-7.2-31.6-10.4-1-2.9 10-5.3 21.6-8.2q2.3-0.5 4.5-1.1c13.1-3.3 21.9-13.2 33.1-21.8 10.7-8.1 24.5-37.7 24.5-37.7l31-1.4c0 0-13.1 26.5-18 37.9-2.9 6.7-1.6 15-0.4 21.3 0.7 3.4 1.4 6.9 1.1 10.5z"/>
					<path id="&lt;Path&gt;" class="s13" d="m2065.3 1729.6c-16.2-1.9-11.9 2.2-34.6 2.5-22.7 0.3-30.5-7.2-31.6-10.4-1-2.9 10-5.3 21.6-8.2l0.2 0.2c0 0 14.6 7.9 33.3 6 15.2-1.5 30.7-7.9 41.2-9 0.7 3.4 1.4 6.9 1.1 10.5-0.7 10.1-15 10.2-31.2 8.4z"/>
				</g>
				<g id="&lt;Group&gt;">
					<path id="&lt;Path&gt;" class="s12" d="m2310.5 1723.3c-0.8 10.1-15 10.3-31.2 8.4-16.2-1.9-11.9 2.2-34.6 2.6-22.7 0.3-30.5-7.2-31.6-10.4-1-2.9 9.9-5.3 21.6-8.2q2.2-0.5 4.4-1.1c13.2-3.4 21.9-13.2 33.2-21.9 10.7-8.1 0-56.5 0-56.5l34.1-3.3c0 0-1.7 40.7-1.6 59.2 0 7.3 3.3 14.4 4.6 20.7 0.7 3.4 1.3 6.9 1.1 10.5z"/>
					<path id="&lt;Path&gt;" class="s13" d="m2279.3 1731.7c-16.2-1.9-11.9 2.2-34.6 2.6-22.7 0.3-30.5-7.2-31.6-10.4-1-2.9 9.9-5.3 21.6-8.2l0.2 0.2c0 0 14.6 7.8 33.2 5.9 15.3-1.5 30.8-7.9 41.3-9 0.7 3.4 1.3 6.9 1.1 10.5-0.8 10.1-15 10.3-31.2 8.4z"/>
				</g>
				<path id="&lt;Path&gt;" class="s14" d="m2211 887.6c-5.8-24.2 2.7-35.4 10.3-41.4 3.7-8.9 7.8-15.3 12.1-17.7 7.7-4.4 17-4.9 23.5-4.5-1.7-1.7-5-2.3-5-2.3 4.1-0.6 13 3.3 13 3.3 56-21.5 64.8 60.9 63.7 80.1-1.2 19.1-1 41.7 28.1 56.8 55.6 28.8-18.5 137.3-18.5 137.3 1.4-15.5-70-97.2-107.3-121.6-9-13.4-12.3-37-12.5-38.8 1.6 18.7 4.8 29.2 7.6 35.1-17-15.7-19.5-53.2-15-86.3z"/>
				<path id="&lt;Path&gt;" class="s12" d="m2236.1 957.6c0-12.3-1-25.3-1-25.3l41.4-8.2 2.5-0.5c-0.1 32.2 1.5 39.7 6.9 40.7 0.2 0.1-8.2 16.8-21.1 20.3-13.7 3.7-31.8-5.7-31.7-5.8 2.4-1.1 3-10.9 3-21.2z"/>
				<path id="&lt;Path&gt;" class="s15" d="m2276.5 924.1c-5 11.7-17.2 32.8-40.4 33.5 0-12.3-1-25.3-1-25.3z"/>
				<path id="&lt;Path&gt;" class="s16" d="m2172.2 1208.8l132.9-1c-3.6 33-7.5 64-21.1 111.1q-1 3.7-2.2 7.5c-2.3 7.9-5 16.3-7.9 25.1-18.4 55.9-53.3 117.5-70.2 166.6q-1.2 3.5-2.2 6.9c-25.5 81.2-67.6 137-81.2 153.8-2.8 3.3-6.8 5.2-11.1 5l-17.1-0.5-16.2-0.7c-6.7-0.3-11.2-6.9-9.2-13.3 77.6-243 105.5-460.5 105.5-460.5z"/>
				<path id="&lt;Path&gt;" class="s10" d="m2171.6 1050.1c1.8-32.5 26.5-53.1 38.7-74.3 0 0 11.5-7.5 25.8-15.5-0.7 6.3 3.7 12 17.2 12.3 11.7 0.3 25.2-5.4 29.6-10.9 19.1 7.2 36.4 14.5 54.8 18.7 0 0-12.3 37.8-16.4 83.2-1.5 17.2-1.5 35.4 1.7 53 1.7 9.4 5.6 22.3 19.8 52.9 1.1 2.4 10.5 44.7 11.7 47.3 0 0-47.6 13.4-48.4 13.7-67.6 21.3-124.5-7.6-124.5-7.6 0 0 9.6-27.2 9.2-90.4 0-1.8-19.6-74.4-19.2-82.4z"/>
				<path id="&lt;Path&gt;" class="s17" d="m2285.9 1045.7c4.5-38.8 18.5 4.6 19.2 7.2 0 0 6.9 11.1 16.2 27.4-1.5 19.9-1.5 41.1 1.7 61.5 1.7 11 12.5 26.6 26.8 62.2-27.7-6.3-38.9-56.2-44.7-64.5-6.5-9.2-23.7-55.1-19.2-93.8z"/>
				<path id="&lt;Path&gt;" class="s12" d="m2209.8 874c2.8-11.4 9.6-24.4 44.6-22.4 35 2.1 27.9 24.9 27.8 59.1 0 34.1-54.8 33.2-54.8 33.2-14.3-1.1-20.4-58.5-17.6-69.9z"/>
				<path id="&lt;Path&gt;" class="s14" d="m2279.2 858c3.6 24.5 21.3 38.5 21.3 38.5 0 0-10 6.2-33 0.3-23.1-5.9-38.1-46-38.1-46 11.3-19.1 49.8 7.2 49.8 7.2z"/>
				<path id="&lt;Path&gt;" class="s14" d="m2233.1 854c0 0-11.2 9-13.9 17.7-2.7 8.7-4 26.6-9.2 26 0 0-11.3-27.3 1.4-42.7 13.5-16.3 21.7-1 21.7-1z"/>
				<path id="&lt;Path&gt;" class="s12" d="m2172.8 1191.5l-42.8 69.7-14.7-5.9 25.8-78.9z"/>
				<path id="&lt;Path&gt;" class="s11" d="m2165.6 1198c-15.5-1-30.9-13.9-30.9-13.9 0 0 4-10.3 9.3-23.4 5.4-13 18.8-139.6 27.6-158.5 8.8-18.9 39.3-31 39.3-31 0 0-29.8 227.7-45.3 226.8z"/>
				<path id="&lt;Path&gt;" class="s11" d="m2236.1 960.3c0 0-31.7 78.3-32.6 94.2-0.9 15.8-3.7 259.3-3.7 259.3 0 0 1.8 11.2-19.6 6.5-21.5-4.7-27.1-9.3-27.1-9.3 0 0 20.5-150.2 14.9-202.4-5.6-52.2 42.9-137.4 42.9-137.4z"/>
				<path id="&lt;Path&gt;" class="s18" d="m2187.5 1488.7c18.2-89.5 77-184.7 77-184.7l19.5 14.9q-1 3.7-2.2 7.5c-2.3 7.9-5 16.3-7.9 25.1-18.4 55.9-53.3 117.5-70.2 166.6q-1.2 3.5-2.2 6.9c-26.2 83.3-69.8 139.9-82.2 155-2.2 2.6-5.3 4-8.7 3.9l-18.5-0.6c16.3-23.2 79.6-116.8 95.4-194.6z"/>
				<path id="&lt;Path&gt;" class="s16" d="m2249.4 1278.8l114.8 11.2q0 4.7-0.1 9.6-0.1 5-0.3 10.2c-1.1 22.2-4 48.4-8.1 79.7-4.2 31.1-9.5 67.3-15.6 109.4-7.2 50.4-17.1 108.7-30.9 178.8-0.4 2.5-2.6 4.3-5.1 4.3q-4.3 0.1-13.1 0.1h-13.9c-4.1 0-7.6-3.1-8-7.2-5.1-44.9-7-136.7-6.7-177.9 0.2-25.3-11.6-141.9-13-218.2z"/>
				<path id="&lt;Path&gt;" class="s18" d="m2338.3 1415.9c10.2-71.8-16.7-81.3-16.7-81.3l42.2-24.8c-1.1 22.2-4 48.4-8.1 79.7-4.2 31.1-9.5 67.3-15.6 109.4-7.2 50.2-17 108.2-30.7 177.9-0.6 3-3.2 5.2-6.2 5.2q-4.3 0.1-12.2 0.1c14.3-10.1 37-194.4 47.3-266.2z"/>
				<path id="&lt;Path&gt;" class="s11" d="m2246.4 1059.2c1.9-19.6 36.5-97.3 36.5-97.3l23.2 45c0.7 8.2 2.7 19.6 5.7 33.3 10.5 48.9 32.8 126.4 50.8 186.5 14.8 49.6 26.8 87.4 26.8 87.4 0 0-39.8 16.8-67.8 20.5-27.9 3.7-36-25.5-36-25.5 0 0-41.1-230.4-39.2-249.9z"/>
				<path id="&lt;Path&gt;" class="s12" d="m2313.5 1056.2l-30.6-94.3c0 0 38.7 11.5 58.1 21.3 0 0 12.1 15.6 19.6 51.7 0 0 8 86.7-9.7 118.5 0 0-56 11.1-145.5-19.6v-20.6c0 0 97.9 5.2 117.9 7.5z"/>
				<path id="&lt;Path&gt;" class="s19" d="m2311.8 1040.2c10.5 48.9 32.8 126.4 50.8 186.5q-0.3-0.2-0.6-0.3c-66.5-32.9-73.9-94.5-75.2-126.2-0.7-17.5 12.8-41.7 25-60z"/>
				<path id="&lt;Path&gt;" class="s11" d="m2282.9 961.9c0 0 56.8 4 70.4 34.5 13.7 30.4 18.1 131.8 0.7 161.6 0 0-24 6.8-66.4-1.1q-0.8-0.1-1.6-0.3c0 0-13.5-33.1-1.4-39.6 0 0 35.8 1.8 32.1-10-3.8-11.8-33.8-145.1-33.8-145.1z"/>
				<g id="&lt;Group&gt;">
					<path id="&lt;Path&gt;" class="s14" d="m2233.7 1096.9c0 0 1.6 0 2.3 2.1 0.6 1.9-0.7 3.3-0.7 3.3l-93.2 29-1.6-5.4z"/>
					<path id="&lt;Path&gt;" class="s14" d="m2133.7 1131l6.8-5.1 1.6 5.4z"/>
				</g>
				<path id="&lt;Path&gt;" class="s12" d="m2131.5 1258.5c-3.4 4.2-4.8 19.5-8.2 21.4-3.4 1.9-8.4 11.5-10 10.6-1.5-0.9 1.6-7.2 1.6-10.6 0-3.4-4.4 1.3-7.5 2.8-3.1 1.6-8.7 23.6-12.4 24-3.8 0.3-5.9-20.6-2.8-30.5 3.1-10 26.7-23 26.7-23 0 0 15.9 1.2 12.6 5.3z"/>
				<path id="&lt;Path&gt;" class="s12" d="m2205.4 1133.8c-19.5 0-22.6-4.7-26.8-7.3-4.2-2.5-13 1.2-23.9-2.4-10.8-3.5 11.8-19.9 20.6-21.9 8.9-2 30.1 11 30.1 11 0 0 19.4 20.5 0 20.6z"/>
			</g>
			<g id="&lt;Group&gt;">
				<g id="&lt;Group&gt;" style="opacity: .6">
					<g id="&lt;Group&gt;">
						<path id="&lt;Path&gt;" class="s7" d="m1181.4 1729.2h-0.3c-2.1 0-3.7-1.7-3.7-3.8l5.5-240.6 16.4-1.9-13.9 242.5c-0.2 2.1-1.9 3.8-4 3.8z"/>
					</g>
					<g id="&lt;Group&gt;">
						<path id="&lt;Path&gt;" class="s7" d="m1086.1 1729.2h-0.3c-2.1 0-3.7-1.7-3.7-3.8l5.6-240.6 16.3-1.9-13.9 242.5c-0.2 2.1-1.9 3.8-4 3.8z"/>
					</g>
					<g id="&lt;Group&gt;">
						<path id="&lt;Path&gt;" class="s7" d="m1345.1 1725.4l-13.9-242.5 16.3 1.9 5.6 240.6c0 2.1-1.6 3.8-3.7 3.8h-0.3c-2.1 0-3.9-1.7-4-3.8z"/>
					</g>
					<path id="&lt;Path&gt;" class="s7" d="m1075.3 1469.9v-164.9c0-29 23.5-52.5 52.5-52.5h118.8c29 0 52.5 23.5 52.5 52.5v171.2z"/>
					<path id="&lt;Path&gt;" class="s7" d="m1320.4 1495.9h-229.3c-8.8 0-15.8-7-15.8-15.8v-10.2h245.1z"/>
					<path id="&lt;Path&gt;" class="s7" d="m1347.9 1495.9h-173.5c-6.5 0-11.7-5.2-11.7-11.6v-2.7c0-6.5 5.2-11.7 11.7-11.7h173.5c6.4 0 11.7 5.2 11.7 11.7v2.7c0 6.4-5.3 11.6-11.7 11.6z"/>
				</g>
				<g id="&lt;Group&gt;">
					<path id="&lt;Path&gt;" class="s12" d="m1477.5 1624.4c0.4-5.3 0.6-12.3-2.5-17.5-5.2-9-18.8-29.5-18.8-29.5l25.8-2c0 0 14.4 22.9 24.1 28.6 10.2 5.9 18.4 13.2 29.7 14.6q1.9 0.2 3.7 0.5c10 1.1 19.3 2 18.8 4.5-0.6 2.7-6.3 9.8-25.1 11.8-18.8 2.1-15.6-1.7-28.8 1.5-13.2 3.2-25 4.6-26.7-3.7-0.6-2.9-0.4-5.9-0.2-8.8z"/>
					<path id="&lt;Path&gt;" class="s13" d="m1477.7 1633.2c-0.6-2.9-0.4-5.9-0.2-8.8 8.8-0.1 22.3 3.5 35.1 3.2 15.6-0.4 26.9-8.4 26.9-8.4v-0.1c10 1.1 19.3 2 18.8 4.5-0.6 2.7-6.3 9.8-25.1 11.8-18.8 2.1-15.6-1.7-28.8 1.5-13.2 3.2-25 4.6-26.7-3.7z"/>
					<path id="&lt;Path&gt;" class="s12" d="m1262.8 1664.3c4.3-3.2 12.3-7.1 14.2-12.8 3.2-9.9 7-34.2 7-34.2l28.8 3.6c0 0-17.9 40.4-15.7 51.3 2.2 11.6 2.2 22.6 8.6 32q1.1 1.5 2.2 3.1c5.7 8.2 11.2 15.8 9 17-2.5 1.4-11.5 1.8-25.5-10.9-14-12.7-9-12.9-20.2-20.7-11.1-7.7-20-15.7-14.9-22.4 1.8-2.4 4.2-4.2 6.5-6z"/>
					<path id="&lt;Path&gt;" class="s13" d="m1256.3 1670.3c1.8-2.4 4.2-4.2 6.5-6 6 6.5 12.1 19.1 20.8 28.4 10.6 11.5 24.1 14.6 24.1 14.6h0.2c5.7 8.2 11.2 15.8 9 17-2.5 1.4-11.5 1.8-25.5-10.9-14-12.7-9-12.9-20.2-20.7-11.1-7.7-20-15.7-14.9-22.4z"/>
					<path id="&lt;Path&gt;" class="s20" d="m1374 1463.9l-26.3 70.8-34.3 92.5c0 0-9.4 0.9-18.3-1.7-8.2-2.3-17.7-8.6-17.7-8.6 0 0 9.6-99.2 27.4-156.2 4.5-14.7 9.7-26.5 15.3-33.2 27.6-32.6 53.9 36.4 53.9 36.4z"/>
					<path id="&lt;Path&gt;" class="s16" d="m1502.9 1596.3c0 0-2.6 3.5-9.8 6.2-6.7 2.5-22.9 2.3-22.9 2.3 0 0-105.4-90.3-117.9-116.6-12.6-26.4-17.6-51.5-30.1-48.9-7.7 1.5-66.9 38-120 38-20.6 0-84.1 0-84.1 0 0 0-1.6 0-1.6 0-9.6-0.2-15.2-4.8-18-12.2-19.3-49.7 15.9-127.8 15.9-127.8l106.7 8.3 7.6 13.3c49.4-9.7 101.3-13 118.6-7.4 38.9 12.5 155.6 244.8 155.6 244.8z"/>
					<path id="&lt;Compound Path&gt;" class="s13" d="m1227.7 1180.5c-31.7 29.6-95.6 90.7-96.1 90.5 0 0-24.8 17.4-43 11-30.4-10.6-56.1-53.5-18.8-105.5 18.6-26 34.1-35.1 28.6-67.5-3-17.6 6-80.6 46.5-85.3 3.4-0.4 23.8-4.6 38.8-1 38.3 9.1 97.2 135.8 44 157.8z"/>
					<path id="&lt;Path&gt;" class="s12" d="m1192.4 1171.1c0.2 0-16.5 10.9-30.1 8.6-12.8-2.1-26.3-18.8-26.1-18.9 5.1-1.5 9.7-7.6 6.5-38.7l2.4 0.2 40.9 4c0 0 0.3 12.7 1.5 24.5 1 10 2.5 19.4 4.9 20.3z"/>
					<path id="&lt;Path&gt;" class="s15" d="m1186 1126.3c0 0 0.3 12.7 1.5 24.5-22.5 1.7-36.4-17.6-42.4-28.5z"/>
					<path id="&lt;Path&gt;" class="s12" d="m1194.6 1136.8c0 0-53 6.1-56.3-26.9-3.4-33.1-12.5-54.5 21.2-59.9 33.7-5.3 41.6 6.6 45.4 17.4 3.8 10.7 3.4 66.9-10.3 69.4z"/>
					<path id="&lt;Path&gt;" class="s13" d="m1198.5 1050.4c0 0-25.5 36.6-47.3 44.6-21.7 8-32 3-32 3 0 0 10.4-14.3 13.8-33.9 1-5.8 5-10.7 10.6-12.6 15.6-5.4 45.6-13.8 54.9-1.1z"/>
					<path id="&lt;Path&gt;" class="s13" d="m1201.4 1049.2c13.8 13.6 5.2 51.2 5.2 51.2 0.8-7.9-4.8-25.8-10.1-32.5-5.4-7-19.1-14.8-19.1-14.8 0 0 9.4-18.4 24-3.9z"/>
					<path id="&lt;Path&gt;" class="s10" d="m1233.2 1258.8c-1.6 107-0.5 84.6-12.2 94.8-2.8 2.4-10.7 3.9-21.2 4.6-32.8 2.2-90.5-3.2-92.7-9.3-7.5-21-2.2-27.5-8.5-59.6q-1-5.2-2.4-11.2c-5.3-22.1-10.4-29.6 8.2-65 17-32.1 35.3-57.8 36.9-56.8 44.7 26.5 47.6 3.8 47.6 3.8 0 0 45 46.5 44.3 98.7z"/>
					<path id="&lt;Path&gt;" class="s16" d="m1347.7 1534.7l-35.1 96.4c0 0-12.7 4.1-21.8 2.7-9.4-1.3-14.5-6.4-14.5-6.4 0 0 10.7-109.7 28.5-166.7z"/>
					<path id="&lt;Path&gt;" class="s10" d="m1188.9 1160.1c0 0 46 7.8 51.4 27.6 5.4 19.8 44.9 128.9 44.9 128.9 0 0-31.1 11.5-41.9 0.7-10.8-10.8-37.6-100.2-37.6-100.2z"/>
					<path id="&lt;Path&gt;" class="s21" d="m1199.8 1358.2c-32.8 2.2-90.5-3.2-92.7-9.3-7.5-21-2.2-27.5-8.5-59.6l15.4-35.1c0 0-2.2 40.1 12.4 53.2 14.7 13 60 25.2 67.1 36.1 3.4 5.2 5.7 10.5 6.3 14.7z"/>
					<g id="&lt;Group&gt;">
						<path id="&lt;Path&gt;" class="s12" d="m1212.3 1336.2l7.1 8.3c0 0-1.6 0.6-4.3 0-2.8-0.7-12.6-9.2-12.6-9.2z"/>
						<path id="&lt;Path&gt;" class="s12" d="m1198.6 1325.4l24.8 6.4c0 0-0.7 1.8-3.5 2.2-2.8 0.4-10.3-0.7-10.3-0.7z"/>
						<path id="&lt;Path&gt;" class="s12" d="m1156.7 1339.1c0 0 35.3-15.8 41.9-13.7 6.7 2.1 23.7 11.1 26.3 14.9 2.7 3.8-13.9-0.5-19.1-0.8-3.3-0.2-11.1 4.4-15 6.6-16.3 9.4-27.6 8.5-27.6 8.5z"/>
					</g>
					<path id="&lt;Path&gt;" class="s10" d="m1114 1251.2c3.9 9.3-32.5 57.6-29.2 61 3.4 3.3 75.8 15 80.3 22.3 4.4 7.2 1.2 22.2 1.2 22.2 0 0-96.3 14-123.4-4.9-24.1-16.8 18.9-142.1 39.1-172.3 9.3-13.9 59.3-23.2 59.3-23.2 0 0-39.7 65.3-27.3 94.9z"/>
					<g id="&lt;Group&gt;">
						<path id="&lt;Path&gt;" class="s12" d="m1338.8 1333.7c0 0 35 9.5 38.6 14.9 3.6 5.4 10.7 22 10.4 26.3-0.3 4.4-9.9-8.5-13.5-11.8-2.3-2.2-10.7-3.4-14.8-4.1-10.4-1.7-15.4-6.4-19.3-8.8-2.6-1.6-5.8-1.3-5.8-1.3z"/>
						<path id="&lt;Path&gt;" class="s12" d="m1381 1364.5l0.3 10.3c0 0-1.6-0.5-3.2-2.7-1.6-2.1-3.7-14-3.7-14z"/>
						<path id="&lt;Path&gt;" class="s12" d="m1377.4 1348.6l14.2 19.3c0 0-1.5 0.9-3.8-0.5-2.2-1.3-7-6.6-7-6.6z"/>
						<path id="&lt;Path&gt;" class="s12" d="m1357.3 1356.9c0 0 5.9 8 4.9 9.5-1.1 1.6-5.8-2.7-12.3-5.5-6.5-2.8-9.7-10.7-9.7-10.7z"/>
					</g>
					<path id="&lt;Path&gt;" class="s10" d="m1275.9 1290.8l73.5 46.5c0 0-7.7 10.3-10.3 11.3-13.6 5-74.9 0.2-95.8-31.3z"/>
					<g id="&lt;Group&gt;">
						<path id="&lt;Path&gt;" class="s22" d="m1246.7 1341.3c4.4 0 47.5-2.9 47.5-2.9 0 0-1.2 7.6 1.5 11.7l-42.1 8-8.7-2.5z"/>
						<g id="&lt;Group&gt;">
							<path id="&lt;Path&gt;" class="s11" d="m1174.7 1348.3l72-7c0 0-2.5 13.4 6.9 16.8l-79.4 5.9c0 0-6.4-9.1 0.5-15.7z"/>
							<path id="&lt;Path&gt;" class="s11" d="m1294.1 1339.3l-48.7 3.7c0 0 0.4-1.6 1.3-1.7 0.9 0 48.4-3.4 48.4-3.4l-0.2 1.3z"/>
							<path id="&lt;Path&gt;" class="s11" d="m1250.4 1357.6l45.7-8.7 0.3 1.1-42.8 8.1z"/>
						</g>
					</g>
				</g>
			</g>
			<g id="&lt;Group&gt;">
				<g id="&lt;Group&gt;">
					<g id="&lt;Group&gt;">
						<path id="&lt;Path&gt;" class="s7" d="m754.8 1728.8h-0.4c-2.3 0-4.1-1.9-4.1-4.2l6.2-268.7 18.1-2.1-15.4 270.8c-0.2 2.4-2.1 4.2-4.4 4.2z"/>
					</g>
					<g id="&lt;Group&gt;">
						<path id="&lt;Path&gt;" class="s7" d="m649 1728.8h-0.4c-2.3 0-4.1-1.9-4.1-4.2l6.2-268.7 18.2-2.1-15.5 270.8c-0.2 2.4-2.1 4.2-4.4 4.2z"/>
					</g>
					<g id="&lt;Group&gt;">
						<path id="&lt;Path&gt;" class="s7" d="m936.5 1724.6l-15.5-270.8 18.2 2.1 6.1 268.7c0.1 2.3-1.7 4.2-4 4.2h-0.4c-2.3 0-4.3-1.8-4.4-4.2z"/>
					</g>
					<path id="&lt;Path&gt;" class="s7" d="m637 1439.3v-184.1c0-32.4 26.1-58.7 58.3-58.7h131.8c32.2 0 58.4 26.3 58.4 58.7v191.1z"/>
					<path id="&lt;Path&gt;" class="s7" d="m909.1 1468.3h-254.6c-9.7 0-17.5-7.8-17.5-17.5v-11.5h272.1z"/>
					<path id="&lt;Path&gt;" class="s7" d="m939.6 1468.3h-192.6c-7.2 0-13-5.8-13-12.9v-3.1c0-7.2 5.8-13 13-13h192.6c7.1 0 12.9 5.8 12.9 13v3.1c0 7.1-5.8 12.9-12.9 12.9z"/>
				</g>
				<g id="&lt;Group&gt;">
					<path id="&lt;Path&gt;" class="s22" d="m882.7 1304.5c3.4 10.7 47.6 43.3 47.6 43.3l-12.5 11.3c-13.4-4.9-47.4 8.7-74.6-23.4-9.6-11.4-22.4-154.9-20.6-173.4 2.4-24.4 13.4-33.8 13.4-33.8 41.8 15.5 33.8 135 46.7 176z"/>
					<path id="&lt;Path&gt;" class="s20" d="m768.1 1091.7c0.6-8.4-39-26.1-40.1-40.5-1.1-14.4 10-50.6 15.9-59.4 5.9-8.9 15.5-17 50.2-11.8 34.7 5.1 34 31.5 34 31.5 0 0-60.7 88.6-60 80.2z"/>
					<path id="&lt;Path&gt;" class="s12" d="m991.9 1697.1c2.1-5.2 4.6-12.1 3.3-18.5-2.2-10.7-8.7-36-8.7-36l26.1 6.7c0 0 6.6 28.1 14.3 37 8.1 9.5 13.8 19.5 24.5 24.8q1.7 0.9 3.5 1.7c9.5 4.5 18.4 8.6 17 10.9-1.5 2.6-9.4 7.7-28.7 3.4-19.2-4.3-14.9-7-29-8.3-14.1-1.2-26.2-3.8-25.1-12.7 0.4-3.2 1.6-6.1 2.8-9z"/>
					<path id="&lt;Path&gt;" class="s13" d="m989.1 1706.1c0.4-3.2 1.6-6.1 2.8-9 8.7 2.9 20.8 11.1 33.5 15.2 15.6 4.9 29.4 0.7 29.4 0.7l0.1-0.2c9.5 4.5 18.4 8.6 17 10.9-1.5 2.6-9.4 7.7-28.7 3.4-19.2-4.3-14.9-7-29-8.3-14.1-1.2-26.2-3.8-25.1-12.7z"/>
					<path id="&lt;Path&gt;" class="s19" d="m793.5 1343.4c0 0 174.7 18.1 203.5 44.8 28.7 26.8 23.6 275.9 23.6 275.9-4.5 4.7-7.8 4.5-14.9 4-6.7-0.5-20.6-6.4-20.6-6.4 0 0-37.4-122.3-37.9-150.6-0.5-28.4-6.4-76.4-18.2-79.3-11.9-2.8-153.3 13.1-168.9-31.6-15.5-44.7 10.3-81.4 10.3-81.4z"/>
					<path id="&lt;Path&gt;" class="s22" d="m715.8 1260.5q-0.4-2.2-0.8-4.3c-10.2-55.8-8.9-121.4 21.9-127.7 0 0 78.7-8.2 99.1 0 20.4 8.2 35.2 74.5 33.7 86.8-1.5 12.4-18.5 50-24 68.5-1.8 6.1 0.4 17.9 3.6 31.7 5 21.1 12.4 46.6 11.3 62.2-0.3 5.1-1.6 9.1-4.2 11.5-9.9 9.4-60.4 14.2-100.9 12.7-22.6-0.8-36.1-8.5-43.6-13.6-21-14.1 15-71.2 3.9-127.8z"/>
					<g id="&lt;Group&gt;">
						<path id="&lt;Path&gt;" class="s12" d="m813.6 1140.6c-0.6 3.6-10.4 9.4-31.4 3.9-20.2-5.3-22.6-11.9-22.6-16.2 0-5.2 8.7-12.1 8.6-43.7l2.4 0.5 40.7 8c0 0-0.9 12.8-1 24.9 0 10.1 4.2 16.6 3.3 22.6z"/>
						<path id="&lt;Path&gt;" class="s15" d="m811.3 1093.1c0 0-0.9 12.8-1 24.9-22.7-0.6-34.7-21.4-39.7-32.9z"/>
						<path id="&lt;Path&gt;" class="s12" d="m818.9 1104.6c0 0-53.8 0.9-53.9-32.7 0-33.5-7-56 27.4-58 34.4-1.9 41 10.8 43.8 22 2.7 11.2-3.3 67.6-17.3 68.7z"/>
						<path id="&lt;Path&gt;" class="s20" d="m816.9 1013.1c0 0-14.7 39.4-37.4 45.2-22.6 5.8-32.4-0.3-32.4-0.3 0 0 17.4-13.8 21-37.8 0 0 37.7-25.8 48.8-7.1z"/>
						<path id="&lt;Path&gt;" class="s20" d="m834.6 1017.3c12.5 15.1 1.4 41.8 1.4 41.8-5.2 0.6-6.4-16.9-9.1-25.5-2.6-8.5-13.6-17.3-13.6-17.3 0 0 8-15.1 21.3 1z"/>
					</g>
					<path id="&lt;Path&gt;" class="s12" d="m859.6 1704.2c1.6-5.5 6.7-15.8 8.3-22 6.1-24.3 10.8-51.9 10.8-51.9l25 12.3c0 0-19 38.8-10.4 46.8 9.1 8.4 15.9 17.8 27 21.8q1.9 0.7 3.8 1.3c9.9 3.4 19.1 6.4 18.1 8.8-1.2 2.8-8.6 8.8-28.2 6.8-19.6-2.1-15.5-5.3-29.7-4.9-14.2 0.4-26.5-0.9-26.4-9.8 0.1-3.2 0.9-6.2 1.7-9.2z"/>
					<path id="&lt;Path&gt;" class="s23" d="m715.8 1260.5q-0.4-2.2-0.8-4.3l31.2-29.7c0 0-0.5 42.4 15 55.2 14.8 12.1 58.6 42.8 88.1 33.8 5 21.1 12.4 46.6 11.3 62.2-25.3 5.9-67.8 15.8-105.1 24.2-22.6-0.8-35-15.2-42.5-20.3-21.1-14 13.9-64.5 2.8-121.1z"/>
					<path id="&lt;Path&gt;" class="s13" d="m857.9 1713.4c0.1-3.2 0.9-6.2 1.7-9.2 9.1 1.8 22 8.6 35.1 11.1 16 3.1 29.2-2.6 29.2-2.6l0.2-0.2c9.9 3.4 19.1 6.4 18.1 8.8-1.2 2.8-8.6 8.8-28.2 6.8-19.6-2.1-15.5-5.3-29.7-4.9-14.2 0.4-26.5-0.9-26.4-9.8z"/>
					<path id="&lt;Path&gt;" class="s11" d="m755.8 1354c44.3-1.2 176.8 9.3 202.2 28.5 31.4 23.6-58.1 279-58.1 279 0 0-10.4 1-13.7 0.7-14.2-1.6-20-6-20-6 0 0 0.4-150.3 10.8-179 9.7-26.6 15.6-36 3.5-37.6-12.1-1.6-163.2 17.7-175.8-27.9-9.8-35.6 4.7-68.6 4.7-68.6 0 0 5.5 12.1 46.4 10.9z"/>
					<path id="&lt;Path&gt;" class="s22" d="m737.6 1285.4c-1.5 11 95.2 59.7 95.2 59.7l-3.7 15.2c-13.3-4.9-103.8-11.7-131-43.8-9.7-11.4 3.7-142.5 5.6-161 2.4-24.4 33.2-27 33.2-27 29.5-4.4 2.2 145.8 0.7 156.9z"/>
					<path id="&lt;Path&gt;" class="s20" d="m732 1039.8c-7.4-0.6-12.6-6.6-10.5-16.5 2-10 2.4-51.4 21.9-47.8 19.5 3.7 17.3 17.7 17.3 17.7 0 0-21.3 47.2-28.7 46.6z"/>
					<g id="&lt;Group&gt;">
						<path id="&lt;Path&gt;" class="s12" d="m833.8 1344.5c0 0 27.6-7.8 34.1-6 6.6 1.8 29.1 16.7 25.9 20.7-3.2 4.1-23-2.4-32.1-1.2-9.1 1.3-16.1 5.8-22.7 4.8-6.5-1-13.4-3.6-13.4-3.6z"/>
						<path id="&lt;Path&gt;" class="s12" d="m833.8 1344.5c0 0 13.5-7 17.3-10.9 0.5-0.5 1.3-0.4 1.7 0.2 1 1.6 2 4.7-2.7 7.9-6.8 4.4-16.3 2.8-16.3 2.8z"/>
					</g>
					<g id="&lt;Group&gt;">
						<path id="&lt;Path&gt;" class="s12" d="m930.3 1347.8c0 0 28.6 1.6 34.2 5.4 5.6 3.9 22 25.2 17.7 28-4.3 2.8-20.9-9.7-29.9-11.5-9-1.8-17.1 0.2-23-2.9-5.9-3-11.5-7.7-11.5-7.7z"/>
					</g>
				</g>
			</g>
			<g id="&lt;Group&gt;">
				<g id="&lt;Group&gt;">
					<path id="&lt;Path&gt;" class="s24" d="m734.1 1731.1h-116.3c-5.5-6.8-3.5-32-2.6-40.2 0.1-1.6 0.3-2.6 0.3-2.6 0 0 39.6-31.8 45.1-7.4q0.3 1.1 0.6 2.2c6.9 22.7 37.7 33.1 55.5 35.9 11.5 1.9 15.8 7.9 17.4 12.1z"/>
					<path id="&lt;Path&gt;" class="s13" d="m416.9 1353.4c4.2 0 199.1 36.6 231.4 76.5 16.1 20 18.5 250.2 18.5 250.2 0 0-20 24.7-63 10.4 0 0-31.5-157.5-29.2-205.3 0.6-13.2-133.2-1.9-157.7-8.3-24.5-6.3-84.3-59.6-71.1-85.6 13.2-25.9 71.1-37.9 71.1-37.9z"/>
					<path id="&lt;Path&gt;" class="s12" d="m558 1342.6c0 0 12.5 10.8 25.3 13.8 7.3 1.8 14.4 3.7 18.6 5.7 11.6 5.3 33.5 29 31.5 31.4-6.6 7.5-33-12.2-38-10.8-5 1.4 8.3 12.8 3 16-2.8 1.6-8-8.3-12.8-9.7-6.6-1.9-11-11.8-12.9-12.5-3.9-1.3-19.9-15.7-19.9-15.7z"/>
					<path id="&lt;Path&gt;" class="s25" d="m785.5 1731.1h-116.3c-5.6-6.8-3.5-32-2.7-40.2 0.2-1.6 0.3-2.6 0.3-2.6 0 0 39.7-31.8 45.2-7.4q0.2 1.1 0.6 2.2c6.8 22.7 37.6 33.1 55.4 35.9 11.6 1.9 15.9 7.9 17.5 12.1z"/>
					<path id="&lt;Path&gt;" class="s26" d="m474.4 1353.4c4.1 0 199.1 36.6 231.3 76.5 16.1 20 18.5 250.2 18.5 250.2 0 0-19.9 24.7-63 10.4 0 0-31.5-157.5-29.2-205.3 0.7-13.2-133.2-1.9-157.6-8.3-24.5-6.3-84.4-59.6-71.2-85.6 13.2-25.9 71.2-37.9 71.2-37.9z"/>
					<path id="&lt;Path&gt;" class="s12" d="m462.2 1116.6c-14.1-1.2-28.8-4.9-41.5-9-15.9-5.2-28.7-12.7-20.4-27.2 7.6-13.4 19.9-43.3 19.1-68.1l29.5 23.8 20.1 16.2c0 0-0.1 9.6-2.3 26.3q-0.6 4.5-1.4 9.8c-0.4 2.9 0.9 5.7 3.3 7.2q0.2 0.2 0.5 0.3c9.9 6.3 4.8 21.6-6.9 20.7z"/>
					<path id="&lt;Path&gt;" class="s15" d="m469 1048.4c0 0 1 3.5-0.7 16.2-17.9-2.9-34.7-17.2-34.7-17.2 9.1-2.5 12.5-12.3 19.2-11.4z"/>
					<path id="&lt;Path&gt;" class="s12" d="m485.6 1051.3c0 0-68.9 11.4-75.4-31.5-6.4-43-19.7-70.5 24-79.6 43.7-9.1 54.7 6 60.4 19.8 5.6 13.8 8.7 87.2-9 91.3z"/>
					<path id="&lt;Path&gt;" class="s26" d="m504.7 941c3 10.3-4.9 22.9-18.2 27.1-19.7 6.1-15.4 30.3-24.3 30-8.8-0.3-12.4-13.9-20.3-3.1-6.8 9.3 5.6 20.3 4.7 25.3-1.4 8.7-15.1 26.6-27.4 25.7-12.2-0.9-35.2-59.3-30.6-77.4 4.6-18.1 23-37.2 40.4-39.8 17.4-2.6 41.6 4.9 47.2 4.9 5.5 0 26.9 1.7 28.5 7.3z"/>
					<path id="&lt;Path&gt;" class="s10" d="m521.8 1340.5c-1.2 10-3.3 16.7-6.5 18.9-10.3 6.9-23.9 15.4-39.1 23.9-53.9 30-127.6 59-142.6 8.3-17.6-59.7-6-171.6 11.3-241.1 9.9-40.1 37.4-82.1 56-82 31.7 0 77.2 8.4 95.6 53.8 7.2 17.5 17.6 78.4 23 134.2 3.1 33.3 4.5 64.7 2.3 84z"/>
					<path id="&lt;Path&gt;" class="s21" d="m397.7 1068.8l7.2-16.1c0 0 63.6 6.5 74.4 43 0 0-49.2-26.1-81.6-26.9z"/>
					<path id="&lt;Path&gt;" class="s21" d="m521.8 1340.5c-1.2 10-3.3 16.7-6.5 18.9-10.3 6.9-23.9 15.4-39.1 23.9-15.8-9.6-48.4-32.6-56-59.7-9.9-35.4-3-79-3-79z"/>
					<path id="&lt;Path&gt;" class="s10" d="m490.5 1152.2c22.8 29.7 2.9 111.6 5.2 123.7 2.4 12.1 82.9 75.5 82.9 75.5 3.6 14.9-4.4 23.9-4.4 23.9 0 0-134.6-18.3-149.4-69.6-8.7-30.1-14.2-182.3-14.2-182.3 15.3-26.8 57.2-1 79.9 28.8z"/>
				</g>
				<g id="&lt;Group&gt;">
					<g id="&lt;Group&gt;">
						<path id="&lt;Path&gt;" class="s7" d="m241.8 1729.7h-0.4c-3.7-0.1-6.5-3.1-6.1-6.5l24.2-241.6 21.1 1.9-34.8 242.9c-0.2 1.9-2 3.3-4 3.3z"/>
					</g>
					<g id="&lt;Group&gt;">
						<path id="&lt;Path&gt;" class="s7" d="m366.3 1729.7h-0.4c-3.7-0.1-6.5-3.1-6.1-6.5l24.2-241.6 21.1 1.9-34.8 242.9c-0.2 1.9-2 3.3-4 3.3z"/>
					</g>
					<g id="&lt;Group&gt;">
						<path id="&lt;Path&gt;" class="s7" d="m596 1726.4l-34.7-242.9 21.1-1.9 24.2 241.6c0.3 3.4-2.5 6.4-6.1 6.5h-0.4c-2.1 0-3.8-1.4-4.1-3.3z"/>
					</g>
					<path id="&lt;Path&gt;" class="s7" d="m248.6 1447.4l-22.9-201.8c-3-29 6.7-57.5 48.7-59.7l73.8-4.5c43.7-1.8 63.5 34.6 69 62.6l43.8 221.8z"/>
					<path id="&lt;Path&gt;" class="s7" d="m249 1473.2v-26.7h339.6c6.6 0 12 5.4 12 12v14.7c0 6.6-5.4 12-12 12h-327.6c-6.6 0-12-5.4-12-12z"/>
					<path id="&lt;Path&gt;" class="s7" d="m249 1475.9v-29.4h202.8c5.1 0 9.2 4.2 9.2 9.3v20.1c0 5.1-4.1 9.3-9.2 9.3h-193.5c-5.1 0-9.3-4.2-9.3-9.3z"/>
				</g>
			</g>
			<path id="&lt;Path&gt;" class="s27" d="m3066.4 1740.1h-2916.5c-2.3 0-4.1-1.9-4.1-4.2v-3.7c0-2.3 1.8-4.1 4.1-4.1h2916.5c2.2 0 4.1 1.8 4.1 4.1v3.7c0 2.3-1.9 4.2-4.1 4.2z"/>
			<g id="&lt;Group&gt;">
				<path id="&lt;Path&gt;" class="s7" d="m767.8 834.5h-113.4c-5.2 0-9.5-4.3-9.5-9.5v-109.5c0-5.2 4.3-9.4 9.5-9.4h113.4c5.2 0 9.5 4.2 9.5 9.4v109.5c0 5.2-4.3 9.5-9.5 9.5z"/>
				<path id="&lt;Path&gt;" class="s21" d="m762.9 828.9h-103.6c-4.8 0-8.6-3.9-8.6-8.6v-100c0-4.8 3.8-8.7 8.6-8.7h103.6c4.8 0 8.6 3.9 8.6 8.7v100c0 4.7-3.8 8.6-8.6 8.6z"/>
				<g id="&lt;Group&gt;">
					<g id="&lt;Group&gt;">
						<path id="&lt;Path&gt;" class="s7" d="m708.4 723.4c0-1.6 1.2-2.8 2.7-2.8 1.5 0 2.7 1.2 2.7 2.8 0 1.5-1.2 2.7-2.7 2.7-1.5 0-2.7-1.2-2.7-2.7z"/>
						<path id="&lt;Path&gt;" class="s7" d="m730.5 727.2c0.7-1.3 2.4-1.8 3.7-1 1.3 0.7 1.8 2.4 1.1 3.7-0.8 1.3-2.4 1.8-3.8 1.1-1.3-0.8-1.8-2.4-1-3.8z"/>
						<path id="&lt;Path&gt;" class="s7" d="m749.4 742.3c1.3-0.8 3-0.5 3.8 0.8 0.8 1.3 0.5 3-0.8 3.8-1.3 0.8-3 0.5-3.8-0.8-0.8-1.3-0.4-3 0.8-3.8z"/>
						<path id="&lt;Path&gt;" class="s7" d="m758.8 765.6c1.5 0 2.8 1.2 2.8 2.7 0 1.5-1.3 2.8-2.8 2.8-1.5 0-2.7-1.3-2.7-2.8 0-1.5 1.2-2.7 2.7-2.7z"/>
						<path id="&lt;Path&gt;" class="s7" d="m754 792.6c1.1 1.1 1.1 2.8 0 3.9-1 1.1-2.8 1.1-3.8 0-1.1-1.1-1.1-2.8 0-3.9 1-1 2.8-1 3.8 0z"/>
						<path id="&lt;Path&gt;" class="s7" d="m736.8 809.9c1.1 1.1 1.1 2.8 0 3.9-1.1 1.1-2.8 1.1-3.9 0-1-1.1-1-2.8 0-3.9 1.1-1.1 2.8-1.1 3.9 0z"/>
						<path id="&lt;Path&gt;" class="s7" d="m708.4 818.8c0-1.5 1.2-2.7 2.7-2.7 1.5 0 2.7 1.2 2.7 2.7 0 1.5-1.2 2.7-2.7 2.7-1.5 0-2.7-1.2-2.7-2.7z"/>
					</g>
					<g id="&lt;Group&gt;">
						<path id="&lt;Path&gt;" class="s7" d="m690.6 731c-1.4 0.7-3 0.2-3.8-1.1-0.7-1.3-0.2-3 1.1-3.7 1.3-0.8 3-0.3 3.7 1 0.8 1.4 0.3 3-1 3.8z"/>
						<path id="&lt;Path&gt;" class="s7" d="m673.5 746.1c-0.8 1.3-2.5 1.6-3.8 0.8-1.3-0.8-1.6-2.5-0.8-3.8 0.8-1.3 2.5-1.6 3.8-0.8 1.3 0.8 1.6 2.5 0.8 3.8z"/>
						<path id="&lt;Path&gt;" class="s7" d="m666 768.3c0 1.5-1.2 2.8-2.7 2.8-1.5 0-2.7-1.3-2.7-2.8 0-1.5 1.2-2.7 2.7-2.7 1.5 0 2.7 1.2 2.7 2.7z"/>
						<path id="&lt;Path&gt;" class="s7" d="m672 792.6c1 1.1 1 2.8 0 3.9-1.1 1.1-2.8 1.1-3.9 0-1.1-1.1-1.1-2.8 0-3.9 1.1-1 2.8-1 3.9 0z"/>
						<path id="&lt;Path&gt;" class="s7" d="m689.2 809.9c1.1 1.1 1.1 2.8 0 3.9-1.1 1.1-2.8 1.1-3.9 0-1.1-1.1-1.1-2.8 0-3.9 1.1-1.1 2.8-1.1 3.9 0z"/>
					</g>
				</g>
				<g id="&lt;Group&gt;">
					<path id="&lt;Path&gt;" class="s7" d="m710.4 768.3c0-1.5 1.2-2.7 2.7-2.7 1.5 0 2.7 1.2 2.7 2.7 0 1.5-1.2 2.8-2.7 2.8-1.5 0-2.7-1.3-2.7-2.8z"/>
					<g id="&lt;Group&gt;">
						<path id="&lt;Path&gt;" class="s7" d="m713.5 768.3h-0.8v-34.2h0.8z"/>
					</g>
					<g id="&lt;Group&gt;">
						<path id="&lt;Path&gt;" class="s7" d="m713.5 769.2l-1.4-1.8 18.1-14.3 1.4 1.8z"/>
					</g>
				</g>
			</g>
		</g>
	</g>
</svg>