<?xml version="1.0" encoding="UTF-8" standalone="no"?>
<svg
   xmlns:dc="http://purl.org/dc/elements/1.1/"
   xmlns:cc="http://creativecommons.org/ns#"
   xmlns:rdf="http://www.w3.org/1999/02/22-rdf-syntax-ns#"
   xmlns:svg="http://www.w3.org/2000/svg"
   xmlns="http://www.w3.org/2000/svg"
   xmlns:sodipodi="http://sodipodi.sourceforge.net/DTD/sodipodi-0.dtd"
   xmlns:inkscape="http://www.inkscape.org/namespaces/inkscape"
   width="379.46695mm"
   height="285.29248mm"
   viewBox="0 0 379.46694 285.29248"
   version="1.1"
   id="svg8"
   inkscape:version="1.0.2 (e86c870879, 2021-01-15)"
   sodipodi:docname="hashedtokens.svg">
  <defs
     id="defs2" />
  <sodipodi:namedview
     id="base"
     pagecolor="#ffffff"
     bordercolor="#666666"
     borderopacity="1.0"
     inkscape:pageopacity="0.0"
     inkscape:pageshadow="2"
     inkscape:zoom="1.4"
     inkscape:cx="760.37892"
     inkscape:cy="591.16675"
     inkscape:document-units="mm"
     inkscape:current-layer="g1633"
     inkscape:document-rotation="0"
     showgrid="false"
     fit-margin-top="0"
     fit-margin-left="0"
     fit-margin-right="0"
     fit-margin-bottom="0"
     inkscape:window-width="3840"
     inkscape:window-height="2063"
     inkscape:window-x="1080"
     inkscape:window-y="27"
     inkscape:window-maximized="1" />
  <metadata
     id="metadata5">
    <rdf:RDF>
      <cc:Work
         rdf:about="">
        <dc:format>image/svg+xml</dc:format>
        <dc:type
           rdf:resource="http://purl.org/dc/dcmitype/StillImage" />
        <dc:title></dc:title>
      </cc:Work>
    </rdf:RDF>
  </metadata>
  <g
     inkscape:label="Layer 1"
     inkscape:groupmode="layer"
     id="layer1"
     transform="translate(24.687343,-135.4384)">
    <g
       id="g920"
       transform="matrix(1.6452152,0,0,1.6452152,-8.2402693,-65.198198)">
      <path
         id="path10"
         style="opacity:0.23737;fill:#ffcc00;stroke-width:2;stroke-linecap:round"
         d="m 198.3017,171.64119 c 0,48.88248 -39.62708,88.50956 -88.50956,88.50956 -48.882477,0 -88.509554,-39.62708 -88.509554,-88.50956 0,-48.88248 40.608034,64.99174 89.490514,64.99174 48.88248,0 87.5286,-113.87422 87.5286,-64.99174 z"
         sodipodi:nodetypes="sssss" />
      <ellipse
         style="opacity:0.444707;fill:#ff2a2a;stroke-width:2;stroke-linecap:round"
         id="path13"
         cx="36.769665"
         cy="173.81252"
         rx="38.874756"
         ry="45.812298" />
      <path
         id="ellipse15"
         style="opacity:0.23737;fill:#000080;stroke-width:2;stroke-linecap:round"
         d="m 134.87552,175.34079 c -1e-5,25.30143 -6.56192,45.49218 -28.03185,45.49218 -21.469931,0 -30.596995,-20.46499 -30.596998,-45.76642 -10e-7,-25.30143 8.250999,-34.33418 29.720938,-34.33419 21.46993,0 28.90791,9.30699 28.90791,34.60843 z"
         sodipodi:nodetypes="sssss" />
      <ellipse
         style="opacity:0.496905;fill:#668000;stroke-width:2;stroke-linecap:round"
         id="ellipse17"
         cx="173.88533"
         cy="173.69714"
         rx="38.874756"
         ry="45.812298" />
      <path
         id="path19"
         style="opacity:0.505217;fill:#ffcc00;stroke-width:2;stroke-linecap:round"
         d="m 22.811813,248.88693 c 0,-48.88248 39.62708,-88.50957 88.509557,-88.50957 48.88248,0 88.50956,39.62709 88.50956,88.50957 0,48.88248 -40.60804,-64.99174 -89.49052,-64.99174 -48.882477,0 -87.528597,113.87422 -87.528597,64.99174 z"
         sodipodi:nodetypes="sssss" />
    </g>
    <g
       id="g925">
      <g
         id="g1633">
        <text
           xml:space="preserve"
           style="font-style:normal;font-weight:normal;font-size:14.5102px;line-height:1.25;font-family:sans-serif;letter-spacing:0px;word-spacing:0px;fill:#000000;fill-opacity:1;stroke:none;stroke-width:2.79471;stroke-miterlimit:4;stroke-dasharray:none"
           x="-7.0635409"
           y="408.51578"
           id="text837"><tspan
             sodipodi:role="line"
             id="tspan835"
             x="-7.0635409"
             y="408.51578"
             style="font-style:normal;font-variant:normal;font-weight:bold;font-stretch:normal;font-size:48.3675px;font-family:'BPG Courier GPL&amp;GNU';-inkscape-font-specification:'BPG Courier GPL&amp;GNU';fill:none;stroke:#000000;stroke-width:2.79471;stroke-miterlimit:4;stroke-dasharray:none;stroke-opacity:1"><tspan
               style="fill:none;stroke:#666666;stroke-width:2.79471;stroke-miterlimit:4;stroke-dasharray:none"
               id="tspan1639">hashed</tspan><tspan
               style="fill:none;stroke:#808080;stroke-width:2.79471;stroke-miterlimit:4;stroke-dasharray:none"
               id="tspan1641">t kens</tspan></tspan></text>
        <path
           fill-rule="evenodd"
           clip-rule="evenodd"
           d="m 200.3675,394.49384 h 2.20819 v -0.26497 -4.39814 c 0,-2.5153 1.02953,-4.80236 2.68611,-6.45944 v -0.002 c 1.65731,-1.65732 3.94487,-2.68685 6.4619,-2.68685 2.51506,0 4.80212,1.02953 6.45943,2.68685 l 0.003,0.002 c 1.65658,1.65708 2.68611,3.94414 2.68611,6.45944 v 4.39814 0.26497 h 1.75887 c 0.3919,0 0.7128,0.32092 0.7128,0.71257 v 15.05041 c 0,0.39165 -0.3209,0.71256 -0.7128,0.71256 h -22.26304 c -0.3919,0 -0.71282,-0.32091 -0.71282,-0.71256 v -15.05041 c 0,-0.39165 0.32092,-0.71257 0.71282,-0.71257 z m 5.76239,0 h 11.18687 v -0.26497 -4.44891 c 0,-1.53802 -0.62949,-2.93727 -1.64202,-3.95104 l -9.4e-4,9.3e-4 c -1.01326,-1.014 -2.41227,-1.64375 -3.9498,-1.64375 -1.53826,0 -2.93727,0.6295 -3.95177,1.64277 -1.01278,1.01377 -1.64204,2.41302 -1.64204,3.95104 v 4.44916 z m 5.63892,8.23531 1.12911,5.21029 -3.09502,0.013 0.90827,-5.28029 c -0.84567,-0.27112 -1.45865,-1.06355 -1.45865,-1.99917 0,-1.1587 0.93908,-2.09777 2.09826,-2.09777 1.15795,0 2.09777,0.93907 2.09777,2.09777 0,1.01548 -0.72169,1.86262 -1.67974,2.05611 z"
           id="path1617"
           style="fill:#666666;stroke-width:0.246477" />
      </g>
    </g>
  </g>
</svg>
